SplineFontDB: 3.0
FontName: Jost-BookItalic
FullName: Jost* 400 Book Italic
FamilyName: Jost*
Weight: Book
Copyright: This typeface is licensed under the SIL open font license.
UComments: "2018-6-8: Created with FontForge (http://fontforge.org)"
Version: 003.400
ItalicAngle: -10
UnderlinePosition: -100
UnderlineWidth: 50
Ascent: 800
Descent: 200
InvalidEm: 0
LayerCount: 2
Layer: 0 0 "Back" 1
Layer: 1 0 "Fore" 0
XUID: [1021 69 1495626776 760146]
FSType: 0
OS2Version: 0
OS2_WeightWidthSlopeOnly: 0
OS2_UseTypoMetrics: 0
CreationTime: 1528480336
ModificationTime: 1577667308
PfmFamily: 17
TTFWeight: 400
TTFWidth: 5
LineGap: 100
VLineGap: 0
OS2TypoAscent: 825
OS2TypoAOffset: 0
OS2TypoDescent: -225
OS2TypoDOffset: 0
OS2TypoLinegap: 100
OS2WinAscent: 900
OS2WinAOffset: 0
OS2WinDescent: 300
OS2WinDOffset: 0
HheadAscent: 1030
HheadAOffset: 0
HheadDescent: -350
HheadDOffset: 0
OS2CapHeight: 700
OS2XHeight: 460
OS2Vendor: 'PfEd'
Lookup: 1 0 0 "alt a" { "alt a"  } ['ss01' ('DFLT' <'dflt' > 'latn' <'dflt' > ) ]
Lookup: 1 0 0 "Tabular Numbers lookup" { "Tabular Numbers lookup"  } ['tnum' ('DFLT' <'dflt' > 'grek' <'dflt' > 'latn' <'dflt' > ) ]
Lookup: 258 0 0 "Lets get our kern on" { "kernin like nobodys business" [150,0,4] } ['kern' ('DFLT' <'dflt' > 'latn' <'dflt' > ) ]
MarkAttachClasses: 1
DEI: 91125
KernClass2: 16 14 "kernin like nobodys business"
 43 slash seven V W Wcircumflex uni040E uni0423
 175 quotedbl quotesingle asterisk grave dieresis ordfeminine macron degree acute ordmasculine circumflex breve dotaccent ring tilde quoteleft quoteright quotedblleft quotedblright
 25 nine question F P uni0420
 131 A L backslash Agrave Aacute Acircumflex Atilde Adieresis Aring Amacron Abreve Aogonek Lacute uni013B Lslash uni0410 uni0414 uni041C
 58 three eight B C germandbls uni0411 uni0412 uni0417 uni0421
 29 K X Z uni0416 uni041A uni0425

StartChar: H
Encoding: 72 72 0
Width: 693
VWidth: 0
Flags: HMW
LayerCount: 2
Fore
SplineSet
154 340 m 1
 168 420 l 1
 635 420 l 1
 622 340 l 1
 154 340 l 1
624 700 m 1
 710 700 l 1
 589 0 l 1
 507 0 l 1
 624 700 l 1
168 700 m 1
 254 700 l 1
 133 0 l 1
 51 0 l 1
 168 700 l 1
EndSplineSet
EndChar

StartChar: O
Encoding: 79 79 1
Width: 766
VWidth: 0
Flags: HMW
LayerCount: 2
Fore
SplineSet
160 350 m 0
 138 209 213 77 366 76 c 0
 521 75 647 201 672 350 c 0
 694 491 619 623 466 624 c 0
 311 625 185 499 160 350 c 0
70 350 m 0
 100 546 270 710 474 710 c 0
 676 710 790 538 762 350 c 0
 732 154 562 -10 358 -10 c 0
 156 -10 42 162 70 350 c 0
EndSplineSet
EndChar

StartChar: I
Encoding: 73 73 2
Width: 237
VWidth: 0
Flags: HMW
LayerCount: 2
Fore
SplineSet
168 700 m 1
 254 700 l 1
 133 0 l 1
 51 0 l 1
 168 700 l 1
EndSplineSet
EndChar

StartChar: C
Encoding: 67 67 3
Width: 664
VWidth: 0
Flags: HMW
LayerCount: 2
Fore
SplineSet
160 350 m 0
 138 208 217 78 361 76 c 0
 457 75 539 120 600 178 c 1
 582 66 l 1
 517 17 446 -10 352 -10 c 0
 156 -9 42 162 70 350 c 0
 100 548 271 709 470 710 c 0
 559 710 622 685 678 632 c 1
 660 521 l 1
 617 586 549 624 461 624 c 0
 315 624 185 501 160 350 c 0
EndSplineSet
EndChar

StartChar: E
Encoding: 69 69 4
Width: 533
VWidth: 0
Flags: HMW
LayerCount: 2
Fore
SplineSet
96 0 m 1
 110 80 l 1
 454 80 l 1
 440 0 l 1
 96 0 l 1
202 620 m 1
 216 700 l 1
 560 700 l 1
 546 620 l 1
 202 620 l 1
154 340 m 1
 168 420 l 1
 492 420 l 1
 479 340 l 1
 154 340 l 1
168 700 m 1
 254 700 l 1
 133 0 l 1
 51 0 l 1
 168 700 l 1
EndSplineSet
EndChar

StartChar: F
Encoding: 70 70 6
Width: 485
VWidth: 0
Flags: HMW
LayerCount: 2
Fore
SplineSet
202 620 m 1
 216 700 l 1
 521 700 l 1
 508 620 l 1
 202 620 l 1
154 340 m 1
 168 420 l 1
 464 420 l 1
 450 340 l 1
 154 340 l 1
168 700 m 1
 254 700 l 1
 133 0 l 1
 51 0 l 1
 168 700 l 1
EndSplineSet
EndChar

StartChar: G
Encoding: 71 71 7
Width: 752
VWidth: 0
Flags: HMW
LayerCount: 2
Fore
SplineSet
412 275 m 1
 426 354 l 1
 742 354 l 1
 708 166 570 -10 358 -10 c 0
 156 -10 42 160 70 350 c 0
 101 550 268 710 474 710 c 0
 592 710 685 658 735 560 c 1
 668 506 l 1
 632 582 562 624 466 624 c 0
 314 624 186 502 160 350 c 0
 138 206 216 76 366 76 c 0
 502 76 589 169 635 275 c 1
 412 275 l 1
EndSplineSet
EndChar

StartChar: T
Encoding: 84 84 8
Width: 451
VWidth: 0
Flags: HMW
LayerCount: 2
Fore
SplineSet
87 620 m 1
 102 700 l 1
 535 700 l 1
 521 620 l 1
 346 620 l 1
 240 0 l 1
 156 0 l 1
 262 620 l 1
 87 620 l 1
EndSplineSet
EndChar

StartChar: L
Encoding: 76 76 9
Width: 436
VWidth: 0
Flags: HMW
LayerCount: 2
Fore
SplineSet
170 700 m 1
 254 700 l 1
 148 80 l 1
 414 80 l 1
 400 0 l 1
 50 0 l 1
 170 700 l 1
EndSplineSet
EndChar

StartChar: D
Encoding: 68 68 10
Width: 659
VWidth: 0
Flags: HMW
LayerCount: 2
Fore
SplineSet
168 700 m 1
 254 700 l 1
 133 0 l 1
 51 0 l 1
 168 700 l 1
258 0 m 2
 95 0 l 1
 110 85 l 1
 266 85 l 2
 424 85 544 196 570 350 c 0
 594 497 516 615 362 615 c 2
 200 615 l 1
 215 700 l 1
 370 700 l 2
 570 700 682 542 654 350 c 0
 623 150 462 0 258 0 c 2
EndSplineSet
EndChar

StartChar: Q
Encoding: 81 81 11
Width: 766
VWidth: 0
Flags: HMW
LayerCount: 2
Fore
SplineSet
160 350 m 0
 138 209 213 77 366 76 c 0
 521 75 647 201 672 350 c 0
 694 491 619 623 466 624 c 0
 311 625 185 499 160 350 c 0
70 350 m 0
 100 546 270 710 474 710 c 0
 676 710 790 538 762 350 c 0
 732 154 562 -10 358 -10 c 0
 156 -10 42 162 70 350 c 0
394 300 m 1
 497 300 l 1
 737 0 l 1
 634 0 l 1
 394 300 l 1
EndSplineSet
EndChar

StartChar: A
Encoding: 65 65 12
Width: 640
VWidth: 0
Flags: HMW
LayerCount: 2
Fore
SplineSet
152 210 m 1
 193 290 l 1
 496 290 l 1
 512 210 l 1
 152 210 l 1
388 542 m 1
 226 264 l 1
 215 246 l 1
 71 0 l 1
 -25 0 l 1
 418 736 l 1
 608 0 l 1
 516 0 l 1
 458 240 l 1
 454 260 l 1
 388 542 l 1
EndSplineSet
EndChar

StartChar: R
Encoding: 82 82 13
Width: 543
VWidth: 0
Flags: HMW
LayerCount: 2
Fore
SplineSet
230 345 m 1
 322 345 l 1
 506 0 l 1
 406 0 l 1
 230 345 l 1
168 700 m 1
 254 700 l 1
 133 0 l 1
 51 0 l 1
 168 700 l 1
202 625 m 1
 215 700 l 1
 352 700 l 2
 479 700 569 614 550 490 c 0
 530 363 417 280 286 280 c 2
 142 280 l 1
 156 355 l 1
 292 355 l 2
 379 355 451 406 466 490 c 0
 480 571 428 625 344 625 c 2
 202 625 l 1
EndSplineSet
EndChar

StartChar: V
Encoding: 86 86 14
Width: 640
VWidth: 0
Flags: HMW
LayerCount: 2
Fore
SplineSet
326 158 m 1
 633 700 l 1
 728 700 l 1
 298 -36 l 1
 96 700 l 1
 186 700 l 1
 326 158 l 1
EndSplineSet
EndChar

StartChar: M
Encoding: 77 77 15
Width: 786
VWidth: 0
Flags: HMW
LayerCount: 2
Fore
SplineSet
227 472 m 1
 95 0 l 1
 10 0 l 1
 220 736 l 1
 404 230 l 1
 766 739 l 1
 720 0 l 1
 636 0 l 1
 667 468 l 1
 378 64 l 1
 227 472 l 1
EndSplineSet
EndChar

StartChar: W
Encoding: 87 87 16
Width: 960
VWidth: 0
Flags: HMW
LayerCount: 2
Fore
SplineSet
690 182 m 1
 948 700 l 1
 1044 700 l 1
 662 -37 l 1
 542 507 l 1
 254 -37 l 1
 100 700 l 1
 192 700 l 1
 291 182 l 1
 577 737 l 1
 690 182 l 1
EndSplineSet
EndChar

StartChar: N
Encoding: 78 78 17
Width: 752
VWidth: 0
Flags: HMW
LayerCount: 2
Fore
SplineSet
684 700 m 1
 768 700 l 1
 642 -34 l 1
 224 522 l 1
 134 0 l 1
 49 0 l 1
 175 734 l 1
 594 178 l 1
 684 700 l 1
EndSplineSet
EndChar

StartChar: a
Encoding: 97 97 18
Width: 553
VWidth: 0
Flags: HMW
LayerCount: 2
Fore
SplineSet
462 460 m 1
 538 460 l 1
 458 0 l 1
 386 0 l 1
 462 460 l 1
45 230 m 0
 65 366 176 471 306 470 c 0
 430 469 472 354 456 230 c 0
 438 99 352 -10 230 -10 c 0
 100 -10 27 100 45 230 c 0
125 230 m 0
 111 140 158 66 246 66 c 0
 326 66 406 138 420 230 c 0
 432 317 386 392 308 394 c 0
 218 396 140 324 125 230 c 0
EndSplineSet
Substitution2: "alt a" a.alt
EndChar

StartChar: X
Encoding: 88 88 19
Width: 538
VWidth: 0
Flags: HMW
LayerCount: 2
Fore
SplineSet
506 700 m 1
 608 700 l 1
 352 365 l 1
 511 0 l 1
 416 0 l 1
 301 292 l 1
 91 0 l 1
 -10 0 l 1
 271 369 l 1
 126 700 l 1
 221 700 l 1
 322 442 l 1
 506 700 l 1
EndSplineSet
EndChar

StartChar: K
Encoding: 75 75 20
Width: 548
VWidth: 0
Flags: HMW
LayerCount: 2
Fore
SplineSet
168 700 m 1
 254 700 l 1
 133 0 l 1
 51 0 l 1
 168 700 l 1
517 700 m 1
 624 700 l 1
 270 370 l 1
 515 0 l 1
 416 0 l 1
 171 372 l 1
 517 700 l 1
EndSplineSet
EndChar

StartChar: Y
Encoding: 89 89 21
Width: 544
VWidth: 0
Flags: HMW
LayerCount: 2
Fore
SplineSet
538 700 m 1
 634 700 l 1
 338 300 l 1
 286 0 l 1
 202 0 l 1
 256 304 l 1
 98 700 l 1
 189 700 l 1
 308 378 l 1
 538 700 l 1
EndSplineSet
EndChar

StartChar: B
Encoding: 66 66 22
Width: 541
VWidth: 0
Flags: HMW
LayerCount: 2
Fore
SplineSet
178 370 m 1
 186 416 l 1
 294 417 l 2
 361 417 421 455 433 520 c 0
 444 583 398 624 334 624 c 2
 240 625 l 1
 146 75 l 1
 244 76 l 2
 331 76 404 126 419 210 c 0
 433 292 380 343 296 343 c 2
 174 344 l 1
 182 390 l 1
 299 390 l 2
 422 388 520 330 502 204 c 0
 482 71 369 0 238 0 c 2
 50 0 l 1
 170 700 l 1
 342 700 l 2
 456 700 536 638 518 524 c 0
 501 422 404 372 290 370 c 2
 178 370 l 1
EndSplineSet
EndChar

StartChar: Z
Encoding: 90 90 23
Width: 528
VWidth: 0
Flags: HMW
LayerCount: 2
Fore
SplineSet
112 620 m 1
 126 700 l 1
 604 700 l 1
 141 80 l 1
 478 80 l 1
 464 0 l 1
 -15 0 l 1
 448 620 l 1
 112 620 l 1
EndSplineSet
EndChar

StartChar: o
Encoding: 111 111 24
Width: 529
VWidth: 0
Flags: HMW
LayerCount: 2
Fore
SplineSet
52 230 m 0
 70 362 183 470 318 470 c 0
 452 470 532 358 515 230 c 0
 497 98 384 -10 249 -10 c 0
 115 -10 35 102 52 230 c 0
131 230 m 0
 119 145 165 66 255 66 c 0
 346 66 422 140 436 230 c 0
 448 315 401 394 311 394 c 0
 220 394 145 320 131 230 c 0
EndSplineSet
EndChar

StartChar: J
Encoding: 74 74 25
Width: 232
VWidth: 0
Flags: HMW
LayerCount: 2
Fore
SplineSet
-112 -104 m 1
 -97 -126 -74 -141 -42 -140 c 0
 -3 -138 34 -104 41 -50 c 2
 170 700 l 1
 249 700 l 1
 120 -60 l 2
 104 -156 39 -221 -56 -220 c 0
 -104 -220 -142 -195 -164 -169 c 1
 -112 -104 l 1
EndSplineSet
EndChar

StartChar: t
Encoding: 116 116 26
Width: 232
VWidth: 0
Flags: HMW
LayerCount: 2
Fore
SplineSet
58 460 m 1
 282 460 l 1
 268 385 l 1
 44 385 l 1
 58 460 l 1
155 620 m 1
 236 620 l 1
 128 0 l 1
 51 0 l 1
 155 620 l 1
EndSplineSet
EndChar

StartChar: d
Encoding: 100 100 27
Width: 553
VWidth: 0
Flags: HMW
LayerCount: 2
Fore
SplineSet
512 780 m 1
 593 780 l 1
 458 0 l 1
 380 0 l 1
 512 780 l 1
45 230 m 0
 65 366 176 471 306 470 c 0
 430 469 472 354 456 230 c 0
 438 99 352 -10 230 -10 c 0
 100 -10 27 100 45 230 c 0
125 230 m 0
 111 140 158 66 246 66 c 0
 326 66 406 138 420 230 c 0
 432 317 386 392 308 394 c 0
 218 396 140 324 125 230 c 0
EndSplineSet
EndChar

StartChar: l
Encoding: 108 108 28
Width: 223
VWidth: 0
Flags: HMW
LayerCount: 2
Fore
SplineSet
178 780 m 1
 258 780 l 1
 123 0 l 1
 46 0 l 1
 178 780 l 1
EndSplineSet
EndChar

StartChar: i
Encoding: 105 105 29
Width: 252
VWidth: 0
Flags: HMW
LayerCount: 2
Fore
SplineSet
156 650 m 0
 156 680 180 704 210 704 c 0
 240 704 264 680 264 650 c 0
 264 620 240 596 210 596 c 0
 180 596 156 620 156 650 c 0
137 460 m 1
 218 460 l 1
 140 0 l 1
 60 0 l 1
 137 460 l 1
EndSplineSet
EndChar

StartChar: r
Encoding: 114 114 30
Width: 332
VWidth: 0
Flags: HMW
LayerCount: 2
Fore
SplineSet
203 460 m 1
 124 0 l 1
 44 0 l 1
 124 460 l 1
 203 460 l 1
324 372 m 1
 306 386 291 395 268 395 c 0
 207 396 183 337 172 281 c 1
 135 281 l 1
 151 373 216 469 296 470 c 0
 328 470 352 458 376 436 c 1
 324 372 l 1
EndSplineSet
EndChar

StartChar: c
Encoding: 99 99 31
Width: 463
VWidth: 0
Flags: HMW
LayerCount: 2
Fore
SplineSet
126 230 m 0
 114 144 160 68 250 66 c 0
 322 65 385 104 421 148 c 1
 407 48 l 1
 366 12 306 -10 244 -10 c 0
 110 -10 29 102 46 230 c 0
 64 363 176 470 312 470 c 0
 371 470 427 449 462 411 c 1
 448 311 l 1
 427 361 373 394 306 394 c 0
 214 394 140 320 126 230 c 0
EndSplineSet
EndChar

StartChar: b
Encoding: 98 98 32
Width: 553
VWidth: 0
Flags: HMW
LayerCount: 2
Fore
SplineSet
253 780 m 1
 119 0 l 1
 40 0 l 1
 174 780 l 1
 253 780 l 1
532 230 m 0
 512 94 402 -11 272 -10 c 0
 148 -9 106 106 122 230 c 0
 140 361 226 470 348 470 c 0
 478 470 550 360 532 230 c 0
452 230 m 0
 466 320 420 394 332 394 c 0
 252 394 172 322 158 230 c 0
 146 143 192 68 270 66 c 0
 360 64 437 136 452 230 c 0
EndSplineSet
EndChar

StartChar: p
Encoding: 112 112 33
Width: 553
VWidth: 0
Flags: HMW
LayerCount: 2
Fore
SplineSet
82 -220 m 1
 2 -220 l 1
 120 460 l 1
 196 460 l 1
 82 -220 l 1
532 230 m 0
 512 94 402 -11 272 -10 c 0
 148 -9 106 106 122 230 c 0
 140 361 226 470 348 470 c 0
 478 470 550 360 532 230 c 0
452 230 m 0
 466 320 420 394 332 394 c 0
 252 394 172 322 158 230 c 0
 146 143 192 68 270 66 c 0
 360 64 437 136 452 230 c 0
EndSplineSet
EndChar

StartChar: q
Encoding: 113 113 34
Width: 553
VWidth: 0
Flags: HMW
LayerCount: 2
Fore
SplineSet
342 -220 m 1
 458 460 l 1
 538 460 l 1
 421 -220 l 1
 342 -220 l 1
45 230 m 0
 65 366 176 471 306 470 c 0
 430 469 472 354 456 230 c 0
 438 99 352 -10 230 -10 c 0
 100 -10 27 100 45 230 c 0
125 230 m 0
 111 140 158 66 246 66 c 0
 326 66 406 138 420 230 c 0
 432 317 386 392 308 394 c 0
 218 396 140 324 125 230 c 0
EndSplineSet
EndChar

StartChar: h
Encoding: 104 104 35
Width: 509
VWidth: 0
Flags: HMW
LayerCount: 2
Fore
SplineSet
258 780 m 1
 124 0 l 1
 44 0 l 1
 178 780 l 1
 258 780 l 1
380 280 m 2
 388 342 373 392 307 394 c 0
 237 396 188 341 172 281 c 1
 145 281 l 1
 164 379 233 470 334 470 c 0
 434 470 472 390 460 290 c 1
 410 0 l 1
 332 0 l 1
 380 280 l 2
EndSplineSet
EndChar

StartChar: n
Encoding: 110 110 36
Width: 509
VWidth: 0
Flags: HMW
LayerCount: 2
Fore
SplineSet
380 280 m 2
 388 342 373 394 307 394 c 0
 238 394 184 347 174 284 c 2
 124 0 l 1
 44 0 l 1
 124 460 l 1
 203 460 l 1
 192 390 l 1
 226 440 274 470 334 470 c 0
 435 470 474 386 460 290 c 2
 410 0 l 1
 332 0 l 1
 380 280 l 2
EndSplineSet
EndChar

StartChar: m
Encoding: 109 109 37
Width: 756
VWidth: 0
Flags: HMW
LayerCount: 2
Fore
SplineSet
707 290 m 2
 658 0 l 1
 578 0 l 1
 628 280 l 2
 636 342 627 394 564 394 c 0
 496 394 448 345 439 282 c 2
 390 0 l 1
 312 0 l 1
 360 280 l 2
 367 342 361 394 298 394 c 0
 232 394 184 349 174 284 c 2
 124 0 l 1
 44 0 l 1
 124 460 l 1
 203 460 l 1
 192 396 l 1
 224 442 267 470 324 470 c 0
 390 470 426 433 438 380 c 1
 474 434 525 470 591 470 c 0
 691 470 719 386 707 290 c 2
EndSplineSet
EndChar

StartChar: k
Encoding: 107 107 38
Width: 426
VWidth: 0
Flags: HMW
LayerCount: 2
Fore
SplineSet
172 780 m 1
 254 780 l 1
 118 0 l 1
 41 0 l 1
 172 780 l 1
360 460 m 1
 462 460 l 1
 230 264 l 1
 398 0 l 1
 304 0 l 1
 136 272 l 1
 360 460 l 1
EndSplineSet
EndChar

StartChar: u
Encoding: 117 117 39
Width: 509
VWidth: 0
Flags: HMW
LayerCount: 2
Fore
SplineSet
154 180 m 2
 146 119 161 66 226 66 c 0
 295 66 350 113 360 176 c 2
 410 460 l 1
 490 460 l 1
 410 0 l 1
 330 0 l 1
 342 70 l 1
 308 20 261 -10 200 -10 c 0
 100 -10 60 75 74 170 c 2
 124 460 l 1
 202 460 l 1
 154 180 l 2
EndSplineSet
EndChar

StartChar: e
Encoding: 101 101 40
Width: 499
VWidth: 0
Flags: HMW
LayerCount: 2
Fore
SplineSet
238 -10 m 0
 124 -10 46 68 46 200 c 0
 46 343 157 470 303 470 c 0
 418 470 490 400 490 269 c 0
 490 249 484 221 479 210 c 1
 96 210 l 1
 96 278 l 1
 426 278 l 1
 395 232 l 1
 401 248 408 266 408 285 c 0
 408 356 371 400 298 400 c 0
 196 400 126 310 126 205 c 0
 126 122 164 65 248 65 c 0
 310 65 363 100 397 148 c 1
 460 107 l 1
 412 39 336 -10 238 -10 c 0
EndSplineSet
EndChar

StartChar: g
Encoding: 103 103 41
Width: 553
VWidth: 0
Flags: HMW
LayerCount: 2
Fore
SplineSet
10 -30 m 1
 88 -30 l 1
 83 -98 125 -153 208 -154 c 0
 290 -155 367 -89 381 10 c 2
 458 460 l 1
 538 460 l 1
 461 10 l 2
 440 -131 339 -230 207 -230 c 0
 78 -230 -2 -146 10 -30 c 1
45 230 m 0
 65 366 176 471 306 470 c 0
 430 469 472 354 456 230 c 0
 438 99 352 -10 230 -10 c 0
 100 -10 27 100 45 230 c 0
125 230 m 0
 111 140 158 66 246 66 c 0
 326 66 406 138 420 230 c 0
 432 317 386 392 308 394 c 0
 218 396 140 324 125 230 c 0
EndSplineSet
EndChar

StartChar: f
Encoding: 102 102 42
Width: 277
VWidth: 0
Flags: HMW
LayerCount: 2
Fore
SplineSet
90 460 m 1
 314 460 l 1
 301 385 l 1
 76 385 l 1
 90 460 l 1
346 684 m 1
 334 702 321 710 304 710 c 0
 268 710 246 670 240 620 c 2
 134 0 l 1
 54 0 l 1
 162 630 l 2
 176 722 229 792 317 790 c 0
 355 790 380 770 398 748 c 1
 346 684 l 1
EndSplineSet
EndChar

StartChar: s
Encoding: 115 115 43
Width: 391
VWidth: 0
Flags: HMW
LayerCount: 2
Fore
SplineSet
96 139 m 1
 124 96 162 62 219 62 c 0
 264 62 294 90 294 126 c 0
 294 170 246 195 204 212 c 0
 152 233 88 264 88 340 c 0
 88 427 163 470 238 470 c 0
 311 470 368 431 396 380 c 1
 336 340 l 1
 311 374 276 402 233 402 c 0
 191 402 164 381 164 350 c 0
 164 313 202 295 246 276 c 0
 315 246 373 217 373 135 c 0
 373 55 306 -10 212 -10 c 0
 120 -10 56 47 31 102 c 1
 96 139 l 1
EndSplineSet
EndChar

StartChar: y
Encoding: 121 121 44
Width: 426
VWidth: 0
Flags: HMW
LayerCount: 2
Fore
SplineSet
481 460 m 1
 72 -220 l 1
 -18 -220 l 1
 156 68 l 1
 52 460 l 1
 140 460 l 1
 224 100 l 1
 192 104 l 1
 390 460 l 1
 481 460 l 1
EndSplineSet
EndChar

StartChar: w
Encoding: 119 119 45
Width: 659
VWidth: 0
Flags: HMW
LayerCount: 2
Fore
SplineSet
57 460 m 1
 144 460 l 1
 203 164 l 1
 383 497 l 1
 454 162 l 1
 618 460 l 1
 709 460 l 1
 428 -37 l 1
 352 298 l 1
 166 -37 l 1
 57 460 l 1
EndSplineSet
EndChar

StartChar: v
Encoding: 118 118 46
Width: 426
VWidth: 0
Flags: HMW
LayerCount: 2
Fore
SplineSet
54 460 m 1
 141 460 l 1
 217 138 l 1
 392 460 l 1
 483 460 l 1
 191 -36 l 1
 54 460 l 1
EndSplineSet
EndChar

StartChar: x
Encoding: 120 120 47
Width: 407
VWidth: 0
Flags: HMW
LayerCount: 2
Fore
SplineSet
362 460 m 1
 454 460 l 1
 266 233 l 1
 390 0 l 1
 304 0 l 1
 215 176 l 1
 72 0 l 1
 -20 0 l 1
 182 242 l 1
 64 460 l 1
 150 460 l 1
 233 300 l 1
 362 460 l 1
EndSplineSet
EndChar

StartChar: z
Encoding: 122 122 48
Width: 446
VWidth: 0
Flags: HMW
LayerCount: 2
Fore
SplineSet
328 385 m 1
 81 385 l 1
 94 460 l 1
 486 460 l 1
 143 75 l 1
 400 75 l 1
 386 0 l 1
 -15 0 l 1
 328 385 l 1
EndSplineSet
EndChar

StartChar: j
Encoding: 106 106 49
Width: 242
VWidth: 0
Flags: HMW
LayerCount: 2
Fore
SplineSet
144 650 m 0
 144 680 168 704 198 704 c 0
 228 704 252 680 252 650 c 0
 252 620 228 596 198 596 c 0
 168 596 144 620 144 650 c 0
-65 -114 m 1
 -56 -128 -38 -140 -22 -140 c 0
 16 -142 35 -97 41 -50 c 2
 128 460 l 1
 208 460 l 1
 120 -60 l 2
 106 -148 58 -222 -30 -220 c 0
 -67 -220 -97 -204 -118 -178 c 1
 -65 -114 l 1
EndSplineSet
EndChar

StartChar: P
Encoding: 80 80 50
Width: 531
VWidth: 0
Flags: HMW
LayerCount: 2
Fore
SplineSet
168 700 m 1
 254 700 l 1
 133 0 l 1
 51 0 l 1
 168 700 l 1
200 620 m 1
 215 700 l 1
 352 700 l 2
 479 700 569 614 550 490 c 0
 530 363 417 280 286 280 c 2
 142 280 l 1
 157 360 l 1
 294 360 l 1
 380 362 451 406 466 490 c 0
 480 572 427 620 344 620 c 2
 200 620 l 1
EndSplineSet
EndChar

StartChar: U
Encoding: 85 85 51
Width: 607
VWidth: 0
Flags: HMW
LayerCount: 2
Fore
SplineSet
165 700 m 1
 249 700 l 1
 168 230 l 2
 156 144 189 70 286 70 c 0
 394 70 449 140 464 230 c 2
 544 700 l 1
 628 700 l 1
 548 230 l 2
 526 97 437 -10 279 -10 c 0
 138 -10 64 102 84 230 c 2
 165 700 l 1
EndSplineSet
EndChar

StartChar: S
Encoding: 83 83 52
Width: 531
VWidth: 0
Flags: HMW
LayerCount: 2
Fore
SplineSet
106 212 m 1
 143 127 187 70 271 70 c 0
 361 70 416 136 416 200 c 0
 416 279 356 303 285 336 c 0
 224 364 130 412 130 519 c 0
 130 623 214 710 343 710 c 0
 456 710 522 638 552 560 c 1
 479 522 l 1
 457 574 420 630 333 630 c 0
 257 630 218 585 218 530 c 0
 218 471 264 430 351 396 c 0
 420 367 503 322 503 210 c 0
 503 88 394 -10 268 -10 c 0
 154 -10 73 73 38 166 c 1
 106 212 l 1
EndSplineSet
EndChar

StartChar: at
Encoding: 64 64 53
Width: 747
VWidth: 0
Flags: HMW
LayerCount: 2
Fore
SplineSet
286 320 m 0
 279 272 295 232 347 230 c 0
 409 227 478 286 488 370 c 0
 494 418 471 459 421 460 c 0
 358 462 296 393 286 320 c 0
210 318 m 0
 224 436 330 533 428 530 c 0
 514 528 533 442 523 370 c 0
 508 252 425 158 321 160 c 0
 241 162 200 234 210 318 c 0
60 320 m 0
 93 530 271 711 494 710 c 0
 690 709 780 548 754 390 c 0
 738 252 638 146 540 150 c 0
 474 152 460 212 472 270 c 1
 464 270 l 1
 542 520 l 1
 617 520 l 1
 536 289 l 2
 534 281 529 270 528 262 c 0
 526 240 528 219 556 216 c 0
 606 206 675 302 684 390 c 0
 706 517 644 642 488 644 c 0
 302 646 159 494 130 320 c 0
 108 174 179 58 334 56 c 0
 406 55 473 71 539 107 c 1
 565 48 l 1
 497 12 426 -10 328 -10 c 0
 125 -8 32 136 60 320 c 0
EndSplineSet
EndChar

StartChar: period
Encoding: 46 46 54
Width: 291
VWidth: 0
Flags: HMW
LayerCount: 2
Fore
SplineSet
70 40 m 0
 70 70 95 94 125 94 c 0
 155 94 180 70 180 40 c 0
 180 10 155 -14 125 -14 c 0
 95 -14 70 10 70 40 c 0
EndSplineSet
EndChar

StartChar: comma
Encoding: 44 44 55
Width: 298
VWidth: 0
Flags: HMW
LayerCount: 2
Fore
SplineSet
134 109 m 1
 210 78 l 1
 60 -169 l 1
 4 -148 l 1
 134 109 l 1
EndSplineSet
EndChar

StartChar: colon
Encoding: 58 58 56
Width: 291
VWidth: 0
Flags: HMW
LayerCount: 2
Fore
SplineSet
70 40 m 0
 70 70 95 94 125 94 c 0
 155 94 180 70 180 40 c 0
 180 10 155 -14 125 -14 c 0
 95 -14 70 10 70 40 c 0
136 420 m 0
 136 450 160 474 190 474 c 0
 220 474 244 450 244 420 c 0
 244 390 220 366 190 366 c 0
 160 366 136 390 136 420 c 0
EndSplineSet
EndChar

StartChar: semicolon
Encoding: 59 59 57
Width: 320
VWidth: 0
Flags: HMW
LayerCount: 2
Fore
SplineSet
165 420 m 0
 165 450 190 474 220 474 c 0
 250 474 274 450 274 420 c 0
 274 390 250 366 220 366 c 0
 190 366 165 390 165 420 c 0
134 109 m 1
 210 78 l 1
 60 -169 l 1
 4 -148 l 1
 134 109 l 1
EndSplineSet
EndChar

StartChar: quotedbl
Encoding: 34 34 58
Width: 451
VWidth: 0
Flags: HMW
LayerCount: 2
Fore
SplineSet
216 700 m 1
 312 700 l 1
 176 401 l 1
 122 400 l 1
 216 700 l 1
390 700 m 1
 486 700 l 1
 351 401 l 1
 296 400 l 1
 390 700 l 1
EndSplineSet
EndChar

StartChar: exclam
Encoding: 33 33 59
Width: 291
VWidth: 0
Flags: HMW
LayerCount: 2
Fore
SplineSet
188 700 m 1
 288 700 l 1
 184 200 l 1
 124 200 l 1
 188 700 l 1
70 40 m 0
 70 70 96 95 126 95 c 0
 156 95 180 70 180 40 c 0
 180 10 156 -15 126 -15 c 0
 96 -15 70 10 70 40 c 0
EndSplineSet
EndChar

StartChar: quotesingle
Encoding: 39 39 60
Width: 276
VWidth: 0
Flags: HMW
LayerCount: 2
Fore
SplineSet
216 700 m 1
 312 700 l 1
 176 401 l 1
 122 400 l 1
 216 700 l 1
EndSplineSet
EndChar

StartChar: numbersign
Encoding: 35 35 61
Width: 587
VWidth: 0
Flags: HMW
LayerCount: 2
Fore
SplineSet
120 440 m 1
 131 504 l 1
 612 504 l 1
 602 440 l 1
 468 440 l 1
 454 440 l 1
 268 440 l 1
 254 440 l 1
 120 440 l 1
41 200 m 1
 51 264 l 1
 176 265 l 1
 192 265 l 1
 386 265 l 1
 406 265 l 1
 532 264 l 1
 522 200 l 1
 41 200 l 1
532 700 m 1
 609 700 l 1
 323 0 l 1
 248 0 l 1
 340 228 l 1
 348 246 l 1
 436 462 l 1
 442 478 l 1
 532 700 l 1
328 700 m 1
 405 700 l 1
 316 482 l 1
 309 466 l 1
 219 244 l 1
 212 226 l 1
 119 0 l 1
 46 0 l 1
 328 700 l 1
EndSplineSet
EndChar

StartChar: hyphen
Encoding: 45 45 62
Width: 203
VWidth: 0
Flags: HMW
LayerCount: 2
Fore
SplineSet
12 200 m 1
 24 275 l 1
 220 275 l 1
 208 200 l 1
 12 200 l 1
EndSplineSet
EndChar

StartChar: dollar
Encoding: 36 36 63
Width: 562
VWidth: 0
Flags: HMW
LayerCount: 2
Fore
SplineSet
360 818 m 1
 432 818 l 1
 409 668 l 1
 336 668 l 1
 360 818 l 1
242 48 m 1
 314 48 l 1
 289 -112 l 1
 216 -112 l 1
 242 48 l 1
490 514 m 1
 468 571 440 627 368 628 c 0
 298 629 249 594 239 534 c 0
 227 458 302 426 372 396 c 0
 450 362 529 302 516 190 c 0
 500 74 409 -10 280 -10 c 0
 166 -10 94 76 64 184 c 1
 140 226 l 1
 166 142 204 70 292 70 c 0
 366 70 418 116 428 183 c 0
 442 269 367 308 295 338 c 0
 219 370 138 429 152 540 c 0
 166 638 266 710 374 710 c 0
 477 710 541 637 564 559 c 1
 490 514 l 1
EndSplineSet
EndChar

StartChar: bar
Encoding: 124 124 64
Width: 265
VWidth: 0
Flags: HMW
LayerCount: 2
Fore
SplineSet
200 784 m 1
 273 784 l 1
 120 -214 l 1
 46 -214 l 1
 200 784 l 1
EndSplineSet
EndChar

StartChar: zero
Encoding: 48 48 65
Width: 582
VWidth: 0
Flags: HMW
LayerCount: 2
Fore
SplineSet
154 350 m 0
 140 228 150 72 273 70 c 0
 396 68 473 214 493 350 c 0
 507 472 497 628 374 630 c 0
 251 632 174 486 154 350 c 0
70 350 m 0
 96 532 212 710 382 710 c 0
 554 710 597 518 577 350 c 0
 551 168 436 -10 266 -10 c 0
 94 -10 50 182 70 350 c 0
EndSplineSet
Substitution2: "Tabular Numbers lookup" uniFF10
EndChar

StartChar: one
Encoding: 49 49 66
Width: 436
VWidth: 0
Flags: HMW
LayerCount: 2
Fore
SplineSet
144 562 m 1
 161 651 l 1
 406 710 l 1
 284 0 l 1
 200 0 l 1
 304 606 l 1
 144 562 l 1
EndSplineSet
Substitution2: "Tabular Numbers lookup" uniFF11
EndChar

StartChar: two
Encoding: 50 50 67
Width: 552
VWidth: 0
Flags: HMW
LayerCount: 2
Fore
SplineSet
2 0 m 1
 376 353 l 2
 423 398 462 446 472 506 c 0
 482 568 440 629 363 630 c 0
 269 632 212 552 195 460 c 1
 112 460 l 1
 135 597 224 710 370 710 c 0
 502 710 573 605 558 509 c 0
 547 433 497 361 438 307 c 2
 186 80 l 1
 496 80 l 1
 483 0 l 1
 2 0 l 1
EndSplineSet
Substitution2: "Tabular Numbers lookup" uniFF12
EndChar

StartChar: four
Encoding: 52 52 68
Width: 565
VWidth: 0
Flags: HMW
LayerCount: 2
Fore
SplineSet
16 141 m 1
 486 699 l 1
 522 700 l 1
 403 0 l 1
 319 0 l 1
 350 176 l 1
 352 187 l 1
 406 506 l 1
 167 216 l 1
 388 215 l 1
 404 215 l 1
 548 215 l 1
 535 140 l 1
 16 141 l 1
EndSplineSet
Substitution2: "Tabular Numbers lookup" uniFF14
EndChar

StartChar: slash
Encoding: 47 47 69
Width: 499
VWidth: 0
Flags: HMW
LayerCount: 2
Fore
SplineSet
498 700 m 1
 580 700 l 1
 40 -150 l 1
 -38 -149 l 1
 498 700 l 1
EndSplineSet
EndChar

StartChar: backslash
Encoding: 92 92 70
Width: 499
VWidth: 0
Flags: HMW
LayerCount: 2
Fore
SplineSet
106 700 m 1
 189 700 l 1
 457 0 l 1
 378 0 l 1
 106 700 l 1
EndSplineSet
EndChar

StartChar: eight
Encoding: 56 56 71
Width: 529
VWidth: 0
Flags: HMW
LayerCount: 2
Fore
SplineSet
140 532 m 0
 156 630 250 710 356 710 c 0
 460 710 530 626 516 530 c 0
 500 425 412 356 302 356 c 0
 194 356 124 429 140 532 c 0
218 521 m 0
 209 463 245 411 305 410 c 0
 366 409 426 460 436 521 c 0
 446 579 413 633 349 634 c 0
 285 635 228 583 218 521 c 0
58 190 m 0
 76 310 186 390 302 390 c 0
 416 390 499 308 482 190 c 0
 464 80 359 -10 239 -10 c 0
 121 -10 42 84 58 190 c 0
139 200 m 0
 127 125 174 67 246 66 c 0
 319 65 393 122 405 200 c 0
 415 268 369 333 298 334 c 0
 226 335 151 272 139 200 c 0
EndSplineSet
Substitution2: "Tabular Numbers lookup" uniFF18
EndChar

StartChar: nine
Encoding: 57 57 72
Width: 558
VWidth: 0
Flags: HMW
LayerCount: 2
Fore
SplineSet
487 470 m 0
 499 555 452 632 362 632 c 0
 271 632 196 560 182 470 c 0
 170 385 216 306 306 306 c 0
 397 306 473 380 487 470 c 0
224 0 m 1
 115 0 l 1
 374 288 l 1
 380 282 l 1
 350 255 315 244 272 244 c 0
 154 246 89 355 103 470 c 0
 121 606 233 710 369 710 c 0
 503 710 583 601 566 470 c 0
 558 414 534 364 502 325 c 2
 224 0 l 1
EndSplineSet
Substitution2: "Tabular Numbers lookup" uniFF19
EndChar

StartChar: three
Encoding: 51 51 73
Width: 529
VWidth: 0
Flags: HMW
LayerCount: 2
Fore
SplineSet
282 346 m 1
 289 400 l 1
 371 406 433 450 446 521 c 0
 455 580 428 631 362 632 c 0
 296 633 247 583 231 526 c 1
 150 527 l 1
 170 631 254 710 368 710 c 0
 480 710 545 622 531 524 c 0
 513 415 406 350 282 346 c 1
258 -10 m 0
 132 -10 60 75 68 185 c 1
 152 184 l 1
 148 118 190 70 266 70 c 0
 343 70 403 123 414 195 c 0
 428 281 360 320 278 325 c 1
 286 380 l 1
 410 376 516 318 498 184 c 0
 482 68 378 -10 258 -10 c 0
EndSplineSet
Substitution2: "Tabular Numbers lookup" uniFF13
EndChar

StartChar: five
Encoding: 53 53 74
Width: 547
VWidth: 0
Flags: HMW
LayerCount: 2
Fore
SplineSet
528 230 m 0
 509 84 393 -10 255 -10 c 0
 141 -10 72 53 32 138 c 1
 109 186 l 1
 135 125 188 70 262 70 c 0
 358 70 427 140 441 230 c 0
 453 316 405 388 316 390 c 0
 248 392 195 368 130 328 c 1
 276 700 l 1
 598 700 l 1
 586 625 l 1
 332 625 l 1
 254 440 l 1
 287 455 322 466 358 466 c 0
 482 466 543 352 528 230 c 0
EndSplineSet
Substitution2: "Tabular Numbers lookup" uniFF15
EndChar

StartChar: six
Encoding: 54 54 75
Width: 558
VWidth: 0
Flags: HMW
LayerCount: 2
Fore
SplineSet
146 230 m 0
 134 145 180 68 270 68 c 0
 361 68 436 140 450 230 c 0
 462 315 416 394 326 394 c 0
 235 394 160 320 146 230 c 0
409 700 m 1
 518 700 l 1
 259 412 l 1
 252 418 l 1
 282 445 317 456 360 456 c 0
 478 454 544 345 530 230 c 0
 512 94 400 -10 264 -10 c 0
 130 -10 49 99 66 230 c 0
 74 286 98 336 130 375 c 2
 409 700 l 1
EndSplineSet
Substitution2: "Tabular Numbers lookup" uniFF16
EndChar

StartChar: seven
Encoding: 55 55 76
Width: 509
VWidth: 0
Flags: HMW
LayerCount: 2
Fore
SplineSet
106 620 m 1
 119 700 l 1
 598 700 l 1
 164 0 l 1
 74 0 l 1
 458 620 l 1
 106 620 l 1
EndSplineSet
Substitution2: "Tabular Numbers lookup" uniFF17
EndChar

StartChar: plus
Encoding: 43 43 77
Width: 596
VWidth: 0
Flags: HMW
LayerCount: 2
Fore
SplineSet
73 216 m 1
 86 295 l 1
 558 295 l 1
 545 215 l 1
 73 216 l 1
314 500 m 1
 400 500 l 1
 314 10 l 1
 232 10 l 1
 314 500 l 1
EndSplineSet
EndChar

StartChar: equal
Encoding: 61 61 78
Width: 596
VWidth: 0
Flags: HMW
LayerCount: 2
Fore
SplineSet
60 140 m 1
 72 215 l 1
 545 215 l 1
 532 140 l 1
 60 140 l 1
86 290 m 1
 98 365 l 1
 570 365 l 1
 558 290 l 1
 86 290 l 1
EndSplineSet
EndChar

StartChar: percent
Encoding: 37 37 79
Width: 728
VWidth: 0
Flags: HMW
LayerCount: 2
Fore
SplineSet
100 550 m 0
 113 636 186 710 278 710 c 0
 370 710 420 634 408 550 c 0
 395 464 322 390 230 390 c 0
 138 390 88 466 100 550 c 0
170 550 m 0
 163 504 184 458 236 456 c 0
 289 454 330 502 338 550 c 0
 345 596 325 642 273 644 c 0
 220 646 178 598 170 550 c 0
386 150 m 0
 399 236 472 310 564 310 c 0
 656 310 706 234 694 150 c 0
 681 64 608 -10 516 -10 c 0
 424 -10 374 66 386 150 c 0
456 150 m 0
 449 104 470 58 522 56 c 0
 575 54 616 102 624 150 c 0
 631 196 610 242 558 244 c 0
 505 246 464 198 456 150 c 0
636 700 m 1
 714 700 l 1
 157 0 l 1
 82 0 l 1
 636 700 l 1
EndSplineSet
EndChar

StartChar: ampersand
Encoding: 38 38 80
Width: 655
VWidth: 0
Flags: HMW
LayerCount: 2
Fore
SplineSet
260 384 m 2
 228 430 173 484 181 556 c 0
 193 647 275 710 370 710 c 0
 466 710 524 638 512 554 c 0
 500 476 426 418 342 370 c 0
 264 326 150 288 134 188 c 0
 123 115 177 66 252 64 c 0
 393 60 516 201 614 315 c 1
 671 276 l 1
 557 146 425 -12 242 -10 c 0
 131 -9 34 69 49 183 c 0
 67 320 204 371 291 417 c 0
 357 453 422 498 432 554 c 0
 438 600 414 639 363 640 c 0
 311 641 271 604 264 556 c 0
 256 509 294 468 324 425 c 2
 618 0 l 1
 528 0 l 1
 260 384 l 2
EndSplineSet
EndChar

StartChar: question
Encoding: 63 63 81
Width: 540
VWidth: 0
Flags: HMW
LayerCount: 2
Fore
SplineSet
462 500 m 0
 476 578 429 634 345 634 c 0
 279 634 228 598 190 552 c 1
 132 594 l 1
 188 660 254 711 362 710 c 0
 482 709 559 613 542 500 c 0
 523 384 416 304 302 290 c 1
 272 170 l 1
 214 170 l 1
 222 345 l 1
 247 345 l 1
 355 347 444 415 462 500 c 0
168 40 m 0
 168 70 192 94 222 94 c 0
 253 94 277 68 277 40 c 0
 277 10 252 -14 222 -14 c 0
 191 -14 168 11 168 40 c 0
EndSplineSet
EndChar

StartChar: parenleft
Encoding: 40 40 82
Width: 300
VWidth: 0
Flags: HMW
LayerCount: 2
Fore
SplineSet
300 779 m 1
 375 779 l 1
 287 629 231 462 203 290 c 0
 179 126 179 -42 224 -200 c 1
 152 -200 l 1
 98 -42 90 126 114 290 c 0
 141 464 202 632 300 779 c 1
EndSplineSet
EndChar

StartChar: parenright
Encoding: 41 41 83
Width: 300
VWidth: 0
Flags: HMW
LayerCount: 2
Fore
SplineSet
56 -199 m 1
 -19 -199 l 1
 69 -49 125 118 153 290 c 0
 177 454 176 622 131 780 c 1
 204 780 l 1
 258 622 266 454 242 290 c 0
 215 116 154 -52 56 -199 c 1
EndSplineSet
EndChar

StartChar: asterisk
Encoding: 42 42 84
Width: 574
VWidth: 0
Flags: HMW
LayerCount: 2
Fore
SplineSet
532 598 m 1
 542 532 l 1
 350 482 l 1
 342 530 l 1
 532 598 l 1
462 366 m 1
 400 327 l 1
 324 491 l 1
 366 520 l 1
 462 366 l 1
234 328 m 1
 183 370 l 1
 328 519 l 1
 364 488 l 1
 234 328 l 1
160 533 m 1
 191 598 l 1
 359 528 l 1
 336 482 l 1
 160 533 l 1
346 700 m 1
 414 700 l 1
 371 506 l 1
 322 506 l 1
 346 700 l 1
EndSplineSet
EndChar

StartChar: less
Encoding: 60 60 85
Width: 621
VWidth: 0
Flags: HMW
LayerCount: 2
Fore
SplineSet
209 258 m 1
 548 91 l 1
 534 16 l 1
 76 236 l 1
 83 280 l 1
 618 501 l 1
 604 418 l 1
 209 258 l 1
EndSplineSet
EndChar

StartChar: greater
Encoding: 62 62 86
Width: 621
VWidth: 0
Flags: HMW
LayerCount: 2
Fore
SplineSet
446 256 m 1
 107 424 l 1
 120 499 l 1
 579 280 l 1
 572 235 l 1
 36 14 l 1
 50 98 l 1
 446 256 l 1
EndSplineSet
EndChar

StartChar: bracketleft
Encoding: 91 91 87
Width: 291
VWidth: 0
Flags: HMW
LayerCount: 2
Fore
SplineSet
267 705 m 1
 135 -145 l 1
 234 -145 l 1
 222 -220 l 1
 45 -220 l 1
 200 780 l 1
 376 780 l 1
 364 706 l 1
 267 705 l 1
EndSplineSet
EndChar

StartChar: bracketright
Encoding: 93 93 88
Width: 291
VWidth: 0
Flags: HMW
LayerCount: 2
Fore
SplineSet
76 -145 m 1
 208 705 l 1
 110 705 l 1
 122 780 l 1
 298 780 l 1
 144 -220 l 1
 -33 -220 l 1
 -22 -146 l 1
 76 -145 l 1
EndSplineSet
EndChar

StartChar: asciicircum
Encoding: 94 94 89
Width: 494
VWidth: 0
Flags: HMW
LayerCount: 2
Fore
SplineSet
329 620 m 1
 194 460 l 1
 112 460 l 1
 320 710 l 1
 360 710 l 1
 483 460 l 1
 407 460 l 1
 329 620 l 1
EndSplineSet
EndChar

StartChar: underscore
Encoding: 95 95 90
Width: 485
VWidth: 0
Flags: HMW
LayerCount: 2
Fore
SplineSet
-50 -132 m 1
 -42 -78 l 1
 445 -78 l 1
 436 -132 l 1
 -50 -132 l 1
EndSplineSet
EndChar

StartChar: grave
Encoding: 96 96 91
Width: 363
VWidth: 0
Flags: HMW
LayerCount: 2
Fore
SplineSet
156 661 m 1
 234 700 l 1
 358 539 l 1
 311 510 l 1
 156 661 l 1
EndSplineSet
EndChar

StartChar: braceleft
Encoding: 123 123 92
Width: 301
VWidth: 0
Flags: HMW
LayerCount: 2
Fore
SplineSet
258 660 m 2
 232 490 l 2
 217 397 197 292 89 280 c 1
 92 300 l 1
 197 284 182 174 170 90 c 2
 143 -80 l 2
 139 -107 152 -130 182 -130 c 2
 217 -130 l 1
 206 -200 l 1
 149 -200 l 2
 91 -200 60 -136 68 -60 c 2
 101 150 l 2
 107 210 101 238 70 260 c 1
 80 320 l 1
 116 338 135 368 143 430 c 2
 175 640 l 2
 186 721 238 780 296 780 c 2
 356 780 l 1
 346 710 l 1
 313 710 l 2
 281 710 263 689 258 660 c 2
EndSplineSet
EndChar

StartChar: braceright
Encoding: 125 125 93
Width: 301
VWidth: 0
Flags: HMW
LayerCount: 2
Fore
SplineSet
108 -80 m 2
 134 90 l 2
 149 183 169 288 277 300 c 1
 274 280 l 1
 169 296 184 406 196 490 c 2
 222 660 l 2
 226 687 214 710 184 710 c 2
 149 710 l 1
 159 780 l 1
 216 780 l 2
 274 780 305 716 297 640 c 2
 264 430 l 2
 258 370 264 342 295 320 c 1
 286 260 l 1
 250 242 230 212 222 150 c 2
 190 -60 l 2
 179 -141 128 -200 70 -200 c 2
 9 -200 l 1
 20 -130 l 1
 52 -130 l 2
 84 -130 103 -109 108 -80 c 2
EndSplineSet
EndChar

StartChar: asciitilde
Encoding: 126 126 94
Width: 558
VWidth: 0
Flags: HMW
LayerCount: 2
Fore
SplineSet
148 176 m 1
 76 181 l 1
 76 189 75 198 76 206 c 0
 80 229 92 253 110 275 c 0
 138 307 177 326 219 326 c 0
 259 326 296 307 332 279 c 0
 354 261 376 248 396 248 c 0
 424 248 441 269 446 296 c 0
 448 304 448 313 446 323 c 1
 523 318 l 1
 523 310 525 300 523 290 c 0
 519 268 510 240 492 219 c 0
 466 189 430 172 394 172 c 0
 358 172 326 192 290 220 c 0
 265 240 238 252 212 252 c 0
 178 252 154 230 148 198 c 0
 146 191 147 184 148 176 c 1
EndSplineSet
EndChar

StartChar: exclamdown
Encoding: 161 161 95
Width: 291
VWidth: 0
Flags: HMW
LayerCount: 2
Fore
SplineSet
126 -245 m 1
 26 -245 l 1
 132 254 l 1
 192 254 l 1
 126 -245 l 1
243 414 m 0
 240 387 209 358 181 360 c 0
 153 362 133 388 136 416 c 0
 139 443 170 472 198 470 c 0
 226 468 246 442 243 414 c 0
EndSplineSet
EndChar

StartChar: cent
Encoding: 162 162 96
Width: 562
VWidth: 0
Flags: HMW
LayerCount: 2
Fore
SplineSet
250 38 m 1
 314 38 l 1
 288 -112 l 1
 225 -112 l 1
 250 38 l 1
170 230 m 0
 156 145 201 68 291 66 c 0
 363 65 427 104 463 148 c 1
 448 48 l 1
 407 12 346 -10 284 -10 c 0
 150 -10 72 102 90 230 c 0
 110 363 224 470 360 470 c 0
 419 470 474 448 508 410 c 1
 492 311 l 1
 472 361 419 394 353 394 c 0
 261 394 186 320 170 230 c 0
343 578 m 1
 406 578 l 1
 380 428 l 1
 317 428 l 1
 343 578 l 1
EndSplineSet
EndChar

StartChar: sterling
Encoding: 163 163 97
Width: 562
VWidth: 0
Flags: HMW
LayerCount: 2
Fore
SplineSet
100 370 m 1
 452 370 l 1
 438 295 l 1
 87 295 l 1
 100 370 l 1
492 480 m 1
 496 547 478 624 394 626 c 0
 331 628 271 588 259 520 c 0
 242 420 321 363 308 264 c 0
 293 160 214 79 128 51 c 1
 135 80 l 1
 490 80 l 1
 475 0 l 1
 35 0 l 1
 125 88 208 150 226 249 c 0
 241 341 159 404 173 518 c 0
 189 630 286 711 402 710 c 0
 526 709 571 596 566 508 c 1
 492 480 l 1
EndSplineSet
EndChar

StartChar: currency
Encoding: 164 164 98
Width: 562
VWidth: 0
Flags: HMW
LayerCount: 2
Fore
SplineSet
94 504 m 1
 150 552 l 1
 226 458 l 1
 172 410 l 1
 94 504 l 1
66 48 m 1
 24 99 l 1
 131 190 l 1
 172 139 l 1
 66 48 l 1
480 410 m 1
 438 461 l 1
 544 552 l 1
 586 501 l 1
 480 410 l 1
384 142 m 1
 440 190 l 1
 516 96 l 1
 461 48 l 1
 384 142 l 1
74 300 m 0
 94 432 208 540 344 540 c 0
 478 540 556 428 538 300 c 0
 518 168 404 60 268 60 c 0
 134 60 56 172 74 300 c 0
154 300 m 0
 140 216 184 136 274 136 c 0
 366 136 443 210 458 300 c 0
 472 384 426 464 336 464 c 0
 244 464 169 390 154 300 c 0
EndSplineSet
EndChar

StartChar: yen
Encoding: 165 165 99
Width: 562
VWidth: 0
Flags: HMW
LayerCount: 2
Fore
SplineSet
66 290 m 1
 79 365 l 1
 551 365 l 1
 538 290 l 1
 66 290 l 1
41 140 m 1
 53 215 l 1
 526 215 l 1
 513 140 l 1
 41 140 l 1
548 700 m 1
 644 700 l 1
 350 304 l 1
 298 0 l 1
 212 0 l 1
 266 306 l 1
 108 700 l 1
 198 700 l 1
 317 378 l 1
 548 700 l 1
EndSplineSet
EndChar

StartChar: brokenbar
Encoding: 166 166 100
Width: 265
VWidth: 0
Flags: HMW
LayerCount: 2
Fore
SplineSet
188 694 m 1
 261 694 l 1
 220 456 l 1
 147 456 l 1
 188 694 l 1
184 244 m 1
 143 6 l 1
 70 6 l 1
 111 244 l 1
 184 244 l 1
EndSplineSet
EndChar

StartChar: section
Encoding: 167 167 101
Width: 395
VWidth: 0
Flags: HMW
LayerCount: 2
Fore
SplineSet
374 580 m 1
 356 615 324 634 286 634 c 0
 252 634 214 619 208 588 c 0
 200 548 261 524 301 506 c 0
 359 478 413 436 404 370 c 0
 391 274 310 244 218 241 c 1
 223 275 l 1
 270 282 315 319 322 363 c 0
 329 413 283 434 238 454 c 0
 180 481 120 518 130 590 c 0
 141 664 220 710 293 710 c 0
 362 710 423 675 442 619 c 1
 374 580 l 1
92 160 m 1
 100 107 133 66 190 66 c 0
 234 66 273 85 280 124 c 0
 289 174 240 195 196 215 c 0
 137 243 80 288 90 360 c 0
 104 443 178 476 276 479 c 1
 272 454 l 1
 220 436 179 413 170 369 c 0
 160 308 214 288 260 266 c 0
 318 238 370 196 362 130 c 0
 350 37 270 -11 178 -10 c 0
 94 -9 31 48 22 124 c 1
 92 160 l 1
EndSplineSet
EndChar

StartChar: dieresis
Encoding: 168 168 102
Width: 456
VWidth: 0
Flags: HMW
LayerCount: 2
Fore
SplineSet
356 661 m 0
 358 688 389 716 417 714 c 0
 445 712 466 687 464 659 c 0
 462 632 430 604 402 606 c 0
 374 608 354 633 356 661 c 0
162 661 m 0
 164 688 195 716 223 714 c 0
 251 712 272 687 270 659 c 0
 268 632 236 604 208 606 c 0
 180 608 160 633 162 661 c 0
EndSplineSet
EndChar

StartChar: copyright
Encoding: 169 169 103
Width: 776
VWidth: 0
Flags: HMW
LayerCount: 2
Fore
SplineSet
269 350 m 0
 257 264 302 187 392 186 c 0
 450 185 499 212 535 246 c 1
 526 180 l 1
 487 152 446 134 390 134 c 0
 274 134 201 236 216 350 c 0
 232 468 333 565 451 566 c 0
 505 566 543 550 578 520 c 1
 568 453 l 1
 540 491 502 514 448 514 c 0
 358 514 283 441 269 350 c 0
130 350 m 0
 106 188 202 40 374 40 c 0
 548 40 694 180 720 350 c 0
 744 512 648 660 476 660 c 0
 302 660 156 520 130 350 c 0
74 350 m 0
 102 550 274 710 478 710 c 0
 679 710 801 542 775 350 c 0
 747 150 576 -10 372 -10 c 0
 171 -10 48 158 74 350 c 0
EndSplineSet
EndChar

StartChar: registered
Encoding: 174 174 104
Width: 776
VWidth: 0
Flags: HMW
LayerCount: 2
Fore
SplineSet
376 358 m 1
 430 358 l 1
 546 150 l 1
 486 150 l 1
 376 358 l 1
336 570 m 1
 386 570 l 1
 322 150 l 1
 272 150 l 1
 336 570 l 1
356 525 m 1
 363 570 l 1
 446 570 l 1
 522 568 578 519 568 444 c 0
 558 368 488 320 410 318 c 1
 324 318 l 1
 331 362 l 1
 414 363 l 1
 465 365 509 394 517 444 c 0
 524 493 491 522 442 524 c 1
 356 525 l 1
130 350 m 0
 106 188 202 40 374 40 c 0
 548 40 694 180 720 350 c 0
 744 512 648 660 476 660 c 0
 302 660 156 520 130 350 c 0
74 350 m 0
 102 550 274 710 478 710 c 0
 679 710 801 542 775 350 c 0
 747 150 576 -10 372 -10 c 0
 171 -10 48 158 74 350 c 0
EndSplineSet
EndChar

StartChar: ordfeminine
Encoding: 170 170 105
Width: 230
VWidth: 0
Flags: HMW
LayerCount: 2
Fore
SplineSet
122 532 m 0
 120 510 134 493 162 492 c 0
 199 490 229 515 240 550 c 1
 244 524 l 1
 232 484 197 455 149 456 c 0
 107 457 76 489 82 533 c 0
 90 580 142 612 190 612 c 0
 226 612 248 595 262 582 c 1
 258 559 l 1
 238 573 216 583 190 583 c 0
 158 583 126 560 122 532 c 0
143 646 m 1
 129 678 l 1
 151 690 182 705 218 705 c 0
 265 705 297 678 293 634 c 1
 264 460 l 1
 224 460 l 1
 254 635 l 1
 251 656 239 667 215 669 c 0
 186 671 159 655 143 646 c 1
EndSplineSet
EndChar

StartChar: ordmasculine
Encoding: 186 186 106
Width: 269
VWidth: 0
Flags: HMW
LayerCount: 2
Fore
SplineSet
90 580 m 0
 100 646 158 700 225 700 c 0
 292 700 332 644 323 580 c 0
 313 514 255 460 188 460 c 0
 121 460 81 516 90 580 c 0
130 580 m 0
 124 538 146 498 190 498 c 0
 235 498 276 536 284 580 c 0
 290 622 267 662 223 662 c 0
 178 662 138 624 130 580 c 0
EndSplineSet
EndChar

StartChar: guillemotleft
Encoding: 171 171 107
Width: 494
VWidth: 0
Flags: HMW
LayerCount: 2
Fore
SplineSet
298 258 m 1
 412 64 l 1
 356 20 l 1
 210 258 l 1
 434 490 l 1
 476 444 l 1
 298 258 l 1
143 258 m 1
 256 64 l 1
 201 20 l 1
 55 258 l 1
 278 490 l 1
 322 444 l 1
 143 258 l 1
EndSplineSet
EndChar

StartChar: guillemotright
Encoding: 187 187 108
Width: 494
VWidth: 0
Flags: HMW
LayerCount: 2
Fore
SplineSet
229 252 m 1
 116 446 l 1
 171 490 l 1
 318 252 l 1
 94 20 l 1
 51 66 l 1
 229 252 l 1
384 252 m 1
 272 446 l 1
 326 490 l 1
 472 252 l 1
 250 20 l 1
 206 66 l 1
 384 252 l 1
EndSplineSet
EndChar

StartChar: uni00AD
Encoding: 173 173 109
Width: 203
VWidth: 0
Flags: HMW
LayerCount: 2
Fore
SplineSet
12 200 m 1
 24 275 l 1
 220 275 l 1
 208 200 l 1
 12 200 l 1
EndSplineSet
EndChar

StartChar: logicalnot
Encoding: 172 172 110
Width: 601
VWidth: 0
Flags: HMW
LayerCount: 2
Fore
SplineSet
86 300 m 1
 100 375 l 1
 577 375 l 1
 542 176 l 1
 468 176 l 1
 490 300 l 1
 86 300 l 1
EndSplineSet
EndChar

StartChar: macron
Encoding: 175 175 111
Width: 494
VWidth: 0
Flags: HMW
LayerCount: 2
Fore
SplineSet
153 600 m 1
 164 675 l 1
 506 675 l 1
 494 600 l 1
 153 600 l 1
EndSplineSet
EndChar

StartChar: degree
Encoding: 176 176 112
Width: 269
VWidth: 0
Flags: HMW
LayerCount: 2
Fore
SplineSet
94 600 m 0
 104 666 161 720 228 720 c 0
 295 720 335 664 326 600 c 0
 316 534 259 480 192 480 c 0
 125 480 85 536 94 600 c 0
134 600 m 0
 128 558 150 518 194 518 c 0
 239 518 279 556 287 600 c 0
 293 642 270 682 226 682 c 0
 181 682 142 644 134 600 c 0
EndSplineSet
EndChar

StartChar: plusminus
Encoding: 177 177 113
Width: 596
VWidth: 0
Flags: HMW
LayerCount: 2
Fore
SplineSet
46 0 m 1
 58 80 l 1
 530 80 l 1
 518 0 l 1
 46 0 l 1
100 345 m 1
 112 425 l 1
 584 425 l 1
 571 345 l 1
 100 345 l 1
334 620 m 1
 420 620 l 1
 346 150 l 1
 264 150 l 1
 334 620 l 1
EndSplineSet
EndChar

StartChar: uni00B2
Encoding: 178 178 114
Width: 335
VWidth: 0
Flags: HMW
LayerCount: 2
Fore
SplineSet
45 283 m 1
 272 494 l 2
 300 520 326 550 332 586 c 0
 338 622 320 658 274 660 c 0
 217 663 178 613 166 559 c 1
 115 559 l 1
 132 640 189 709 277 708 c 0
 359 708 392 642 382 582 c 0
 374 537 345 498 310 466 c 2
 158 330 l 1
 341 330 l 1
 333 282 l 1
 45 283 l 1
EndSplineSet
EndChar

StartChar: uni00B3
Encoding: 179 179 115
Width: 302
VWidth: 0
Flags: HMW
LayerCount: 2
Fore
SplineSet
192 488 m 1
 198 520 l 1
 247 525 286 549 294 593 c 0
 300 628 283 658 245 660 c 0
 205 662 175 629 165 597 c 1
 116 598 l 1
 131 658 179 707 248 706 c 0
 315 705 354 652 344 594 c 0
 332 528 266 492 192 488 c 1
176 274 m 0
 98 274 59 325 63 391 c 1
 114 391 l 1
 114 353 134 323 180 322 c 0
 226 321 265 355 271 398 c 0
 279 450 238 471 190 475 c 1
 196 508 l 1
 270 504 334 471 322 390 c 0
 312 322 248 274 176 274 c 0
EndSplineSet
EndChar

StartChar: acute
Encoding: 180 180 116
Width: 363
VWidth: 0
Flags: HMW
LayerCount: 2
Fore
SplineSet
376 658 m 1
 180 511 l 1
 138 542 l 1
 307 700 l 1
 376 658 l 1
EndSplineSet
EndChar

StartChar: mu
Encoding: 181 181 117
Width: 509
VWidth: 0
Flags: HMW
LayerCount: 2
Fore
SplineSet
204 460 m 1
 151 169 l 2
 144 110 165 66 226 66 c 0
 295 67 350 113 360 176 c 2
 410 460 l 1
 490 460 l 1
 410 0 l 1
 330 0 l 1
 340 60 l 1
 305 18 257 -10 200 -10 c 0
 170 -10 145 -3 126 10 c 1
 68 -320 l 1
 -8 -320 l 1
 123 460 l 1
 204 460 l 1
EndSplineSet
EndChar

StartChar: paragraph
Encoding: 182 182 118
Width: 560
VWidth: 0
Flags: HMW
LayerCount: 2
Fore
SplineSet
298 271 m 1
 177 278 94 357 113 486 c 0
 134 620 243 700 371 700 c 2
 596 700 l 1
 439 -220 l 1
 370 -220 l 1
 516 636 l 1
 429 636 l 1
 284 -220 l 1
 214 -220 l 1
 298 271 l 1
EndSplineSet
EndChar

StartChar: periodcentered
Encoding: 183 183 119
Width: 291
VWidth: 0
Flags: HMW
LayerCount: 2
Fore
SplineSet
106 241 m 0
 109 268 140 296 168 294 c 0
 196 292 217 267 214 239 c 0
 211 212 179 184 151 186 c 0
 123 188 103 213 106 241 c 0
EndSplineSet
EndChar

StartChar: uni00B9
Encoding: 185 185 120
Width: 456
VWidth: 0
Flags: HMW
LayerCount: 2
Fore
SplineSet
225 612 m 1
 233 664 l 1
 382 700 l 1
 308 274 l 1
 257 274 l 1
 318 638 l 1
 225 612 l 1
EndSplineSet
EndChar

StartChar: cedilla
Encoding: 184 184 121
Width: 339
VWidth: 0
Flags: HMW
LayerCount: 2
Fore
SplineSet
172 59 m 1
 233 59 l 1
 151 -52 l 1
 153 -52 156 -52 158 -52 c 0
 194 -56 223 -83 219 -127 c 0
 213 -184 154 -220 100 -220 c 0
 64 -220 43 -206 18 -180 c 1
 56 -142 l 1
 72 -156 84 -166 106 -166 c 0
 134 -166 160 -149 163 -126 c 0
 166 -104 148 -90 122 -90 c 0
 106 -89 82 -97 62 -107 c 1
 172 59 l 1
EndSplineSet
EndChar

StartChar: questiondown
Encoding: 191 191 122
Width: 540
VWidth: 0
Flags: HMW
LayerCount: 2
Fore
SplineSet
144 200 m 0
 130 122 176 66 260 66 c 0
 326 66 378 102 416 148 c 1
 474 106 l 1
 418 40 352 -11 244 -10 c 0
 124 -9 47 87 64 200 c 0
 83 316 190 396 304 410 c 1
 333 530 l 1
 392 530 l 1
 384 355 l 1
 359 355 l 1
 251 353 162 285 144 200 c 0
438 659 m 0
 435 632 403 604 375 606 c 0
 347 608 327 633 330 661 c 0
 333 688 364 716 392 714 c 0
 420 712 441 687 438 659 c 0
EndSplineSet
EndChar

StartChar: multiply
Encoding: 215 215 123
Width: 578
VWidth: 0
Flags: HMW
LayerCount: 2
Fore
SplineSet
96 22 m 1
 49 81 l 1
 256 257 l 1
 110 434 l 1
 172 488 l 1
 312 307 l 1
 516 488 l 1
 562 429 l 1
 354 253 l 1
 502 76 l 1
 440 22 l 1
 299 203 l 1
 96 22 l 1
EndSplineSet
EndChar

StartChar: Oslash
Encoding: 216 216 124
Width: 766
VWidth: 0
Flags: HMW
LayerCount: 2
Fore
SplineSet
160 350 m 0
 138 209 213 77 366 76 c 0
 521 75 647 201 672 350 c 0
 694 491 619 623 466 624 c 0
 311 625 185 499 160 350 c 0
70 350 m 0
 100 546 270 710 474 710 c 0
 676 710 790 538 762 350 c 0
 732 154 562 -10 358 -10 c 0
 156 -10 42 162 70 350 c 0
766 750 m 1
 820 708 l 1
 62 -50 l 1
 9 -8 l 1
 766 750 l 1
EndSplineSet
EndChar

StartChar: Thorn
Encoding: 222 222 125
Width: 533
VWidth: 0
Flags: HMW
LayerCount: 2
Fore
SplineSet
168 700 m 1
 254 700 l 1
 133 0 l 1
 51 0 l 1
 168 700 l 1
176 480 m 1
 191 560 l 1
 328 560 l 1
 455 558 545 474 526 350 c 0
 506 223 393 142 262 140 c 1
 118 140 l 1
 133 220 l 1
 270 220 l 1
 356 222 428 266 443 350 c 0
 457 432 403 478 320 480 c 1
 176 480 l 1
EndSplineSet
EndChar

StartChar: divide
Encoding: 247 247 126
Width: 604
VWidth: 0
Flags: HMW
LayerCount: 2
Fore
SplineSet
296 451 m 0
 299 478 330 506 358 504 c 0
 386 502 407 477 404 449 c 0
 401 422 370 394 342 396 c 0
 314 398 293 423 296 451 c 0
232 71 m 0
 235 98 266 126 294 124 c 0
 322 122 343 97 340 69 c 0
 337 42 306 14 278 16 c 0
 250 18 229 43 232 71 c 0
70 226 m 1
 83 305 l 1
 570 305 l 1
 556 225 l 1
 70 226 l 1
EndSplineSet
EndChar

StartChar: oslash
Encoding: 248 248 127
Width: 529
VWidth: 0
Flags: HMW
LayerCount: 2
Fore
SplineSet
45 230 m 0
 65 362 179 470 315 470 c 0
 449 470 527 358 509 230 c 0
 489 98 375 -10 239 -10 c 0
 105 -10 27 102 45 230 c 0
125 230 m 0
 111 146 156 66 246 66 c 0
 338 66 414 140 429 230 c 0
 443 314 398 394 308 394 c 0
 216 394 140 320 125 230 c 0
484 499 m 1
 526 478 l 1
 60 -43 l 1
 16 -22 l 1
 484 499 l 1
EndSplineSet
EndChar

StartChar: circumflex
Encoding: 710 710 128
Width: 465
VWidth: 0
Flags: HMW
LayerCount: 2
Fore
SplineSet
318 644 m 1
 194 550 l 1
 150 592 l 1
 328 730 l 1
 462 589 l 1
 409 550 l 1
 318 644 l 1
EndSplineSet
EndChar

StartChar: ogonek
Encoding: 731 731 129
Width: 252
VWidth: 0
Flags: HMW
LayerCount: 2
Fore
SplineSet
150 -130 m 1
 176 -181 l 1
 154 -201 125 -220 86 -220 c 0
 14 -221 -29 -180 -21 -120 c 0
 -11 -54 62 -9 128 24 c 1
 167 0 l 1
 121 -22 66 -56 60 -100 c 0
 58 -129 70 -148 98 -150 c 0
 120 -152 136 -140 150 -130 c 1
EndSplineSet
EndChar

StartChar: tilde
Encoding: 732 732 130
Width: 514
VWidth: 0
Flags: HMW
LayerCount: 2
Fore
SplineSet
175 626 m 1
 194 669 239 708 287 706 c 0
 339 705 353 658 400 660 c 0
 423 661 443 684 463 708 c 1
 504 664 l 1
 482 630 440 590 391 592 c 0
 345 594 322 639 280 638 c 0
 244 637 232 606 224 588 c 1
 175 626 l 1
EndSplineSet
EndChar

StartChar: ring
Encoding: 730 730 131
Width: 269
VWidth: 0
Flags: HMW
LayerCount: 2
Fore
SplineSet
142 786 m 0
 150 841 204 884 257 884 c 0
 310 884 350 838 342 784 c 0
 334 729 279 686 226 686 c 0
 173 686 134 732 142 786 c 0
192 784 m 0
 189 758 207 734 231 732 c 0
 255 730 289 758 292 786 c 0
 295 812 276 836 252 838 c 0
 228 840 195 812 192 784 c 0
EndSplineSet
EndChar

StartChar: dotaccent
Encoding: 729 729 132
Width: 291
VWidth: 0
Flags: HMW
LayerCount: 2
Fore
SplineSet
200 791 m 0
 200 821 224 846 254 846 c 0
 284 846 310 821 310 791 c 0
 310 761 284 736 254 736 c 0
 224 736 200 761 200 791 c 0
EndSplineSet
EndChar

StartChar: uni2010
Encoding: 8208 8208 133
Width: 203
VWidth: 0
Flags: HMW
LayerCount: 2
Fore
SplineSet
12 200 m 1
 24 275 l 1
 220 275 l 1
 208 200 l 1
 12 200 l 1
EndSplineSet
EndChar

StartChar: endash
Encoding: 8211 8211 134
Width: 718
VWidth: 0
Flags: HMW
LayerCount: 2
Fore
SplineSet
76 200 m 1
 88 275 l 1
 672 275 l 1
 659 200 l 1
 76 200 l 1
EndSplineSet
EndChar

StartChar: figuredash
Encoding: 8210 8210 135
Width: 572
VWidth: 0
Flags: HMW
LayerCount: 2
Fore
SplineSet
76 200 m 1
 88 275 l 1
 526 275 l 1
 514 200 l 1
 76 200 l 1
EndSplineSet
EndChar

StartChar: emdash
Encoding: 8212 8212 136
Width: 863
VWidth: 0
Flags: HMW
LayerCount: 2
Fore
SplineSet
76 200 m 1
 88 275 l 1
 817 275 l 1
 804 200 l 1
 76 200 l 1
EndSplineSet
EndChar

StartChar: minus
Encoding: 8722 8722 137
Width: 572
VWidth: 0
Flags: HMW
LayerCount: 2
Fore
SplineSet
76 200 m 1
 88 275 l 1
 526 275 l 1
 514 200 l 1
 76 200 l 1
EndSplineSet
EndChar

StartChar: quoteright
Encoding: 8217 8217 138
Width: 266
VWidth: 0
Flags: HMW
LayerCount: 2
Fore
SplineSet
198 700 m 1
 294 700 l 1
 156 471 l 1
 101 471 l 1
 198 700 l 1
EndSplineSet
EndChar

StartChar: quoteleft
Encoding: 8216 8216 139
Width: 266
VWidth: 0
Flags: HMW
LayerCount: 2
Fore
SplineSet
215 470 m 1
 118 470 l 1
 256 699 l 1
 312 699 l 1
 215 470 l 1
EndSplineSet
EndChar

StartChar: quotesinglbase
Encoding: 8218 8218 140
Width: 266
VWidth: 0
Flags: HMW
LayerCount: 2
Fore
SplineSet
102 80 m 1
 198 80 l 1
 60 -149 l 1
 5 -149 l 1
 102 80 l 1
EndSplineSet
EndChar

StartChar: quotedblleft
Encoding: 8220 8220 141
Width: 460
VWidth: 0
Flags: HMW
LayerCount: 2
Fore
SplineSet
215 470 m 1
 118 470 l 1
 256 699 l 1
 312 699 l 1
 215 470 l 1
409 470 m 1
 312 470 l 1
 450 699 l 1
 506 699 l 1
 409 470 l 1
EndSplineSet
EndChar

StartChar: quotedblright
Encoding: 8221 8221 142
Width: 460
VWidth: 0
Flags: HMW
LayerCount: 2
Fore
SplineSet
198 700 m 1
 294 700 l 1
 156 471 l 1
 101 471 l 1
 198 700 l 1
392 700 m 1
 488 700 l 1
 350 471 l 1
 295 471 l 1
 392 700 l 1
EndSplineSet
EndChar

StartChar: perthousand
Encoding: 8240 8240 143
Width: 1097
VWidth: 0
Flags: HMW
LayerCount: 2
Fore
SplineSet
754 150 m 0
 767 236 842 310 934 310 c 0
 1026 310 1075 234 1063 150 c 0
 1050 64 976 -10 884 -10 c 0
 792 -10 742 66 754 150 c 0
824 150 m 0
 817 104 838 58 890 56 c 0
 943 54 985 102 993 150 c 0
 1000 196 980 242 928 244 c 0
 875 246 832 198 824 150 c 0
100 550 m 0
 113 636 186 710 278 710 c 0
 370 710 420 634 408 550 c 0
 395 464 322 390 230 390 c 0
 138 390 88 466 100 550 c 0
170 550 m 0
 163 504 184 458 236 456 c 0
 289 454 330 502 338 550 c 0
 345 596 325 642 273 644 c 0
 220 646 178 598 170 550 c 0
386 150 m 0
 399 236 472 310 564 310 c 0
 656 310 706 234 694 150 c 0
 681 64 608 -10 516 -10 c 0
 424 -10 374 66 386 150 c 0
456 150 m 0
 449 104 470 58 522 56 c 0
 575 54 616 102 624 150 c 0
 631 196 610 242 558 244 c 0
 505 246 464 198 456 150 c 0
636 700 m 1
 714 700 l 1
 157 0 l 1
 82 0 l 1
 636 700 l 1
EndSplineSet
EndChar

StartChar: guilsinglleft
Encoding: 8249 8249 144
Width: 339
VWidth: 0
Flags: HMW
LayerCount: 2
Fore
SplineSet
143 258 m 1
 256 64 l 1
 201 20 l 1
 55 258 l 1
 278 490 l 1
 322 444 l 1
 143 258 l 1
EndSplineSet
EndChar

StartChar: guilsinglright
Encoding: 8250 8250 145
Width: 339
VWidth: 0
Flags: HMW
LayerCount: 2
Fore
SplineSet
229 252 m 1
 116 446 l 1
 171 490 l 1
 318 252 l 1
 94 20 l 1
 51 66 l 1
 229 252 l 1
EndSplineSet
EndChar

StartChar: uni2031
Encoding: 8241 8241 146
Width: 1466
VWidth: 0
Flags: HMW
LayerCount: 2
Fore
SplineSet
1124 150 m 0
 1137 236 1210 310 1302 310 c 0
 1394 310 1444 234 1432 150 c 0
 1419 64 1345 -10 1253 -10 c 0
 1161 -10 1112 66 1124 150 c 0
1193 150 m 0
 1186 104 1207 58 1259 56 c 0
 1312 54 1354 102 1362 150 c 0
 1369 196 1348 242 1296 244 c 0
 1243 246 1201 198 1193 150 c 0
754 150 m 0
 767 236 842 310 934 310 c 0
 1026 310 1075 234 1063 150 c 0
 1050 64 976 -10 884 -10 c 0
 792 -10 742 66 754 150 c 0
824 150 m 0
 817 104 838 58 890 56 c 0
 943 54 985 102 993 150 c 0
 1000 196 980 242 928 244 c 0
 875 246 832 198 824 150 c 0
100 550 m 0
 113 636 186 710 278 710 c 0
 370 710 420 634 408 550 c 0
 395 464 322 390 230 390 c 0
 138 390 88 466 100 550 c 0
170 550 m 0
 163 504 184 458 236 456 c 0
 289 454 330 502 338 550 c 0
 345 596 325 642 273 644 c 0
 220 646 178 598 170 550 c 0
386 150 m 0
 399 236 472 310 564 310 c 0
 656 310 706 234 694 150 c 0
 681 64 608 -10 516 -10 c 0
 424 -10 374 66 386 150 c 0
456 150 m 0
 449 104 470 58 522 56 c 0
 575 54 616 102 624 150 c 0
 631 196 610 242 558 244 c 0
 505 246 464 198 456 150 c 0
636 700 m 1
 714 700 l 1
 157 0 l 1
 82 0 l 1
 636 700 l 1
EndSplineSet
EndChar

StartChar: uni203D
Encoding: 8253 8253 147
Width: 540
VWidth: 0
Flags: HMW
LayerCount: 2
Fore
SplineSet
462 500 m 0
 476 578 429 634 345 634 c 0
 279 634 228 598 190 552 c 1
 132 594 l 1
 188 660 254 711 362 710 c 0
 482 709 559 613 542 500 c 0
 522 380 408 298 290 290 c 1
 248 346 l 1
 356 351 444 414 462 500 c 0
252 510 m 1
 353 510 l 1
 274 170 l 1
 215 170 l 1
 252 510 l 1
168 41 m 0
 171 68 202 96 230 94 c 0
 258 92 279 67 276 39 c 0
 273 12 242 -16 214 -14 c 0
 186 -12 165 13 168 41 c 0
EndSplineSet
EndChar

StartChar: Euro
Encoding: 8364 8364 148
Width: 562
VWidth: 0
Flags: HMW
LayerCount: 2
Fore
SplineSet
56 408 m 1
 64 454 l 1
 552 454 l 1
 544 408 l 1
 56 408 l 1
36 288 m 1
 44 334 l 1
 506 334 l 1
 498 288 l 1
 36 288 l 1
184 350 m 0
 166 218 203 71 341 70 c 0
 400 70 454 96 500 131 c 1
 484 31 l 1
 438 7 387 -10 333 -10 c 0
 149 -10 76 173 100 350 c 0
 128 539 266 710 450 710 c 0
 502 710 548 694 592 669 c 1
 576 568 l 1
 540 606 496 630 442 630 c 0
 304 630 206 494 184 350 c 0
EndSplineSet
EndChar

StartChar: fraction
Encoding: 8260 8260 149
Width: 684
VWidth: 0
Flags: HMW
LayerCount: 2
Fore
SplineSet
653 699 m 1
 718 698 l 1
 96 0 l 1
 30 0 l 1
 653 699 l 1
EndSplineSet
EndChar

StartChar: onequarter
Encoding: 188 188 150
Width: 731
VWidth: 0
Flags: HMW
LayerCount: 2
Fore
SplineSet
690 699 m 1
 756 698 l 1
 133 0 l 1
 68 0 l 1
 690 699 l 1
106 612 m 1
 114 664 l 1
 263 700 l 1
 190 274 l 1
 138 274 l 1
 200 638 l 1
 106 612 l 1
374 85 m 1
 420 128 l 1
 596 129 l 1
 606 129 l 1
 692 128 l 1
 684 84 l 1
 374 85 l 1
428 85 m 1
 373 86 l 1
 656 419 l 1
 678 420 l 1
 606 0 l 1
 556 0 l 1
 574 106 l 1
 574 112 l 1
 607 302 l 1
 428 85 l 1
EndSplineSet
EndChar

StartChar: onehalf
Encoding: 189 189 151
Width: 794
VWidth: 0
Flags: HMW
LayerCount: 2
Fore
SplineSet
690 699 m 1
 756 698 l 1
 133 0 l 1
 68 0 l 1
 690 699 l 1
106 612 m 1
 114 664 l 1
 263 700 l 1
 190 274 l 1
 138 274 l 1
 200 638 l 1
 106 612 l 1
452 3 m 1
 678 214 l 2
 706 240 732 270 738 306 c 0
 744 342 726 378 680 380 c 0
 623 383 584 333 572 279 c 1
 522 279 l 1
 539 360 595 429 683 428 c 0
 765 428 799 362 789 302 c 0
 781 257 751 218 716 186 c 2
 564 50 l 1
 748 50 l 1
 740 2 l 1
 452 3 l 1
EndSplineSet
EndChar

StartChar: threequarters
Encoding: 190 190 152
Width: 795
VWidth: 0
Flags: HMW
LayerCount: 2
Fore
SplineSet
755 699 m 1
 820 698 l 1
 198 0 l 1
 132 0 l 1
 755 699 l 1
198 488 m 1
 202 520 l 1
 251 525 290 549 298 593 c 0
 304 628 288 658 250 660 c 0
 210 662 180 629 170 597 c 1
 120 598 l 1
 135 658 184 707 253 706 c 0
 320 705 360 652 350 594 c 0
 338 528 272 492 198 488 c 1
182 274 m 0
 104 274 64 325 68 391 c 1
 118 391 l 1
 118 353 138 323 184 322 c 0
 230 321 270 355 276 398 c 0
 284 450 243 471 195 475 c 1
 200 508 l 1
 274 504 339 471 327 390 c 0
 317 322 254 274 182 274 c 0
438 85 m 1
 484 128 l 1
 661 129 l 1
 671 129 l 1
 757 128 l 1
 750 84 l 1
 438 85 l 1
492 85 m 1
 438 86 l 1
 720 419 l 1
 742 420 l 1
 672 0 l 1
 620 0 l 1
 638 106 l 1
 640 112 l 1
 672 302 l 1
 492 85 l 1
EndSplineSet
EndChar

StartChar: uni2150
Encoding: 8528 8528 153
Width: 817
VWidth: 0
Flags: HMW
LayerCount: 2
Fore
SplineSet
642 699 m 1
 707 698 l 1
 84 0 l 1
 19 0 l 1
 642 699 l 1
106 612 m 1
 114 664 l 1
 263 700 l 1
 190 274 l 1
 138 274 l 1
 200 638 l 1
 106 612 l 1
539 372 m 1
 546 420 l 1
 835 420 l 1
 568 0 l 1
 514 0 l 1
 748 372 l 1
 539 372 l 1
EndSplineSet
EndChar

StartChar: uni2151
Encoding: 8529 8529 154
Width: 760
VWidth: 0
Flags: HMW
LayerCount: 2
Fore
SplineSet
642 699 m 1
 707 698 l 1
 84 0 l 1
 19 0 l 1
 642 699 l 1
106 612 m 1
 114 664 l 1
 263 700 l 1
 190 274 l 1
 138 274 l 1
 200 638 l 1
 106 612 l 1
717 284 m 0
 725 334 699 381 645 382 c 0
 591 384 542 337 534 284 c 0
 526 234 552 188 606 186 c 0
 660 184 709 231 717 284 c 0
556 3 m 1
 490 4 l 1
 646 174 l 1
 651 170 l 1
 633 156 612 148 586 148 c 0
 516 149 477 216 486 284 c 0
 498 364 568 428 648 428 c 0
 728 428 778 362 766 284 c 0
 761 251 746 221 726 197 c 1
 556 3 l 1
EndSplineSet
EndChar

StartChar: uni2152
Encoding: 8530 8530 155
Width: 1048
VWidth: 0
Flags: HMW
LayerCount: 2
Fore
SplineSet
642 699 m 1
 707 698 l 1
 84 0 l 1
 19 0 l 1
 642 699 l 1
106 612 m 1
 114 664 l 1
 263 700 l 1
 190 274 l 1
 138 274 l 1
 200 638 l 1
 106 612 l 1
504 339 m 1
 512 391 l 1
 661 428 l 1
 587 2 l 1
 536 2 l 1
 598 364 l 1
 504 339 l 1
775 210 m 0
 767 137 771 44 845 42 c 0
 919 40 966 129 978 210 c 0
 986 283 982 376 908 378 c 0
 834 380 787 291 775 210 c 0
724 210 m 0
 738 318 810 426 910 426 c 0
 1012 426 1040 311 1028 210 c 0
 1014 102 942 -6 842 -6 c 0
 740 -6 712 109 724 210 c 0
EndSplineSet
EndChar

StartChar: onethird
Encoding: 8531 8531 156
Width: 732
VWidth: 0
Flags: HMW
LayerCount: 2
Fore
SplineSet
642 699 m 1
 707 698 l 1
 84 0 l 1
 19 0 l 1
 642 699 l 1
106 612 m 1
 114 664 l 1
 263 700 l 1
 190 274 l 1
 138 274 l 1
 200 638 l 1
 106 612 l 1
570 208 m 1
 575 240 l 1
 624 245 663 269 671 313 c 0
 677 348 660 378 622 380 c 0
 582 382 552 349 542 317 c 1
 493 318 l 1
 508 378 557 427 626 426 c 0
 693 425 732 372 722 314 c 0
 710 248 644 212 570 208 c 1
554 -6 m 0
 476 -6 436 45 440 111 c 1
 491 111 l 1
 491 73 511 43 557 42 c 0
 603 41 642 75 648 118 c 0
 656 170 615 191 567 195 c 1
 573 228 l 1
 647 224 711 191 699 110 c 0
 689 42 626 -6 554 -6 c 0
EndSplineSet
EndChar

StartChar: twothirds
Encoding: 8532 8532 157
Width: 855
VWidth: 0
Flags: HMW
LayerCount: 2
Fore
SplineSet
765 699 m 1
 830 698 l 1
 208 0 l 1
 142 0 l 1
 765 699 l 1
50 283 m 1
 276 494 l 2
 304 520 331 550 337 586 c 0
 343 622 324 658 278 660 c 0
 221 663 183 613 171 559 c 1
 120 559 l 1
 137 640 194 709 282 708 c 0
 364 708 398 642 388 582 c 0
 380 537 349 498 314 466 c 2
 163 330 l 1
 346 330 l 1
 338 282 l 1
 50 283 l 1
693 208 m 1
 698 240 l 1
 747 245 786 269 794 313 c 0
 800 348 784 378 746 380 c 0
 706 382 676 349 666 317 c 1
 616 318 l 1
 631 378 680 427 749 426 c 0
 816 425 855 372 845 314 c 0
 833 248 767 212 693 208 c 1
677 -6 m 0
 599 -6 560 45 564 111 c 1
 614 111 l 1
 614 73 634 43 680 42 c 0
 726 41 766 75 772 118 c 0
 780 170 738 191 690 195 c 1
 696 228 l 1
 770 224 834 191 822 110 c 0
 812 42 749 -6 677 -6 c 0
EndSplineSet
EndChar

StartChar: uni2155
Encoding: 8533 8533 158
Width: 722
VWidth: 0
Flags: HMW
LayerCount: 2
Fore
SplineSet
642 699 m 1
 707 698 l 1
 84 0 l 1
 19 0 l 1
 642 699 l 1
106 612 m 1
 114 664 l 1
 263 700 l 1
 190 274 l 1
 138 274 l 1
 200 638 l 1
 106 612 l 1
690 136 m 0
 678 50 606 -8 524 -8 c 0
 455 -8 416 30 392 81 c 1
 437 110 l 1
 453 74 484 40 528 40 c 0
 586 40 630 82 638 136 c 0
 646 188 617 229 565 232 c 0
 525 234 491 219 452 196 c 1
 486 234 l 1
 514 261 554 278 590 278 c 0
 664 277 700 209 690 136 c 0
577 373 m 1
 523 246 l 1
 447 190 l 1
 544 418 l 1
 736 418 l 1
 730 374 l 1
 577 373 l 1
EndSplineSet
EndChar

StartChar: uni2156
Encoding: 8534 8534 159
Width: 845
VWidth: 0
Flags: HMW
LayerCount: 2
Fore
SplineSet
765 699 m 1
 830 698 l 1
 208 0 l 1
 142 0 l 1
 765 699 l 1
50 283 m 1
 276 494 l 2
 304 520 331 550 337 586 c 0
 343 622 324 658 278 660 c 0
 221 663 183 613 171 559 c 1
 120 559 l 1
 137 640 194 709 282 708 c 0
 364 708 398 642 388 582 c 0
 380 537 349 498 314 466 c 2
 163 330 l 1
 346 330 l 1
 338 282 l 1
 50 283 l 1
813 136 m 0
 801 50 730 -8 648 -8 c 0
 579 -8 539 30 515 81 c 1
 560 110 l 1
 576 74 606 40 650 40 c 0
 708 40 752 82 760 136 c 0
 768 188 740 229 688 232 c 0
 648 234 615 219 576 196 c 1
 610 234 l 1
 638 261 676 278 712 278 c 0
 786 277 823 209 813 136 c 0
700 373 m 1
 646 246 l 1
 570 190 l 1
 666 418 l 1
 860 418 l 1
 852 374 l 1
 700 373 l 1
EndSplineSet
EndChar

StartChar: uni2157
Encoding: 8535 8535 160
Width: 806
VWidth: 0
Flags: HMW
LayerCount: 2
Fore
SplineSet
726 699 m 1
 792 698 l 1
 169 0 l 1
 104 0 l 1
 726 699 l 1
198 488 m 1
 202 520 l 1
 251 525 290 549 298 593 c 0
 304 628 288 658 250 660 c 0
 210 662 180 629 170 597 c 1
 120 598 l 1
 135 658 184 707 253 706 c 0
 320 705 360 652 350 594 c 0
 338 528 272 492 198 488 c 1
182 274 m 0
 104 274 64 325 68 391 c 1
 118 391 l 1
 118 353 138 323 184 322 c 0
 230 321 270 355 276 398 c 0
 284 450 243 471 195 475 c 1
 200 508 l 1
 274 504 339 471 327 390 c 0
 317 322 254 274 182 274 c 0
774 136 m 0
 762 50 691 -8 609 -8 c 0
 540 -8 500 30 476 81 c 1
 522 110 l 1
 538 74 568 40 612 40 c 0
 670 40 714 82 722 136 c 0
 730 188 702 229 650 232 c 0
 610 234 576 219 537 196 c 1
 571 234 l 1
 599 261 638 278 674 278 c 0
 748 277 784 209 774 136 c 0
661 373 m 1
 608 246 l 1
 532 190 l 1
 628 418 l 1
 821 418 l 1
 814 374 l 1
 661 373 l 1
EndSplineSet
EndChar

StartChar: uni2158
Encoding: 8536 8536 161
Width: 840
VWidth: 0
Flags: HMW
LayerCount: 2
Fore
SplineSet
760 699 m 1
 826 698 l 1
 203 0 l 1
 138 0 l 1
 760 699 l 1
64 365 m 1
 110 408 l 1
 286 409 l 1
 296 409 l 1
 382 408 l 1
 376 364 l 1
 64 365 l 1
118 365 m 1
 64 366 l 1
 346 699 l 1
 368 700 l 1
 297 280 l 1
 246 280 l 1
 264 386 l 1
 265 392 l 1
 298 582 l 1
 118 365 l 1
808 136 m 0
 796 50 725 -8 643 -8 c 0
 574 -8 534 30 510 81 c 1
 556 110 l 1
 572 74 602 40 646 40 c 0
 704 40 748 82 756 136 c 0
 764 188 736 229 684 232 c 0
 644 234 610 219 571 196 c 1
 605 234 l 1
 633 261 672 278 708 278 c 0
 782 277 818 209 808 136 c 0
695 373 m 1
 642 246 l 1
 566 190 l 1
 662 418 l 1
 855 418 l 1
 848 374 l 1
 695 373 l 1
EndSplineSet
EndChar

StartChar: uni2159
Encoding: 8537 8537 162
Width: 712
VWidth: 0
Flags: HMW
LayerCount: 2
Fore
SplineSet
642 699 m 1
 707 698 l 1
 84 0 l 1
 19 0 l 1
 642 699 l 1
106 612 m 1
 114 664 l 1
 263 700 l 1
 190 274 l 1
 138 274 l 1
 200 638 l 1
 106 612 l 1
455 136 m 0
 447 86 473 39 527 38 c 0
 581 36 630 83 638 136 c 0
 646 186 620 232 566 234 c 0
 512 236 463 189 455 136 c 0
617 417 m 1
 682 416 l 1
 526 246 l 1
 522 250 l 1
 540 264 560 272 586 272 c 0
 656 271 695 204 686 136 c 0
 674 56 604 -8 524 -8 c 0
 444 -8 394 58 406 136 c 0
 411 169 427 199 447 223 c 1
 617 417 l 1
EndSplineSet
EndChar

StartChar: uni215A
Encoding: 8538 8538 163
Width: 830
VWidth: 0
Flags: HMW
LayerCount: 2
Fore
SplineSet
760 699 m 1
 826 698 l 1
 203 0 l 1
 138 0 l 1
 760 699 l 1
361 416 m 0
 349 330 278 272 196 272 c 0
 127 272 87 310 63 361 c 1
 108 390 l 1
 124 354 154 320 198 320 c 0
 256 320 300 362 308 416 c 0
 316 468 288 509 236 512 c 0
 196 514 163 499 124 476 c 1
 158 514 l 1
 186 541 224 558 260 558 c 0
 334 557 371 489 361 416 c 0
248 653 m 1
 194 526 l 1
 118 470 l 1
 214 698 l 1
 408 698 l 1
 400 654 l 1
 248 653 l 1
574 136 m 0
 566 86 592 39 646 38 c 0
 700 36 748 83 756 136 c 0
 764 186 738 232 684 234 c 0
 630 236 582 189 574 136 c 0
735 417 m 1
 800 416 l 1
 644 246 l 1
 640 250 l 1
 658 264 678 272 704 272 c 0
 774 271 813 204 804 136 c 0
 792 56 723 -8 643 -8 c 0
 563 -8 513 58 525 136 c 0
 530 169 545 199 565 223 c 1
 735 417 l 1
EndSplineSet
EndChar

StartChar: oneeighth
Encoding: 8539 8539 164
Width: 737
VWidth: 0
Flags: HMW
LayerCount: 2
Fore
SplineSet
642 699 m 1
 707 698 l 1
 84 0 l 1
 19 0 l 1
 642 699 l 1
106 612 m 1
 114 664 l 1
 263 700 l 1
 190 274 l 1
 138 274 l 1
 200 638 l 1
 106 612 l 1
496 320 m 0
 505 378 561 426 624 426 c 0
 686 426 730 376 722 318 c 0
 714 256 657 214 592 214 c 0
 527 214 487 258 496 320 c 0
542 312 m 0
 537 278 559 248 594 246 c 0
 630 244 666 278 672 314 c 0
 677 349 659 378 622 380 c 0
 584 382 548 348 542 312 c 0
446 114 m 0
 456 186 523 234 592 234 c 0
 660 234 712 185 702 114 c 0
 692 49 628 -6 556 -6 c 0
 486 -6 436 50 446 114 c 0
495 120 m 0
 488 76 516 41 558 40 c 0
 602 39 647 74 654 120 c 0
 660 161 633 199 591 200 c 0
 548 201 502 162 495 120 c 0
EndSplineSet
EndChar

StartChar: threeeighths
Encoding: 8540 8540 165
Width: 821
VWidth: 0
Flags: HMW
LayerCount: 2
Fore
SplineSet
726 699 m 1
 792 698 l 1
 169 0 l 1
 104 0 l 1
 726 699 l 1
198 488 m 1
 202 520 l 1
 251 525 290 549 298 593 c 0
 304 628 288 658 250 660 c 0
 210 662 180 629 170 597 c 1
 120 598 l 1
 135 658 184 707 253 706 c 0
 320 705 360 652 350 594 c 0
 338 528 272 492 198 488 c 1
182 274 m 0
 104 274 64 325 68 391 c 1
 118 391 l 1
 118 353 138 323 184 322 c 0
 230 321 270 355 276 398 c 0
 284 450 243 471 195 475 c 1
 200 508 l 1
 274 504 339 471 327 390 c 0
 317 322 254 274 182 274 c 0
580 320 m 0
 589 378 646 426 709 426 c 0
 771 426 814 376 806 318 c 0
 798 256 742 214 677 214 c 0
 612 214 571 258 580 320 c 0
627 312 m 0
 622 278 643 248 678 246 c 0
 714 244 751 278 757 314 c 0
 762 349 743 378 706 380 c 0
 668 382 633 348 627 312 c 0
530 114 m 0
 540 186 607 234 676 234 c 0
 744 234 796 185 786 114 c 0
 776 49 712 -6 640 -6 c 0
 570 -6 520 50 530 114 c 0
580 120 m 0
 573 76 601 41 643 40 c 0
 687 39 731 74 738 120 c 0
 744 161 718 199 676 200 c 0
 633 201 587 162 580 120 c 0
EndSplineSet
EndChar

StartChar: fiveeighths
Encoding: 8541 8541 166
Width: 855
VWidth: 0
Flags: HMW
LayerCount: 2
Fore
SplineSet
760 699 m 1
 826 698 l 1
 203 0 l 1
 138 0 l 1
 760 699 l 1
361 416 m 0
 349 330 278 272 196 272 c 0
 127 272 87 310 63 361 c 1
 108 390 l 1
 124 354 154 320 198 320 c 0
 256 320 300 362 308 416 c 0
 316 468 288 509 236 512 c 0
 196 514 163 499 124 476 c 1
 158 514 l 1
 186 541 224 558 260 558 c 0
 334 557 371 489 361 416 c 0
248 653 m 1
 194 526 l 1
 118 470 l 1
 214 698 l 1
 408 698 l 1
 400 654 l 1
 248 653 l 1
614 320 m 0
 623 378 680 426 743 426 c 0
 805 426 848 376 840 318 c 0
 832 256 776 214 711 214 c 0
 646 214 605 258 614 320 c 0
661 312 m 0
 656 278 677 248 712 246 c 0
 748 244 785 278 791 314 c 0
 796 349 777 378 740 380 c 0
 702 382 667 348 661 312 c 0
564 114 m 0
 574 186 641 234 710 234 c 0
 778 234 830 185 820 114 c 0
 810 49 746 -6 674 -6 c 0
 604 -6 554 50 564 114 c 0
614 120 m 0
 607 76 635 41 677 40 c 0
 721 39 765 74 772 120 c 0
 778 161 751 199 709 200 c 0
 666 201 621 162 614 120 c 0
EndSplineSet
EndChar

StartChar: seveneighths
Encoding: 8542 8542 167
Width: 749
VWidth: 0
Flags: HMW
LayerCount: 2
Fore
SplineSet
653 699 m 1
 718 698 l 1
 96 0 l 1
 30 0 l 1
 653 699 l 1
113 652 m 1
 120 700 l 1
 409 700 l 1
 142 281 l 1
 88 281 l 1
 323 652 l 1
 113 652 l 1
507 320 m 0
 516 378 573 426 636 426 c 0
 698 426 742 376 734 318 c 0
 726 256 669 214 604 214 c 0
 539 214 498 258 507 320 c 0
554 312 m 0
 549 278 571 248 606 246 c 0
 642 244 678 278 684 314 c 0
 689 349 670 378 633 380 c 0
 595 382 560 348 554 312 c 0
458 114 m 0
 468 186 535 234 604 234 c 0
 672 234 723 185 713 114 c 0
 703 49 639 -6 567 -6 c 0
 497 -6 448 50 458 114 c 0
506 120 m 0
 499 76 528 41 570 40 c 0
 614 39 659 74 666 120 c 0
 672 161 644 199 602 200 c 0
 559 201 513 162 506 120 c 0
EndSplineSet
EndChar

StartChar: uni2074
Encoding: 8308 8308 168
Width: 374
VWidth: 0
Flags: HMW
LayerCount: 2
Fore
SplineSet
64 365 m 1
 110 408 l 1
 286 409 l 1
 296 409 l 1
 382 408 l 1
 376 364 l 1
 64 365 l 1
118 365 m 1
 64 366 l 1
 346 699 l 1
 368 700 l 1
 297 280 l 1
 246 280 l 1
 264 386 l 1
 265 392 l 1
 298 582 l 1
 118 365 l 1
EndSplineSet
EndChar

StartChar: uni2075
Encoding: 8309 8309 169
Width: 345
VWidth: 0
Flags: HMW
LayerCount: 2
Fore
SplineSet
361 416 m 0
 349 330 278 272 196 272 c 0
 127 272 87 310 63 361 c 1
 108 390 l 1
 124 354 154 320 198 320 c 0
 256 320 300 362 308 416 c 0
 316 468 288 509 236 512 c 0
 196 514 163 499 124 476 c 1
 158 514 l 1
 186 541 224 558 260 558 c 0
 334 557 371 489 361 416 c 0
248 653 m 1
 194 526 l 1
 118 470 l 1
 214 698 l 1
 408 698 l 1
 400 654 l 1
 248 653 l 1
EndSplineSet
EndChar

StartChar: uni2076
Encoding: 8310 8310 170
Width: 335
VWidth: 0
Flags: HMW
LayerCount: 2
Fore
SplineSet
126 416 m 0
 118 366 144 319 198 318 c 0
 252 316 301 363 309 416 c 0
 317 466 291 512 237 514 c 0
 183 516 134 469 126 416 c 0
288 697 m 1
 354 696 l 1
 197 526 l 1
 192 530 l 1
 210 544 232 552 258 552 c 0
 328 551 366 484 357 416 c 0
 345 336 276 272 196 272 c 0
 116 272 66 338 78 416 c 0
 83 449 98 479 118 503 c 1
 288 697 l 1
EndSplineSet
EndChar

StartChar: uni2077
Encoding: 8311 8311 171
Width: 343
VWidth: 0
Flags: HMW
LayerCount: 2
Fore
SplineSet
113 652 m 1
 120 700 l 1
 409 700 l 1
 142 281 l 1
 88 281 l 1
 323 652 l 1
 113 652 l 1
EndSplineSet
EndChar

StartChar: uni2078
Encoding: 8312 8312 172
Width: 312
VWidth: 0
Flags: HMW
LayerCount: 2
Fore
SplineSet
118 600 m 0
 127 658 185 706 248 706 c 0
 310 706 352 656 344 598 c 0
 336 536 281 494 216 494 c 0
 151 494 109 538 118 600 c 0
165 592 m 0
 160 558 182 528 217 526 c 0
 253 524 290 558 296 594 c 0
 301 629 281 658 244 660 c 0
 206 662 171 628 165 592 c 0
68 394 m 0
 78 466 145 514 214 514 c 0
 282 514 334 465 324 394 c 0
 314 329 250 274 178 274 c 0
 108 274 58 330 68 394 c 0
118 400 m 0
 111 356 139 321 181 320 c 0
 225 319 270 354 277 400 c 0
 283 441 256 479 214 480 c 0
 171 481 125 442 118 400 c 0
EndSplineSet
EndChar

StartChar: uni2079
Encoding: 8313 8313 173
Width: 335
VWidth: 0
Flags: HMW
LayerCount: 2
Fore
SplineSet
340 564 m 0
 348 614 322 661 268 662 c 0
 214 664 166 617 158 564 c 0
 150 514 176 468 230 466 c 0
 284 464 332 511 340 564 c 0
178 283 m 1
 113 284 l 1
 269 454 l 1
 274 450 l 1
 256 436 235 428 209 428 c 0
 139 429 101 496 110 564 c 0
 122 644 190 708 270 708 c 0
 350 708 400 642 388 564 c 0
 383 531 368 501 348 477 c 1
 178 283 l 1
EndSplineSet
EndChar

StartChar: uni2070
Encoding: 8304 8304 174
Width: 361
VWidth: 0
Flags: HMW
LayerCount: 2
Fore
SplineSet
136 490 m 0
 128 417 132 324 206 322 c 0
 280 320 326 409 338 490 c 0
 346 563 342 656 268 658 c 0
 194 660 148 571 136 490 c 0
84 490 m 0
 98 598 171 706 271 706 c 0
 373 706 402 591 390 490 c 0
 376 382 303 274 203 274 c 0
 101 274 72 389 84 490 c 0
EndSplineSet
EndChar

StartChar: uni2080
Encoding: 8320 8320 175
Width: 361
VWidth: 0
Flags: HMW
LayerCount: 2
Fore
SplineSet
88 210 m 0
 80 137 84 44 158 42 c 0
 232 40 278 129 290 210 c 0
 298 283 295 376 221 378 c 0
 147 380 100 291 88 210 c 0
37 210 m 0
 51 318 124 426 224 426 c 0
 326 426 354 311 342 210 c 0
 328 102 255 -6 155 -6 c 0
 53 -6 25 109 37 210 c 0
EndSplineSet
EndChar

StartChar: uni2084
Encoding: 8324 8324 176
Width: 374
VWidth: 0
Flags: HMW
LayerCount: 2
Fore
SplineSet
16 85 m 1
 62 128 l 1
 239 129 l 1
 249 129 l 1
 335 128 l 1
 328 84 l 1
 16 85 l 1
70 85 m 1
 16 86 l 1
 298 419 l 1
 320 420 l 1
 249 0 l 1
 198 0 l 1
 216 106 l 1
 218 112 l 1
 250 302 l 1
 70 85 l 1
EndSplineSet
EndChar

StartChar: uni2085
Encoding: 8325 8325 177
Width: 345
VWidth: 0
Flags: HMW
LayerCount: 2
Fore
SplineSet
314 136 m 0
 302 50 230 -8 148 -8 c 0
 79 -8 39 30 15 81 c 1
 60 110 l 1
 76 74 106 40 150 40 c 0
 208 40 253 82 261 136 c 0
 269 188 240 229 188 232 c 0
 148 234 115 219 76 196 c 1
 110 234 l 1
 138 261 177 278 213 278 c 0
 287 277 324 209 314 136 c 0
200 373 m 1
 146 246 l 1
 70 190 l 1
 166 418 l 1
 360 418 l 1
 352 374 l 1
 200 373 l 1
EndSplineSet
EndChar

StartChar: uni2086
Encoding: 8326 8326 178
Width: 335
VWidth: 0
Flags: HMW
LayerCount: 2
Fore
SplineSet
78 136 m 0
 70 86 96 39 150 38 c 0
 204 36 252 83 260 136 c 0
 268 186 242 232 188 234 c 0
 134 236 86 189 78 136 c 0
240 417 m 1
 305 416 l 1
 148 246 l 1
 144 250 l 1
 162 264 182 272 208 272 c 0
 278 271 317 204 308 136 c 0
 296 56 227 -8 147 -8 c 0
 67 -8 17 58 29 136 c 0
 34 169 50 199 70 223 c 1
 240 417 l 1
EndSplineSet
EndChar

StartChar: uni2087
Encoding: 8327 8327 179
Width: 343
VWidth: 0
Flags: HMW
LayerCount: 2
Fore
SplineSet
65 372 m 1
 73 420 l 1
 362 420 l 1
 94 0 l 1
 40 0 l 1
 275 372 l 1
 65 372 l 1
EndSplineSet
EndChar

StartChar: uni2088
Encoding: 8328 8328 180
Width: 312
VWidth: 0
Flags: HMW
LayerCount: 2
Fore
SplineSet
70 320 m 0
 79 378 137 426 200 426 c 0
 262 426 305 376 297 318 c 0
 289 256 233 214 168 214 c 0
 103 214 61 258 70 320 c 0
118 312 m 0
 113 278 134 248 169 246 c 0
 205 244 242 278 248 314 c 0
 253 349 233 378 196 380 c 0
 158 382 124 348 118 312 c 0
20 114 m 0
 30 186 97 234 166 234 c 0
 234 234 286 185 276 114 c 0
 266 49 202 -6 130 -6 c 0
 60 -6 10 50 20 114 c 0
70 120 m 0
 63 76 92 41 134 40 c 0
 178 39 223 74 230 120 c 0
 236 161 208 199 166 200 c 0
 123 201 77 162 70 120 c 0
EndSplineSet
EndChar

StartChar: uni2089
Encoding: 8329 8329 181
Width: 335
VWidth: 0
Flags: HMW
LayerCount: 2
Fore
SplineSet
276 284 m 0
 284 334 258 381 204 382 c 0
 150 384 101 337 93 284 c 0
 85 234 111 188 165 186 c 0
 219 184 268 231 276 284 c 0
114 3 m 1
 48 4 l 1
 205 174 l 1
 210 170 l 1
 192 156 170 148 144 148 c 0
 74 149 36 216 45 284 c 0
 57 364 126 428 206 428 c 0
 286 428 336 362 324 284 c 0
 319 251 304 221 284 197 c 1
 114 3 l 1
EndSplineSet
EndChar

StartChar: uni2081
Encoding: 8321 8321 182
Width: 304
VWidth: 0
Flags: HMW
LayerCount: 2
Fore
SplineSet
118 339 m 1
 126 391 l 1
 275 428 l 1
 201 2 l 1
 150 2 l 1
 211 364 l 1
 118 339 l 1
EndSplineSet
EndChar

StartChar: uni2082
Encoding: 8322 8322 183
Width: 335
VWidth: 0
Flags: HMW
LayerCount: 2
Fore
SplineSet
-2 3 m 1
 224 214 l 2
 252 240 278 270 284 306 c 0
 290 342 272 378 226 380 c 0
 169 383 130 333 118 279 c 1
 67 279 l 1
 84 360 141 429 229 428 c 0
 311 428 345 362 335 302 c 0
 327 257 297 218 262 186 c 2
 110 50 l 1
 293 50 l 1
 286 2 l 1
 -2 3 l 1
EndSplineSet
EndChar

StartChar: uni2083
Encoding: 8323 8323 184
Width: 302
VWidth: 0
Flags: HMW
LayerCount: 2
Fore
SplineSet
144 208 m 1
 150 240 l 1
 199 245 238 269 246 313 c 0
 252 348 236 378 198 380 c 0
 158 382 127 349 117 317 c 1
 68 318 l 1
 83 378 131 427 200 426 c 0
 267 425 307 372 297 314 c 0
 285 248 218 212 144 208 c 1
128 -6 m 0
 50 -6 12 45 16 111 c 1
 66 111 l 1
 66 73 86 43 132 42 c 0
 178 41 218 75 224 118 c 0
 232 170 190 191 142 195 c 1
 148 228 l 1
 222 224 286 191 274 110 c 0
 264 42 200 -6 128 -6 c 0
EndSplineSet
EndChar

StartChar: Agrave
Encoding: 192 192 185
Width: 640
VWidth: 0
Flags: HMW
LayerCount: 2
Fore
SplineSet
152 211 m 1
 193 290 l 1
 496 290 l 1
 512 210 l 1
 152 211 l 1
388 542 m 1
 226 264 l 1
 215 246 l 1
 71 0 l 1
 -25 0 l 1
 418 736 l 1
 608 0 l 1
 516 0 l 1
 458 240 l 1
 454 260 l 1
 388 542 l 1
328 946 m 1
 406 985 l 1
 527 824 l 1
 480 795 l 1
 328 946 l 1
EndSplineSet
EndChar

StartChar: Aacute
Encoding: 193 193 186
Width: 640
VWidth: 0
Flags: HMW
LayerCount: 2
Fore
SplineSet
152 211 m 1
 193 290 l 1
 496 290 l 1
 512 210 l 1
 152 211 l 1
388 542 m 1
 226 264 l 1
 215 246 l 1
 71 0 l 1
 -25 0 l 1
 418 736 l 1
 608 0 l 1
 516 0 l 1
 458 240 l 1
 454 260 l 1
 388 542 l 1
582 942 m 1
 382 796 l 1
 341 826 l 1
 512 984 l 1
 582 942 l 1
EndSplineSet
EndChar

StartChar: Acircumflex
Encoding: 194 194 187
Width: 640
VWidth: 0
Flags: HMW
LayerCount: 2
Fore
SplineSet
152 211 m 1
 193 290 l 1
 496 290 l 1
 512 210 l 1
 152 211 l 1
388 542 m 1
 226 264 l 1
 215 246 l 1
 71 0 l 1
 -25 0 l 1
 418 736 l 1
 608 0 l 1
 516 0 l 1
 458 240 l 1
 454 260 l 1
 388 542 l 1
441 850 m 1
 317 756 l 1
 272 796 l 1
 451 935 l 1
 585 794 l 1
 531 756 l 1
 441 850 l 1
EndSplineSet
EndChar

StartChar: Atilde
Encoding: 195 195 188
Width: 640
VWidth: 0
Flags: HMW
LayerCount: 2
Fore
SplineSet
152 211 m 1
 193 290 l 1
 496 290 l 1
 512 210 l 1
 152 211 l 1
388 542 m 1
 226 264 l 1
 215 246 l 1
 71 0 l 1
 -25 0 l 1
 418 736 l 1
 608 0 l 1
 516 0 l 1
 458 240 l 1
 454 260 l 1
 388 542 l 1
270 814 m 1
 290 856 336 896 384 894 c 0
 436 893 450 846 496 848 c 0
 520 849 540 870 560 894 c 1
 600 850 l 1
 577 816 535 778 486 780 c 0
 440 782 418 827 376 826 c 0
 340 825 326 794 318 776 c 1
 270 814 l 1
EndSplineSet
EndChar

StartChar: Adieresis
Encoding: 196 196 189
Width: 640
VWidth: 0
Flags: HMW
LayerCount: 2
Fore
SplineSet
152 211 m 1
 193 290 l 1
 496 290 l 1
 512 210 l 1
 152 211 l 1
388 542 m 1
 226 264 l 1
 215 246 l 1
 71 0 l 1
 -25 0 l 1
 418 736 l 1
 608 0 l 1
 516 0 l 1
 458 240 l 1
 454 260 l 1
 388 542 l 1
482 851 m 0
 485 878 516 906 544 904 c 0
 572 902 592 877 589 849 c 0
 586 822 555 794 527 796 c 0
 499 798 479 823 482 851 c 0
287 851 m 0
 290 878 322 906 350 904 c 0
 378 902 398 877 395 849 c 0
 392 822 361 794 333 796 c 0
 305 798 284 823 287 851 c 0
EndSplineSet
EndChar

StartChar: Aring
Encoding: 197 197 190
Width: 640
VWidth: 0
Flags: HMW
LayerCount: 2
Fore
SplineSet
152 211 m 1
 193 290 l 1
 496 290 l 1
 512 210 l 1
 152 211 l 1
388 542 m 1
 226 264 l 1
 215 246 l 1
 71 0 l 1
 -25 0 l 1
 418 736 l 1
 608 0 l 1
 516 0 l 1
 458 240 l 1
 454 260 l 1
 388 542 l 1
330 799 m 0
 338 854 391 898 444 898 c 0
 497 898 537 851 529 797 c 0
 521 742 467 698 414 698 c 0
 361 698 322 745 330 799 c 0
380 798 m 0
 377 772 394 748 418 746 c 0
 442 744 476 770 479 798 c 0
 482 824 464 848 440 850 c 0
 416 852 383 826 380 798 c 0
EndSplineSet
EndChar

StartChar: AE
Encoding: 198 198 191
Width: 931
VWidth: 0
Flags: HMW
LayerCount: 2
Fore
SplineSet
220 210 m 1
 233 290 l 1
 526 290 l 1
 512 210 l 1
 220 210 l 1
516 700 m 1
 576 658 l 1
 72 0 l 1
 -22 0 l 1
 516 700 l 1
494 0 m 1
 508 80 l 1
 852 80 l 1
 838 0 l 1
 494 0 l 1
610 620 m 1
 516 700 l 1
 958 700 l 1
 944 620 l 1
 610 620 l 1
552 340 m 1
 566 420 l 1
 890 420 l 1
 877 340 l 1
 552 340 l 1
566 700 m 1
 652 700 l 1
 531 0 l 1
 448 0 l 1
 566 700 l 1
EndSplineSet
EndChar

StartChar: Ccedilla
Encoding: 199 199 192
Width: 664
VWidth: 0
Flags: HMW
LayerCount: 2
Fore
SplineSet
160 350 m 0
 138 208 217 78 361 76 c 0
 457 75 539 120 600 178 c 1
 582 66 l 1
 517 17 446 -10 352 -10 c 0
 156 -9 42 162 70 350 c 0
 100 548 271 709 470 710 c 0
 559 710 622 685 678 632 c 1
 660 521 l 1
 617 586 549 624 461 624 c 0
 315 624 185 501 160 350 c 0
350 58 m 1
 410 58 l 1
 329 -53 l 1
 331 -53 334 -53 336 -53 c 0
 372 -57 401 -84 396 -128 c 0
 389 -184 333 -220 279 -220 c 0
 243 -220 222 -207 196 -182 c 1
 234 -144 l 1
 250 -158 262 -167 284 -167 c 0
 312 -167 338 -149 341 -126 c 0
 344 -104 326 -91 300 -91 c 0
 284 -90 260 -98 240 -108 c 1
 350 58 l 1
EndSplineSet
EndChar

StartChar: Egrave
Encoding: 200 200 193
Width: 533
VWidth: 0
Flags: HMW
LayerCount: 2
Fore
SplineSet
96 0 m 1
 110 80 l 1
 454 80 l 1
 440 0 l 1
 96 0 l 1
202 620 m 1
 216 700 l 1
 560 700 l 1
 546 620 l 1
 202 620 l 1
154 340 m 1
 168 420 l 1
 492 420 l 1
 479 340 l 1
 154 340 l 1
168 700 m 1
 254 700 l 1
 133 0 l 1
 51 0 l 1
 168 700 l 1
274 921 m 1
 354 960 l 1
 474 799 l 1
 427 770 l 1
 274 921 l 1
EndSplineSet
EndChar

StartChar: Eacute
Encoding: 201 201 194
Width: 533
VWidth: 0
Flags: HMW
LayerCount: 2
Fore
SplineSet
96 0 m 1
 110 80 l 1
 454 80 l 1
 440 0 l 1
 96 0 l 1
202 620 m 1
 216 700 l 1
 560 700 l 1
 546 620 l 1
 202 620 l 1
154 340 m 1
 168 420 l 1
 492 420 l 1
 479 340 l 1
 154 340 l 1
168 700 m 1
 254 700 l 1
 133 0 l 1
 51 0 l 1
 168 700 l 1
528 918 m 1
 330 771 l 1
 288 802 l 1
 460 960 l 1
 528 918 l 1
EndSplineSet
EndChar

StartChar: Ecircumflex
Encoding: 202 202 195
Width: 533
VWidth: 0
Flags: HMW
LayerCount: 2
Fore
SplineSet
96 0 m 1
 110 80 l 1
 454 80 l 1
 440 0 l 1
 96 0 l 1
202 620 m 1
 216 700 l 1
 560 700 l 1
 546 620 l 1
 202 620 l 1
154 340 m 1
 168 420 l 1
 492 420 l 1
 479 340 l 1
 154 340 l 1
168 700 m 1
 254 700 l 1
 133 0 l 1
 51 0 l 1
 168 700 l 1
404 864 m 1
 281 770 l 1
 236 812 l 1
 414 950 l 1
 548 809 l 1
 495 770 l 1
 404 864 l 1
EndSplineSet
EndChar

StartChar: Edieresis
Encoding: 203 203 196
Width: 533
VWidth: 0
Flags: HMW
LayerCount: 2
Fore
SplineSet
96 0 m 1
 110 80 l 1
 454 80 l 1
 440 0 l 1
 96 0 l 1
202 620 m 1
 216 700 l 1
 560 700 l 1
 546 620 l 1
 202 620 l 1
154 340 m 1
 168 420 l 1
 492 420 l 1
 479 340 l 1
 154 340 l 1
168 700 m 1
 254 700 l 1
 133 0 l 1
 51 0 l 1
 168 700 l 1
442 846 m 0
 445 873 476 902 504 900 c 0
 532 898 553 872 550 844 c 0
 547 817 516 788 488 790 c 0
 460 792 439 818 442 846 c 0
248 846 m 0
 251 873 282 902 310 900 c 0
 338 898 359 872 356 844 c 0
 353 817 322 788 294 790 c 0
 266 792 245 818 248 846 c 0
EndSplineSet
EndChar

StartChar: Igrave
Encoding: 204 204 197
Width: 237
VWidth: 0
Flags: HMW
LayerCount: 2
Fore
SplineSet
168 700 m 1
 254 700 l 1
 133 0 l 1
 51 0 l 1
 168 700 l 1
122 921 m 1
 201 960 l 1
 322 799 l 1
 274 770 l 1
 122 921 l 1
EndSplineSet
EndChar

StartChar: Iacute
Encoding: 205 205 198
Width: 237
VWidth: 0
Flags: HMW
LayerCount: 2
Fore
SplineSet
168 700 m 1
 254 700 l 1
 133 0 l 1
 51 0 l 1
 168 700 l 1
375 918 m 1
 176 770 l 1
 136 802 l 1
 308 960 l 1
 375 918 l 1
EndSplineSet
EndChar

StartChar: Icircumflex
Encoding: 206 206 199
Width: 237
VWidth: 0
Flags: HMW
LayerCount: 2
Fore
SplineSet
168 700 m 1
 254 700 l 1
 133 0 l 1
 51 0 l 1
 168 700 l 1
242 864 m 1
 118 770 l 1
 74 812 l 1
 252 950 l 1
 386 809 l 1
 332 770 l 1
 242 864 l 1
EndSplineSet
EndChar

StartChar: Idieresis
Encoding: 207 207 200
Width: 237
VWidth: 0
Flags: HMW
LayerCount: 2
Fore
SplineSet
168 700 m 1
 254 700 l 1
 133 0 l 1
 51 0 l 1
 168 700 l 1
276 826 m 0
 279 852 310 882 338 880 c 0
 366 878 387 852 384 824 c 0
 381 797 349 768 321 770 c 0
 292 772 273 798 276 826 c 0
82 826 m 0
 85 852 115 882 143 880 c 0
 171 878 193 852 190 824 c 0
 187 797 155 768 127 770 c 0
 98 772 79 798 82 826 c 0
EndSplineSet
EndChar

StartChar: Ntilde
Encoding: 209 209 201
Width: 752
VWidth: 0
Flags: HMW
LayerCount: 2
Fore
SplineSet
684 700 m 1
 768 700 l 1
 642 -34 l 1
 224 522 l 1
 134 0 l 1
 49 0 l 1
 175 734 l 1
 594 178 l 1
 684 700 l 1
316 794 m 1
 336 836 381 876 429 874 c 0
 481 873 496 826 542 828 c 0
 566 829 585 850 605 874 c 1
 644 830 l 1
 621 796 580 758 531 760 c 0
 485 762 464 807 422 806 c 0
 386 805 372 774 364 756 c 1
 316 794 l 1
EndSplineSet
EndChar

StartChar: Eth
Encoding: 208 208 202
Width: 659
VWidth: 0
Flags: HMW
LayerCount: 2
Fore
SplineSet
31 310 m 1
 44 385 l 1
 336 385 l 1
 324 310 l 1
 31 310 l 1
168 700 m 1
 254 700 l 1
 133 0 l 1
 51 0 l 1
 168 700 l 1
258 0 m 1
 95 0 l 1
 110 85 l 1
 266 85 l 1
 424 88 544 196 570 350 c 0
 594 497 516 611 362 615 c 1
 200 615 l 1
 215 700 l 1
 370 700 l 1
 570 696 682 542 654 350 c 0
 623 150 462 3 258 0 c 1
EndSplineSet
EndChar

StartChar: Ograve
Encoding: 210 210 203
Width: 766
VWidth: 0
Flags: HMW
LayerCount: 2
Fore
SplineSet
160 350 m 0
 138 209 213 77 366 76 c 0
 521 75 647 201 672 350 c 0
 694 491 619 623 466 624 c 0
 311 625 185 499 160 350 c 0
70 350 m 0
 100 546 270 710 474 710 c 0
 676 710 790 538 762 350 c 0
 732 154 562 -10 358 -10 c 0
 156 -10 42 162 70 350 c 0
396 921 m 1
 475 960 l 1
 596 799 l 1
 548 770 l 1
 396 921 l 1
EndSplineSet
EndChar

StartChar: Oacute
Encoding: 211 211 204
Width: 766
VWidth: 0
Flags: HMW
LayerCount: 2
Fore
SplineSet
160 350 m 0
 138 209 213 77 366 76 c 0
 521 75 647 201 672 350 c 0
 694 491 619 623 466 624 c 0
 311 625 185 499 160 350 c 0
70 350 m 0
 100 546 270 710 474 710 c 0
 676 710 790 538 762 350 c 0
 732 154 562 -10 358 -10 c 0
 156 -10 42 162 70 350 c 0
630 918 m 1
 432 771 l 1
 390 802 l 1
 562 960 l 1
 630 918 l 1
EndSplineSet
EndChar

StartChar: Ocircumflex
Encoding: 212 212 205
Width: 766
VWidth: 0
Flags: HMW
LayerCount: 2
Fore
SplineSet
160 350 m 0
 138 209 213 77 366 76 c 0
 521 75 647 201 672 350 c 0
 694 491 619 623 466 624 c 0
 311 625 185 499 160 350 c 0
70 350 m 0
 100 546 270 710 474 710 c 0
 676 710 790 538 762 350 c 0
 732 154 562 -10 358 -10 c 0
 156 -10 42 162 70 350 c 0
506 864 m 1
 382 770 l 1
 338 812 l 1
 516 950 l 1
 650 809 l 1
 597 770 l 1
 506 864 l 1
EndSplineSet
EndChar

StartChar: Otilde
Encoding: 213 213 206
Width: 766
VWidth: 0
Flags: HMW
LayerCount: 2
Fore
SplineSet
160 350 m 0
 138 209 213 77 366 76 c 0
 521 75 647 201 672 350 c 0
 694 491 619 623 466 624 c 0
 311 625 185 499 160 350 c 0
70 350 m 0
 100 546 270 710 474 710 c 0
 676 710 790 538 762 350 c 0
 732 154 562 -10 358 -10 c 0
 156 -10 42 162 70 350 c 0
333 808 m 1
 333 852 410 888 446 888 c 0
 498 887 511 840 558 842 c 0
 582 843 602 866 622 890 c 1
 662 846 l 1
 639 812 597 772 548 774 c 0
 502 776 481 821 439 820 c 0
 403 819 388 788 380 770 c 1
 333 808 l 1
EndSplineSet
EndChar

StartChar: Odieresis
Encoding: 214 214 207
Width: 766
VWidth: 0
Flags: HMW
LayerCount: 2
Fore
SplineSet
160 350 m 0
 138 209 213 77 366 76 c 0
 521 75 647 201 672 350 c 0
 694 491 619 623 466 624 c 0
 311 625 185 499 160 350 c 0
70 350 m 0
 100 546 270 710 474 710 c 0
 676 710 790 538 762 350 c 0
 732 154 562 -10 358 -10 c 0
 156 -10 42 162 70 350 c 0
540 826 m 0
 543 853 574 882 602 880 c 0
 630 878 651 852 648 824 c 0
 645 797 614 768 586 770 c 0
 558 772 537 798 540 826 c 0
346 826 m 0
 349 853 380 882 408 880 c 0
 436 878 457 852 454 824 c 0
 451 797 420 768 392 770 c 0
 364 772 343 798 346 826 c 0
EndSplineSet
EndChar

StartChar: Ugrave
Encoding: 217 217 208
Width: 607
VWidth: 0
Flags: HMW
LayerCount: 2
Fore
SplineSet
165 700 m 1
 249 700 l 1
 168 230 l 2
 156 144 189 71 286 70 c 0
 384 69 448 140 464 230 c 1
 544 700 l 1
 628 700 l 1
 548 230 l 2
 525 98 422 -10 278 -10 c 0
 137 -10 66 101 84 230 c 1
 165 700 l 1
306 921 m 1
 386 960 l 1
 506 799 l 1
 459 770 l 1
 306 921 l 1
EndSplineSet
EndChar

StartChar: Uacute
Encoding: 218 218 209
Width: 607
VWidth: 0
Flags: HMW
LayerCount: 2
Fore
SplineSet
165 700 m 1
 249 700 l 1
 168 230 l 2
 156 144 189 71 286 70 c 0
 384 69 448 140 464 230 c 1
 544 700 l 1
 628 700 l 1
 548 230 l 2
 525 98 422 -10 278 -10 c 0
 137 -10 66 101 84 230 c 1
 165 700 l 1
560 918 m 1
 362 771 l 1
 320 802 l 1
 492 960 l 1
 560 918 l 1
EndSplineSet
EndChar

StartChar: Ucircumflex
Encoding: 219 219 210
Width: 607
VWidth: 0
Flags: HMW
LayerCount: 2
Fore
SplineSet
165 700 m 1
 249 700 l 1
 168 230 l 2
 156 144 189 71 286 70 c 0
 384 69 448 140 464 230 c 1
 544 700 l 1
 628 700 l 1
 548 230 l 2
 525 98 422 -10 278 -10 c 0
 137 -10 66 101 84 230 c 1
 165 700 l 1
427 864 m 1
 303 770 l 1
 259 812 l 1
 437 950 l 1
 571 809 l 1
 517 770 l 1
 427 864 l 1
EndSplineSet
EndChar

StartChar: Udieresis
Encoding: 220 220 211
Width: 607
VWidth: 0
Flags: HMW
LayerCount: 2
Fore
SplineSet
165 700 m 1
 249 700 l 1
 168 230 l 2
 156 144 189 71 286 70 c 0
 384 69 448 140 464 230 c 1
 544 700 l 1
 628 700 l 1
 548 230 l 2
 525 98 422 -10 278 -10 c 0
 137 -10 66 101 84 230 c 1
 165 700 l 1
460 826 m 0
 463 853 494 882 522 880 c 0
 550 878 571 852 568 824 c 0
 565 797 534 768 506 770 c 0
 478 772 457 798 460 826 c 0
266 826 m 0
 269 853 300 882 328 880 c 0
 356 878 377 852 374 824 c 0
 371 797 340 768 312 770 c 0
 284 772 263 798 266 826 c 0
EndSplineSet
EndChar

StartChar: Yacute
Encoding: 221 221 212
Width: 544
VWidth: 0
Flags: HMW
LayerCount: 2
Fore
SplineSet
528 918 m 1
 330 770 l 1
 289 802 l 1
 460 960 l 1
 528 918 l 1
538 700 m 1
 634 700 l 1
 338 300 l 1
 286 0 l 1
 202 0 l 1
 256 304 l 1
 98 700 l 1
 189 700 l 1
 308 378 l 1
 538 700 l 1
EndSplineSet
EndChar

StartChar: agrave
Encoding: 224 224 213
Width: 553
VWidth: 0
Flags: HMW
LayerCount: 2
Fore
SplineSet
462 460 m 1
 538 460 l 1
 458 0 l 1
 386 0 l 1
 462 460 l 1
45 230 m 0
 65 366 176 471 306 470 c 0
 430 469 472 354 456 230 c 0
 438 99 352 -10 230 -10 c 0
 100 -10 27 100 45 230 c 0
125 230 m 0
 111 140 158 66 246 66 c 0
 326 66 406 138 420 230 c 0
 432 317 386 392 308 394 c 0
 218 396 140 324 125 230 c 0
198 681 m 1
 276 720 l 1
 397 559 l 1
 350 530 l 1
 198 681 l 1
EndSplineSet
Substitution2: "alt a" agrave.alt
EndChar

StartChar: aacute
Encoding: 225 225 214
Width: 553
VWidth: 0
Flags: HMW
LayerCount: 2
Fore
SplineSet
462 460 m 1
 538 460 l 1
 458 0 l 1
 386 0 l 1
 462 460 l 1
45 230 m 0
 65 366 176 471 306 470 c 0
 430 469 472 354 456 230 c 0
 438 99 352 -10 230 -10 c 0
 100 -10 27 100 45 230 c 0
125 230 m 0
 111 140 158 66 246 66 c 0
 326 66 406 138 420 230 c 0
 432 317 386 392 308 394 c 0
 218 396 140 324 125 230 c 0
471 678 m 1
 272 531 l 1
 230 562 l 1
 402 720 l 1
 471 678 l 1
EndSplineSet
Substitution2: "alt a" aacute.alt
EndChar

StartChar: acircumflex
Encoding: 226 226 215
Width: 553
VWidth: 0
Flags: HMW
LayerCount: 2
Fore
SplineSet
462 460 m 1
 538 460 l 1
 458 0 l 1
 386 0 l 1
 462 460 l 1
45 230 m 0
 65 366 176 471 306 470 c 0
 430 469 472 354 456 230 c 0
 438 99 352 -10 230 -10 c 0
 100 -10 27 100 45 230 c 0
125 230 m 0
 111 140 158 66 246 66 c 0
 326 66 406 138 420 230 c 0
 432 317 386 392 308 394 c 0
 218 396 140 324 125 230 c 0
357 624 m 1
 233 530 l 1
 188 572 l 1
 367 710 l 1
 501 569 l 1
 447 530 l 1
 357 624 l 1
EndSplineSet
Substitution2: "alt a" acircumflex.alt
EndChar

StartChar: atilde
Encoding: 227 227 216
Width: 553
VWidth: 0
Flags: HMW
LayerCount: 2
Fore
SplineSet
462 460 m 1
 538 460 l 1
 458 0 l 1
 386 0 l 1
 462 460 l 1
45 230 m 0
 65 366 176 471 306 470 c 0
 430 469 472 354 456 230 c 0
 438 99 352 -10 230 -10 c 0
 100 -10 27 100 45 230 c 0
125 230 m 0
 111 140 158 66 246 66 c 0
 326 66 406 138 420 230 c 0
 432 317 386 392 308 394 c 0
 218 396 140 324 125 230 c 0
184 568 m 1
 204 612 250 648 296 648 c 0
 348 648 362 600 409 602 c 0
 433 603 452 626 472 650 c 1
 512 606 l 1
 489 572 447 532 398 534 c 0
 352 536 332 581 290 580 c 0
 254 579 239 548 231 530 c 1
 184 568 l 1
EndSplineSet
Substitution2: "alt a" atilde.alt
EndChar

StartChar: adieresis
Encoding: 228 228 217
Width: 553
VWidth: 0
Flags: HMW
LayerCount: 2
Fore
SplineSet
462 460 m 1
 538 460 l 1
 458 0 l 1
 386 0 l 1
 462 460 l 1
45 230 m 0
 65 366 176 471 306 470 c 0
 430 469 472 354 456 230 c 0
 438 99 352 -10 230 -10 c 0
 100 -10 27 100 45 230 c 0
125 230 m 0
 111 140 158 66 246 66 c 0
 326 66 406 138 420 230 c 0
 432 317 386 392 308 394 c 0
 218 396 140 324 125 230 c 0
390 586 m 0
 393 613 424 642 452 640 c 0
 480 638 501 612 498 584 c 0
 495 557 464 528 436 530 c 0
 408 532 387 558 390 586 c 0
196 586 m 0
 199 613 230 642 258 640 c 0
 286 638 307 612 304 584 c 0
 301 557 270 528 242 530 c 0
 214 532 193 558 196 586 c 0
EndSplineSet
Substitution2: "alt a" adieresis.alt
EndChar

StartChar: aring
Encoding: 229 229 218
Width: 553
VWidth: 0
Flags: HMW
LayerCount: 2
Fore
SplineSet
462 460 m 1
 538 460 l 1
 458 0 l 1
 386 0 l 1
 462 460 l 1
45 230 m 0
 65 366 176 471 306 470 c 0
 430 469 472 354 456 230 c 0
 438 99 352 -10 230 -10 c 0
 100 -10 27 100 45 230 c 0
125 230 m 0
 111 140 158 66 246 66 c 0
 326 66 406 138 420 230 c 0
 432 317 386 392 308 394 c 0
 218 396 140 324 125 230 c 0
229 630 m 0
 237 685 291 729 344 729 c 0
 397 729 436 682 428 628 c 0
 420 573 367 530 314 530 c 0
 261 530 221 576 229 630 c 0
279 629 m 0
 276 603 294 577 318 577 c 0
 342 577 375 602 378 630 c 0
 381 656 364 682 340 682 c 0
 315 682 282 657 279 629 c 0
EndSplineSet
Substitution2: "alt a" aring.alt
EndChar

StartChar: germandbls
Encoding: 223 223 219
Width: 565
VWidth: 0
Flags: HMW
LayerCount: 2
Fore
SplineSet
342 -12 m 0
 280 -12 231 16 195 56 c 1
 244 116 l 1
 274 85 309 64 348 64 c 0
 408 64 452 113 452 171 c 0
 452 283 302 288 302 402 c 0
 302 506 466 536 466 645 c 0
 466 700 422 721 368 721 c 0
 292 721 241 677 227 588 c 2
 128 -2 l 1
 47 -2 l 1
 147 608 l 2
 163 711 245 794 381 794 c 0
 479 794 550 743 550 652 c 0
 550 496 390 486 390 402 c 0
 390 332 536 326 536 182 c 0
 536 74 451 -12 342 -12 c 0
EndSplineSet
EndChar

StartChar: ae
Encoding: 230 230 220
Width: 800
VWidth: 0
Flags: HMW
LayerCount: 2
Fore
SplineSet
183 -10 m 0
 74 -10 20 48 20 120 c 0
 20 211 105 286 226 286 c 0
 280 286 320 272 388 230 c 1
 348 230 l 1
 362 310 l 2
 370 370 335 400 283 400 c 0
 238 400 186 382 146 352 c 1
 107 413 l 1
 157 450 219 470 283 470 c 0
 374 470 430 430 424 356 c 1
 404 341 l 1
 440 412 516 470 613 470 c 0
 715 470 786 393 786 269 c 0
 786 243 782 224 776 210 c 1
 404 210 l 1
 426 229 l 1
 411 141 446 65 538 65 c 0
 600 65 653 92 687 148 c 1
 752 107 l 1
 702 30 617 -10 533 -10 c 0
 443 -10 388 26 360 110 c 1
 375 110 l 1
 348 36 283 -10 183 -10 c 0
198 61 m 0
 278 61 327 102 354 192 c 1
 346 116 l 1
 346 221 l 1
 354 194 l 1
 318 214 276 225 230 225 c 0
 157 225 101 189 101 130 c 0
 101 79 131 61 198 61 c 0
426 239 m 1
 404 278 l 1
 726 278 l 1
 702 250 l 1
 704 254 704 258 704 266 c 0
 704 348 677 400 596 400 c 0
 508 400 451 337 426 239 c 1
EndSplineSet
EndChar

StartChar: ccedilla
Encoding: 231 231 221
Width: 463
VWidth: 0
Flags: HMW
LayerCount: 2
Fore
SplineSet
120 230 m 0
 106 145 152 68 242 66 c 0
 314 65 378 104 414 148 c 1
 398 48 l 1
 357 12 296 -10 234 -10 c 0
 100 -10 22 102 40 230 c 0
 60 363 174 470 310 470 c 0
 369 470 424 448 458 410 c 1
 442 311 l 1
 422 361 370 394 304 394 c 0
 212 394 136 320 120 230 c 0
232 58 m 1
 292 58 l 1
 211 -53 l 1
 213 -53 216 -53 218 -53 c 0
 254 -57 283 -84 278 -128 c 0
 271 -184 214 -220 160 -220 c 0
 124 -220 103 -207 77 -182 c 1
 116 -144 l 1
 132 -158 144 -167 166 -167 c 0
 194 -167 220 -149 223 -126 c 0
 226 -104 208 -91 182 -91 c 0
 166 -90 141 -98 121 -108 c 1
 232 58 l 1
EndSplineSet
EndChar

StartChar: egrave
Encoding: 232 232 222
Width: 499
VWidth: 0
Flags: HMW
LayerCount: 2
Fore
SplineSet
92 210 m 1
 103 278 l 1
 400 278 l 1
 401 344 376 399 299 400 c 0
 216 401 149 339 132 260 c 1
 125 230 l 1
 112 141 144 68 236 66 c 0
 302 65 353 103 391 148 c 1
 450 106 l 1
 394 40 327 -11 220 -10 c 0
 92 -8 29 106 45 230 c 0
 47 247 51 263 57 279 c 0
 91 386 188 470 306 470 c 0
 439 470 496 362 480 234 c 0
 479 226 478 218 476 210 c 1
 92 210 l 1
209 691 m 1
 288 730 l 1
 408 569 l 1
 362 540 l 1
 209 691 l 1
EndSplineSet
EndChar

StartChar: eacute
Encoding: 233 233 223
Width: 499
VWidth: 0
Flags: HMW
LayerCount: 2
Fore
SplineSet
92 210 m 1
 103 278 l 1
 400 278 l 1
 401 344 376 399 299 400 c 0
 216 401 149 339 132 260 c 1
 125 230 l 1
 112 141 144 68 236 66 c 0
 302 65 353 103 391 148 c 1
 450 106 l 1
 394 40 327 -11 220 -10 c 0
 92 -8 29 106 45 230 c 0
 47 247 51 263 57 279 c 0
 91 386 188 470 306 470 c 0
 439 470 496 362 480 234 c 0
 479 226 478 218 476 210 c 1
 92 210 l 1
502 688 m 1
 303 541 l 1
 262 572 l 1
 433 730 l 1
 502 688 l 1
EndSplineSet
EndChar

StartChar: ecircumflex
Encoding: 234 234 224
Width: 499
VWidth: 0
Flags: HMW
LayerCount: 2
Fore
SplineSet
92 210 m 1
 103 278 l 1
 400 278 l 1
 401 344 376 399 299 400 c 0
 216 401 149 339 132 260 c 1
 125 230 l 1
 112 141 144 68 236 66 c 0
 302 65 353 103 391 148 c 1
 450 106 l 1
 394 40 327 -11 220 -10 c 0
 92 -8 29 106 45 230 c 0
 47 247 51 263 57 279 c 0
 91 386 188 470 306 470 c 0
 439 470 496 362 480 234 c 0
 479 226 478 218 476 210 c 1
 92 210 l 1
338 624 m 1
 214 530 l 1
 170 572 l 1
 348 710 l 1
 482 569 l 1
 428 530 l 1
 338 624 l 1
EndSplineSet
EndChar

StartChar: edieresis
Encoding: 235 235 225
Width: 499
VWidth: 0
Flags: HMW
LayerCount: 2
Fore
SplineSet
92 210 m 1
 103 278 l 1
 400 278 l 1
 401 344 376 399 299 400 c 0
 216 401 149 339 132 260 c 1
 125 230 l 1
 112 141 144 68 236 66 c 0
 302 65 353 103 391 148 c 1
 450 106 l 1
 394 40 327 -11 220 -10 c 0
 92 -8 29 106 45 230 c 0
 47 247 51 263 57 279 c 0
 91 386 188 470 306 470 c 0
 439 470 496 362 480 234 c 0
 479 226 478 218 476 210 c 1
 92 210 l 1
371 586 m 0
 374 613 405 642 433 640 c 0
 461 638 482 612 479 584 c 0
 476 557 445 528 417 530 c 0
 389 532 368 558 371 586 c 0
177 586 m 0
 180 613 211 642 239 640 c 0
 267 638 288 612 285 584 c 0
 282 557 250 528 222 530 c 0
 194 532 174 558 177 586 c 0
EndSplineSet
EndChar

StartChar: igrave
Encoding: 236 236 226
Width: 252
VWidth: 0
Flags: HMW
LayerCount: 2
Fore
SplineSet
137 460 m 1
 218 460 l 1
 138 0 l 1
 60 0 l 1
 137 460 l 1
62 701 m 1
 142 740 l 1
 262 579 l 1
 214 550 l 1
 62 701 l 1
EndSplineSet
EndChar

StartChar: dotlessi
Encoding: 305 305 227
Width: 252
VWidth: 0
Flags: HMW
LayerCount: 2
Fore
SplineSet
137 460 m 1
 218 460 l 1
 138 0 l 1
 60 0 l 1
 137 460 l 1
EndSplineSet
EndChar

StartChar: kgreenlandic
Encoding: 312 312 228
Width: 426
VWidth: 0
Flags: HMW
LayerCount: 2
Fore
SplineSet
118 460 m 1
 198 460 l 1
 118 0 l 1
 41 0 l 1
 118 460 l 1
360 460 m 1
 462 460 l 1
 232 268 l 1
 398 0 l 1
 304 0 l 1
 136 272 l 1
 360 460 l 1
EndSplineSet
EndChar

StartChar: iacute
Encoding: 237 237 229
Width: 252
VWidth: 0
Flags: HMW
LayerCount: 2
Fore
SplineSet
137 460 m 1
 218 460 l 1
 138 0 l 1
 60 0 l 1
 137 460 l 1
374 698 m 1
 176 551 l 1
 134 582 l 1
 306 740 l 1
 374 698 l 1
EndSplineSet
EndChar

StartChar: icircumflex
Encoding: 238 238 230
Width: 252
VWidth: 0
Flags: HMW
LayerCount: 2
Fore
SplineSet
137 460 m 1
 218 460 l 1
 138 0 l 1
 60 0 l 1
 137 460 l 1
210 634 m 1
 86 540 l 1
 42 582 l 1
 220 720 l 1
 354 579 l 1
 300 540 l 1
 210 634 l 1
EndSplineSet
EndChar

StartChar: idieresis
Encoding: 239 239 231
Width: 252
VWidth: 0
Flags: HMW
LayerCount: 2
Fore
SplineSet
137 460 m 1
 218 460 l 1
 138 0 l 1
 60 0 l 1
 137 460 l 1
247 616 m 0
 250 643 281 672 309 670 c 0
 337 668 358 642 355 614 c 0
 352 587 321 558 293 560 c 0
 265 562 244 588 247 616 c 0
53 616 m 0
 56 643 87 672 115 670 c 0
 143 668 164 642 161 614 c 0
 158 587 127 558 99 560 c 0
 71 562 50 588 53 616 c 0
EndSplineSet
EndChar

StartChar: ntilde
Encoding: 241 241 232
Width: 509
VWidth: 0
Flags: HMW
LayerCount: 2
Fore
SplineSet
203 460 m 1
 124 0 l 1
 44 0 l 1
 124 460 l 1
 203 460 l 1
380 280 m 2
 388 342 373 392 307 394 c 0
 237 396 188 341 172 281 c 1
 136 281 l 1
 156 380 232 470 334 470 c 0
 434 470 472 390 460 290 c 1
 410 0 l 1
 332 0 l 1
 380 280 l 2
164 568 m 1
 184 610 229 650 277 648 c 0
 329 647 344 600 390 602 c 0
 414 603 433 626 453 650 c 1
 492 606 l 1
 469 572 428 532 379 534 c 0
 333 536 312 581 270 580 c 0
 234 579 220 548 212 530 c 1
 164 568 l 1
EndSplineSet
EndChar

StartChar: ograve
Encoding: 242 242 233
Width: 529
VWidth: 0
Flags: HMW
LayerCount: 2
Fore
SplineSet
45 230 m 0
 65 362 179 470 315 470 c 0
 449 470 527 358 509 230 c 0
 489 98 375 -10 239 -10 c 0
 105 -10 27 102 45 230 c 0
125 230 m 0
 111 146 156 66 246 66 c 0
 338 66 414 140 429 230 c 0
 443 314 398 394 308 394 c 0
 216 394 140 320 125 230 c 0
201 701 m 1
 280 740 l 1
 400 579 l 1
 354 550 l 1
 201 701 l 1
EndSplineSet
EndChar

StartChar: oacute
Encoding: 243 243 234
Width: 529
VWidth: 0
Flags: HMW
LayerCount: 2
Fore
SplineSet
45 230 m 0
 65 362 179 470 315 470 c 0
 449 470 527 358 509 230 c 0
 489 98 375 -10 239 -10 c 0
 105 -10 27 102 45 230 c 0
125 230 m 0
 111 146 156 66 246 66 c 0
 338 66 414 140 429 230 c 0
 443 314 398 394 308 394 c 0
 216 394 140 320 125 230 c 0
513 698 m 1
 314 551 l 1
 273 582 l 1
 444 740 l 1
 513 698 l 1
EndSplineSet
EndChar

StartChar: ocircumflex
Encoding: 244 244 235
Width: 529
VWidth: 0
Flags: HMW
LayerCount: 2
Fore
SplineSet
45 230 m 0
 65 362 179 470 315 470 c 0
 449 470 527 358 509 230 c 0
 489 98 375 -10 239 -10 c 0
 105 -10 27 102 45 230 c 0
125 230 m 0
 111 146 156 66 246 66 c 0
 338 66 414 140 429 230 c 0
 443 314 398 394 308 394 c 0
 216 394 140 320 125 230 c 0
350 644 m 1
 226 550 l 1
 182 592 l 1
 360 730 l 1
 494 589 l 1
 441 550 l 1
 350 644 l 1
EndSplineSet
EndChar

StartChar: otilde
Encoding: 245 245 236
Width: 529
VWidth: 0
Flags: HMW
LayerCount: 2
Fore
SplineSet
45 230 m 0
 65 362 179 470 315 470 c 0
 449 470 527 358 509 230 c 0
 489 98 375 -10 239 -10 c 0
 105 -10 27 102 45 230 c 0
125 230 m 0
 111 146 156 66 246 66 c 0
 338 66 414 140 429 230 c 0
 443 314 398 394 308 394 c 0
 216 394 140 320 125 230 c 0
174 568 m 1
 174 612 250 648 286 648 c 0
 338 647 352 600 399 602 c 0
 423 603 442 626 462 650 c 1
 502 606 l 1
 479 572 438 532 389 534 c 0
 343 536 322 581 280 580 c 0
 244 579 229 548 221 530 c 1
 174 568 l 1
EndSplineSet
EndChar

StartChar: odieresis
Encoding: 246 246 237
Width: 529
VWidth: 0
Flags: HMW
LayerCount: 2
Fore
SplineSet
45 230 m 0
 65 362 179 470 315 470 c 0
 449 470 527 358 509 230 c 0
 489 98 375 -10 239 -10 c 0
 105 -10 27 102 45 230 c 0
125 230 m 0
 111 146 156 66 246 66 c 0
 338 66 414 140 429 230 c 0
 443 314 398 394 308 394 c 0
 216 394 140 320 125 230 c 0
386 616 m 0
 389 643 420 672 448 670 c 0
 476 668 497 642 494 614 c 0
 491 587 460 558 432 560 c 0
 404 562 383 588 386 616 c 0
192 616 m 0
 195 643 226 672 254 670 c 0
 282 668 303 642 300 614 c 0
 297 587 266 558 238 560 c 0
 210 562 189 588 192 616 c 0
EndSplineSet
EndChar

StartChar: ugrave
Encoding: 249 249 238
Width: 509
VWidth: 0
Flags: HMW
LayerCount: 2
Fore
SplineSet
330 0 m 1
 410 460 l 1
 490 460 l 1
 410 0 l 1
 330 0 l 1
154 180 m 2
 146 118 160 68 226 66 c 0
 296 64 346 119 362 179 c 1
 398 179 l 1
 378 80 302 -10 200 -10 c 0
 100 -10 62 70 74 170 c 1
 124 460 l 1
 202 460 l 1
 154 180 l 2
230 701 m 1
 309 740 l 1
 430 579 l 1
 382 550 l 1
 230 701 l 1
EndSplineSet
EndChar

StartChar: uacute
Encoding: 250 250 239
Width: 509
VWidth: 0
Flags: HMW
LayerCount: 2
Fore
SplineSet
330 0 m 1
 410 460 l 1
 490 460 l 1
 410 0 l 1
 330 0 l 1
154 180 m 2
 146 118 160 68 226 66 c 0
 296 64 346 119 362 179 c 1
 398 179 l 1
 378 80 302 -10 200 -10 c 0
 100 -10 62 70 74 170 c 1
 124 460 l 1
 202 460 l 1
 154 180 l 2
464 698 m 1
 265 550 l 1
 224 582 l 1
 396 740 l 1
 464 698 l 1
EndSplineSet
EndChar

StartChar: ucircumflex
Encoding: 251 251 240
Width: 509
VWidth: 0
Flags: HMW
LayerCount: 2
Fore
SplineSet
330 0 m 1
 410 460 l 1
 490 460 l 1
 410 0 l 1
 330 0 l 1
154 180 m 2
 146 118 160 68 226 66 c 0
 296 64 346 119 362 179 c 1
 398 179 l 1
 378 80 302 -10 200 -10 c 0
 100 -10 62 70 74 170 c 1
 124 460 l 1
 202 460 l 1
 154 180 l 2
340 644 m 1
 216 550 l 1
 172 592 l 1
 350 730 l 1
 484 589 l 1
 430 550 l 1
 340 644 l 1
EndSplineSet
EndChar

StartChar: udieresis
Encoding: 252 252 241
Width: 509
VWidth: 0
Flags: HMW
LayerCount: 2
Fore
SplineSet
330 0 m 1
 410 460 l 1
 490 460 l 1
 410 0 l 1
 330 0 l 1
154 180 m 2
 146 118 160 68 226 66 c 0
 296 64 346 119 362 179 c 1
 398 179 l 1
 378 80 302 -10 200 -10 c 0
 100 -10 62 70 74 170 c 1
 124 460 l 1
 202 460 l 1
 154 180 l 2
374 606 m 0
 377 632 408 662 436 660 c 0
 464 658 485 632 482 604 c 0
 479 577 447 548 419 550 c 0
 390 552 371 578 374 606 c 0
180 606 m 0
 183 632 214 662 242 660 c 0
 270 658 291 632 288 604 c 0
 285 577 253 548 225 550 c 0
 196 552 177 578 180 606 c 0
EndSplineSet
EndChar

StartChar: yacute
Encoding: 253 253 242
Width: 426
VWidth: 0
Flags: HMW
LayerCount: 2
Fore
SplineSet
481 460 m 1
 72 -220 l 1
 -18 -220 l 1
 156 68 l 1
 52 460 l 1
 144 460 l 1
 224 100 l 1
 192 104 l 1
 390 460 l 1
 481 460 l 1
432 698 m 1
 234 551 l 1
 192 582 l 1
 364 740 l 1
 432 698 l 1
EndSplineSet
EndChar

StartChar: thorn
Encoding: 254 254 243
Width: 553
VWidth: 0
Flags: HMW
LayerCount: 2
Fore
SplineSet
82 -220 m 1
 2 -220 l 1
 174 780 l 1
 252 780 l 1
 82 -220 l 1
532 230 m 0
 512 94 402 -11 272 -10 c 0
 148 -9 106 106 122 230 c 0
 140 361 226 470 348 470 c 0
 478 470 550 360 532 230 c 0
452 230 m 0
 466 320 420 394 332 394 c 0
 252 394 172 322 158 230 c 0
 146 143 192 68 270 66 c 0
 360 64 437 136 452 230 c 0
EndSplineSet
EndChar

StartChar: ydieresis
Encoding: 255 255 244
Width: 426
VWidth: 0
Flags: HMW
LayerCount: 2
Fore
SplineSet
481 460 m 1
 72 -220 l 1
 -18 -220 l 1
 156 68 l 1
 52 460 l 1
 144 460 l 1
 224 100 l 1
 192 104 l 1
 390 460 l 1
 481 460 l 1
330 586 m 0
 333 613 364 642 392 640 c 0
 420 638 440 612 437 584 c 0
 434 557 403 528 375 530 c 0
 347 532 327 558 330 586 c 0
136 586 m 0
 139 613 170 642 198 640 c 0
 226 638 246 612 243 584 c 0
 240 557 209 528 181 530 c 0
 153 532 133 558 136 586 c 0
EndSplineSet
EndChar

StartChar: Amacron
Encoding: 256 256 245
Width: 640
VWidth: 0
Flags: HMW
LayerCount: 2
Fore
SplineSet
152 211 m 1
 193 290 l 1
 496 290 l 1
 512 210 l 1
 152 211 l 1
388 542 m 1
 226 264 l 1
 215 246 l 1
 71 0 l 1
 -25 0 l 1
 418 736 l 1
 608 0 l 1
 516 0 l 1
 458 240 l 1
 454 260 l 1
 388 542 l 1
260 796 m 1
 272 870 l 1
 613 870 l 1
 600 795 l 1
 260 796 l 1
EndSplineSet
EndChar

StartChar: amacron
Encoding: 257 257 246
Width: 553
VWidth: 0
Flags: HMW
LayerCount: 2
Fore
SplineSet
462 460 m 1
 538 460 l 1
 458 0 l 1
 386 0 l 1
 462 460 l 1
45 230 m 0
 65 366 176 471 306 470 c 0
 430 469 472 354 456 230 c 0
 438 99 352 -10 230 -10 c 0
 100 -10 27 100 45 230 c 0
125 230 m 0
 111 140 158 66 246 66 c 0
 326 66 406 138 420 230 c 0
 432 317 386 392 308 394 c 0
 218 396 140 324 125 230 c 0
159 540 m 1
 171 615 l 1
 512 615 l 1
 500 540 l 1
 159 540 l 1
EndSplineSet
Substitution2: "alt a" amacron.alt
EndChar

StartChar: breve
Encoding: 728 728 247
Width: 529
VWidth: 0
Flags: HMW
LayerCount: 2
Fore
SplineSet
224 850 m 1
 294 850 l 1
 293 817 306 776 364 776 c 0
 424 776 450 818 462 850 c 1
 532 849 l 1
 514 777 457 710 360 710 c 0
 264 710 220 776 224 850 c 1
EndSplineSet
EndChar

StartChar: Abreve
Encoding: 258 258 248
Width: 640
VWidth: 0
Flags: HMW
LayerCount: 2
Fore
SplineSet
152 211 m 1
 193 290 l 1
 496 290 l 1
 512 210 l 1
 152 211 l 1
388 542 m 1
 226 264 l 1
 215 246 l 1
 71 0 l 1
 -25 0 l 1
 418 736 l 1
 608 0 l 1
 516 0 l 1
 458 240 l 1
 454 260 l 1
 388 542 l 1
298 935 m 1
 368 934 l 1
 366 901 379 860 437 860 c 0
 497 860 522 902 536 934 c 1
 606 934 l 1
 587 862 529 796 432 796 c 0
 336 796 292 861 298 935 c 1
EndSplineSet
EndChar

StartChar: abreve
Encoding: 259 259 249
Width: 553
VWidth: 0
Flags: HMW
LayerCount: 2
Fore
SplineSet
462 460 m 1
 538 460 l 1
 458 0 l 1
 386 0 l 1
 462 460 l 1
45 230 m 0
 65 366 176 471 306 470 c 0
 430 469 472 354 456 230 c 0
 438 99 352 -10 230 -10 c 0
 100 -10 27 100 45 230 c 0
125 230 m 0
 111 140 158 66 246 66 c 0
 326 66 406 138 420 230 c 0
 432 317 386 392 308 394 c 0
 218 396 140 324 125 230 c 0
168 670 m 1
 237 669 l 1
 236 636 250 595 308 595 c 0
 368 595 394 637 406 669 c 1
 476 668 l 1
 458 596 400 530 303 530 c 0
 207 530 164 596 168 670 c 1
EndSplineSet
Substitution2: "alt a" abreve.alt
EndChar

StartChar: Aogonek
Encoding: 260 260 250
Width: 640
VWidth: 0
Flags: HMW
LayerCount: 2
Fore
SplineSet
152 211 m 1
 193 290 l 1
 496 290 l 1
 512 210 l 1
 152 211 l 1
388 542 m 1
 226 264 l 1
 215 246 l 1
 71 0 l 1
 -25 0 l 1
 418 736 l 1
 608 0 l 1
 516 0 l 1
 458 240 l 1
 454 260 l 1
 388 542 l 1
590 -130 m 1
 615 -182 l 1
 593 -202 563 -220 524 -220 c 0
 452 -221 411 -180 420 -120 c 0
 431 -54 505 -9 571 24 c 1
 610 0 l 1
 564 -22 508 -56 501 -100 c 0
 498 -129 510 -148 538 -150 c 0
 560 -152 576 -140 590 -130 c 1
EndSplineSet
EndChar

StartChar: aogonek
Encoding: 261 261 251
Width: 553
VWidth: 0
Flags: HMW
LayerCount: 2
Fore
SplineSet
462 460 m 1
 538 460 l 1
 458 0 l 1
 386 0 l 1
 462 460 l 1
45 230 m 0
 65 366 176 471 306 470 c 0
 430 469 472 354 456 230 c 0
 438 99 352 -10 230 -10 c 0
 100 -10 27 100 45 230 c 0
125 230 m 0
 111 140 158 66 246 66 c 0
 326 66 406 138 420 230 c 0
 432 317 386 392 308 394 c 0
 218 396 140 324 125 230 c 0
440 -130 m 1
 464 -182 l 1
 442 -202 413 -220 374 -220 c 0
 302 -221 260 -180 269 -120 c 0
 280 -54 354 -9 420 24 c 1
 459 0 l 1
 413 -22 358 -56 351 -100 c 0
 348 -129 360 -148 388 -150 c 0
 410 -152 426 -140 440 -130 c 1
EndSplineSet
Substitution2: "alt a" aogonek.alt
EndChar

StartChar: Cacute
Encoding: 262 262 252
Width: 664
VWidth: 0
Flags: HMW
LayerCount: 2
Fore
SplineSet
160 350 m 0
 138 208 217 78 361 76 c 0
 457 75 539 120 600 178 c 1
 582 66 l 1
 517 17 446 -10 352 -10 c 0
 156 -9 42 162 70 350 c 0
 100 548 271 709 470 710 c 0
 559 710 622 685 678 632 c 1
 660 521 l 1
 617 586 549 624 461 624 c 0
 315 624 185 501 160 350 c 0
635 918 m 1
 436 771 l 1
 395 802 l 1
 566 960 l 1
 635 918 l 1
EndSplineSet
EndChar

StartChar: cacute
Encoding: 263 263 253
Width: 463
VWidth: 0
Flags: HMW
LayerCount: 2
Fore
SplineSet
120 230 m 0
 106 145 152 68 242 66 c 0
 314 65 378 104 414 148 c 1
 398 48 l 1
 357 12 296 -10 234 -10 c 0
 100 -10 22 102 40 230 c 0
 60 363 174 470 310 470 c 0
 369 470 424 448 458 410 c 1
 442 311 l 1
 422 361 370 394 304 394 c 0
 212 394 136 320 120 230 c 0
476 678 m 1
 277 531 l 1
 236 562 l 1
 407 720 l 1
 476 678 l 1
EndSplineSet
EndChar

StartChar: Ccircumflex
Encoding: 264 264 254
Width: 664
VWidth: 0
Flags: HMW
LayerCount: 2
Fore
SplineSet
160 350 m 0
 138 208 217 78 361 76 c 0
 457 75 539 120 600 178 c 1
 582 66 l 1
 517 17 446 -10 352 -10 c 0
 156 -9 42 162 70 350 c 0
 100 548 271 709 470 710 c 0
 559 710 622 685 678 632 c 1
 660 521 l 1
 617 586 549 624 461 624 c 0
 315 624 185 501 160 350 c 0
502 864 m 1
 378 770 l 1
 334 812 l 1
 512 950 l 1
 646 809 l 1
 592 770 l 1
 502 864 l 1
EndSplineSet
EndChar

StartChar: ccircumflex
Encoding: 265 265 255
Width: 463
VWidth: 0
Flags: HMW
LayerCount: 2
Fore
SplineSet
120 230 m 0
 106 145 152 68 242 66 c 0
 314 65 378 104 414 148 c 1
 398 48 l 1
 357 12 296 -10 234 -10 c 0
 100 -10 22 102 40 230 c 0
 60 363 174 470 310 470 c 0
 369 470 424 448 458 410 c 1
 442 311 l 1
 422 361 370 394 304 394 c 0
 212 394 136 320 120 230 c 0
342 624 m 1
 218 530 l 1
 174 572 l 1
 352 710 l 1
 486 569 l 1
 432 530 l 1
 342 624 l 1
EndSplineSet
EndChar

StartChar: Cdotaccent
Encoding: 266 266 256
Width: 664
VWidth: 0
Flags: HMW
LayerCount: 2
Fore
SplineSet
160 350 m 0
 138 208 217 78 361 76 c 0
 457 75 539 120 600 178 c 1
 582 66 l 1
 517 17 446 -10 352 -10 c 0
 156 -9 42 162 70 350 c 0
 100 548 271 709 470 710 c 0
 559 710 622 685 678 632 c 1
 660 521 l 1
 617 586 549 624 461 624 c 0
 315 624 185 501 160 350 c 0
438 826 m 0
 441 853 472 882 500 880 c 0
 528 878 549 852 546 824 c 0
 543 797 512 768 484 770 c 0
 456 772 435 798 438 826 c 0
EndSplineSet
EndChar

StartChar: cdotaccent
Encoding: 267 267 257
Width: 463
VWidth: 0
Flags: HMW
LayerCount: 2
Fore
SplineSet
120 230 m 0
 106 145 152 68 242 66 c 0
 314 65 378 104 414 148 c 1
 398 48 l 1
 357 12 296 -10 234 -10 c 0
 100 -10 22 102 40 230 c 0
 60 363 174 470 310 470 c 0
 369 470 424 448 458 410 c 1
 442 311 l 1
 422 361 370 394 304 394 c 0
 212 394 136 320 120 230 c 0
279 586 m 0
 282 613 313 642 341 640 c 0
 369 638 389 612 386 584 c 0
 383 557 352 528 324 530 c 0
 296 532 276 558 279 586 c 0
EndSplineSet
EndChar

StartChar: Ccaron
Encoding: 268 268 258
Width: 664
VWidth: 0
Flags: HMW
LayerCount: 2
Fore
SplineSet
160 350 m 0
 138 208 217 78 361 76 c 0
 457 75 539 120 600 178 c 1
 582 66 l 1
 517 17 446 -10 352 -10 c 0
 156 -9 42 162 70 350 c 0
 100 548 271 709 470 710 c 0
 559 710 622 685 678 632 c 1
 660 521 l 1
 617 586 549 624 461 624 c 0
 315 624 185 501 160 350 c 0
494 856 m 1
 618 950 l 1
 662 908 l 1
 484 770 l 1
 350 911 l 1
 404 950 l 1
 494 856 l 1
EndSplineSet
EndChar

StartChar: ccaron
Encoding: 269 269 259
Width: 463
VWidth: 0
Flags: HMW
LayerCount: 2
Fore
SplineSet
120 230 m 0
 106 145 152 68 242 66 c 0
 314 65 378 104 414 148 c 1
 398 48 l 1
 357 12 296 -10 234 -10 c 0
 100 -10 22 102 40 230 c 0
 60 363 174 470 310 470 c 0
 369 470 424 448 458 410 c 1
 442 311 l 1
 422 361 370 394 304 394 c 0
 212 394 136 320 120 230 c 0
336 616 m 1
 459 710 l 1
 504 668 l 1
 326 530 l 1
 191 671 l 1
 245 710 l 1
 336 616 l 1
EndSplineSet
EndChar

StartChar: Dcaron
Encoding: 270 270 260
Width: 659
VWidth: 0
Flags: HMW
LayerCount: 2
Fore
SplineSet
168 700 m 1
 254 700 l 1
 133 0 l 1
 51 0 l 1
 168 700 l 1
258 0 m 1
 95 0 l 1
 110 85 l 1
 266 85 l 1
 424 88 544 196 570 350 c 0
 594 497 516 611 362 615 c 1
 200 615 l 1
 215 700 l 1
 370 700 l 1
 570 696 682 542 654 350 c 0
 623 150 462 3 258 0 c 1
436 856 m 1
 560 950 l 1
 604 908 l 1
 426 770 l 1
 292 911 l 1
 346 950 l 1
 436 856 l 1
EndSplineSet
EndChar

StartChar: dcaron
Encoding: 271 271 261
Width: 553
VWidth: 0
Flags: HMW
LayerCount: 2
Fore
SplineSet
512 780 m 1
 593 780 l 1
 458 0 l 1
 380 0 l 1
 512 780 l 1
45 230 m 0
 65 366 176 471 306 470 c 0
 430 469 472 354 456 230 c 0
 438 99 352 -10 230 -10 c 0
 100 -10 27 100 45 230 c 0
125 230 m 0
 111 140 158 66 246 66 c 0
 326 66 406 138 420 230 c 0
 432 317 386 392 308 394 c 0
 218 396 140 324 125 230 c 0
704 779 m 1
 780 748 l 1
 630 501 l 1
 575 522 l 1
 704 779 l 1
EndSplineSet
EndChar

StartChar: Dcroat
Encoding: 272 272 262
Width: 659
VWidth: 0
Flags: HMW
LayerCount: 2
Fore
SplineSet
31 310 m 1
 44 385 l 1
 336 385 l 1
 324 310 l 1
 31 310 l 1
168 700 m 1
 254 700 l 1
 133 0 l 1
 51 0 l 1
 168 700 l 1
258 0 m 1
 95 0 l 1
 110 85 l 1
 266 85 l 1
 424 88 544 196 570 350 c 0
 594 497 516 611 362 615 c 1
 200 615 l 1
 215 700 l 1
 370 700 l 1
 570 696 682 542 654 350 c 0
 623 150 462 3 258 0 c 1
EndSplineSet
EndChar

StartChar: dcroat
Encoding: 273 273 263
Width: 553
VWidth: 0
Flags: HMW
LayerCount: 2
Fore
SplineSet
360 590 m 1
 372 665 l 1
 666 665 l 1
 652 590 l 1
 360 590 l 1
512 780 m 1
 593 780 l 1
 458 0 l 1
 380 0 l 1
 512 780 l 1
45 230 m 0
 65 366 176 471 306 470 c 0
 430 469 472 354 456 230 c 0
 438 99 352 -10 230 -10 c 0
 100 -10 27 100 45 230 c 0
125 230 m 0
 111 140 158 66 246 66 c 0
 326 66 406 138 420 230 c 0
 432 317 386 392 308 394 c 0
 218 396 140 324 125 230 c 0
EndSplineSet
EndChar

StartChar: Emacron
Encoding: 274 274 264
Width: 533
VWidth: 0
Flags: HMW
LayerCount: 2
Fore
SplineSet
96 0 m 1
 110 80 l 1
 454 80 l 1
 440 0 l 1
 96 0 l 1
202 620 m 1
 216 700 l 1
 560 700 l 1
 546 620 l 1
 202 620 l 1
154 340 m 1
 168 420 l 1
 492 420 l 1
 479 340 l 1
 154 340 l 1
168 700 m 1
 254 700 l 1
 133 0 l 1
 51 0 l 1
 168 700 l 1
206 770 m 1
 219 845 l 1
 560 845 l 1
 548 770 l 1
 206 770 l 1
EndSplineSet
EndChar

StartChar: emacron
Encoding: 275 275 265
Width: 499
VWidth: 0
Flags: HMW
LayerCount: 2
Fore
SplineSet
92 210 m 1
 103 278 l 1
 400 278 l 1
 401 344 376 399 299 400 c 0
 216 401 149 339 132 260 c 1
 125 230 l 1
 112 141 144 68 236 66 c 0
 302 65 353 103 391 148 c 1
 450 106 l 1
 394 40 327 -11 220 -10 c 0
 92 -8 29 106 45 230 c 0
 47 247 51 263 57 279 c 0
 91 386 188 470 306 470 c 0
 439 470 496 362 480 234 c 0
 479 226 478 218 476 210 c 1
 92 210 l 1
149 530 m 1
 162 605 l 1
 502 605 l 1
 490 530 l 1
 149 530 l 1
EndSplineSet
EndChar

StartChar: Ebreve
Encoding: 276 276 266
Width: 533
VWidth: 0
Flags: HMW
LayerCount: 2
Fore
SplineSet
96 0 m 1
 110 80 l 1
 454 80 l 1
 440 0 l 1
 96 0 l 1
202 620 m 1
 216 700 l 1
 560 700 l 1
 546 620 l 1
 202 620 l 1
154 340 m 1
 168 420 l 1
 492 420 l 1
 479 340 l 1
 154 340 l 1
168 700 m 1
 254 700 l 1
 133 0 l 1
 51 0 l 1
 168 700 l 1
246 910 m 1
 314 910 l 1
 312 877 326 836 384 836 c 0
 444 836 469 878 483 910 c 1
 554 909 l 1
 535 837 475 770 378 770 c 0
 282 770 240 836 246 910 c 1
EndSplineSet
EndChar

StartChar: ebreve
Encoding: 277 277 267
Width: 499
VWidth: 0
Flags: HMW
LayerCount: 2
Fore
SplineSet
92 210 m 1
 103 278 l 1
 400 278 l 1
 401 344 376 399 299 400 c 0
 216 401 149 339 132 260 c 1
 125 230 l 1
 112 141 144 68 236 66 c 0
 302 65 353 103 391 148 c 1
 450 106 l 1
 394 40 327 -11 220 -10 c 0
 92 -8 29 106 45 230 c 0
 47 247 51 263 57 279 c 0
 91 386 188 470 306 470 c 0
 439 470 496 362 480 234 c 0
 479 226 478 218 476 210 c 1
 92 210 l 1
188 670 m 1
 258 670 l 1
 256 637 269 596 327 596 c 0
 387 596 412 638 426 670 c 1
 496 669 l 1
 477 597 418 530 321 530 c 0
 225 530 182 596 188 670 c 1
EndSplineSet
EndChar

StartChar: Edotaccent
Encoding: 278 278 268
Width: 533
VWidth: 0
Flags: HMW
LayerCount: 2
Fore
SplineSet
96 0 m 1
 110 80 l 1
 454 80 l 1
 440 0 l 1
 96 0 l 1
202 620 m 1
 216 700 l 1
 560 700 l 1
 546 620 l 1
 202 620 l 1
154 340 m 1
 168 420 l 1
 492 420 l 1
 479 340 l 1
 154 340 l 1
168 700 m 1
 254 700 l 1
 133 0 l 1
 51 0 l 1
 168 700 l 1
332 826 m 0
 335 853 366 882 394 880 c 0
 422 878 443 852 440 824 c 0
 437 797 405 768 377 770 c 0
 349 772 329 798 332 826 c 0
EndSplineSet
EndChar

StartChar: edotaccent
Encoding: 279 279 269
Width: 499
VWidth: 0
Flags: HMW
LayerCount: 2
Fore
SplineSet
92 210 m 1
 103 278 l 1
 400 278 l 1
 401 344 376 399 299 400 c 0
 216 401 149 339 132 260 c 1
 125 230 l 1
 112 141 144 68 236 66 c 0
 302 65 353 103 391 148 c 1
 450 106 l 1
 394 40 327 -11 220 -10 c 0
 92 -8 29 106 45 230 c 0
 47 247 51 263 57 279 c 0
 91 386 188 470 306 470 c 0
 439 470 496 362 480 234 c 0
 479 226 478 218 476 210 c 1
 92 210 l 1
274 586 m 0
 277 613 308 642 336 640 c 0
 364 638 385 612 382 584 c 0
 379 557 348 528 320 530 c 0
 292 532 271 558 274 586 c 0
EndSplineSet
EndChar

StartChar: Eogonek
Encoding: 280 280 270
Width: 533
VWidth: 0
Flags: HMW
LayerCount: 2
Fore
SplineSet
96 0 m 1
 110 80 l 1
 454 80 l 1
 440 0 l 1
 96 0 l 1
202 620 m 1
 216 700 l 1
 560 700 l 1
 546 620 l 1
 202 620 l 1
154 340 m 1
 168 420 l 1
 492 420 l 1
 479 340 l 1
 154 340 l 1
168 700 m 1
 254 700 l 1
 133 0 l 1
 51 0 l 1
 168 700 l 1
304 -130 m 1
 328 -182 l 1
 306 -202 277 -220 238 -220 c 0
 166 -221 124 -180 133 -120 c 0
 144 -54 218 -9 284 24 c 1
 323 0 l 1
 277 -22 222 -56 215 -100 c 0
 212 -129 224 -148 252 -150 c 0
 274 -152 290 -140 304 -130 c 1
EndSplineSet
EndChar

StartChar: eogonek
Encoding: 281 281 271
Width: 499
VWidth: 0
Flags: HMW
LayerCount: 2
Fore
SplineSet
92 210 m 1
 103 278 l 1
 400 278 l 1
 401 344 376 399 299 400 c 0
 216 401 149 339 132 260 c 1
 125 230 l 1
 112 141 144 68 236 66 c 0
 302 65 353 103 391 148 c 1
 450 106 l 1
 394 40 327 -11 220 -10 c 0
 92 -8 29 106 45 230 c 0
 47 247 51 263 57 279 c 0
 91 386 188 470 306 470 c 0
 439 470 496 362 480 234 c 0
 479 226 478 218 476 210 c 1
 92 210 l 1
240 -131 m 1
 264 -182 l 1
 242 -202 213 -220 174 -220 c 0
 102 -221 60 -180 69 -120 c 0
 80 -54 154 -9 220 24 c 1
 259 -3 l 1
 212 -23 157 -57 150 -101 c 0
 147 -130 159 -148 187 -150 c 0
 209 -152 226 -141 240 -131 c 1
EndSplineSet
EndChar

StartChar: Ecaron
Encoding: 282 282 272
Width: 533
VWidth: 0
Flags: HMW
LayerCount: 2
Fore
SplineSet
96 0 m 1
 110 80 l 1
 454 80 l 1
 440 0 l 1
 96 0 l 1
202 620 m 1
 216 700 l 1
 560 700 l 1
 546 620 l 1
 202 620 l 1
154 340 m 1
 168 420 l 1
 492 420 l 1
 479 340 l 1
 154 340 l 1
168 700 m 1
 254 700 l 1
 133 0 l 1
 51 0 l 1
 168 700 l 1
388 856 m 1
 512 950 l 1
 556 908 l 1
 378 770 l 1
 244 911 l 1
 298 950 l 1
 388 856 l 1
EndSplineSet
EndChar

StartChar: ecaron
Encoding: 283 283 273
Width: 499
VWidth: 0
Flags: HMW
LayerCount: 2
Fore
SplineSet
92 210 m 1
 103 278 l 1
 400 278 l 1
 401 344 376 399 299 400 c 0
 216 401 149 339 132 260 c 1
 125 230 l 1
 112 141 144 68 236 66 c 0
 302 65 353 103 391 148 c 1
 450 106 l 1
 394 40 327 -11 220 -10 c 0
 92 -8 29 106 45 230 c 0
 47 247 51 263 57 279 c 0
 91 386 188 470 306 470 c 0
 439 470 496 362 480 234 c 0
 479 226 478 218 476 210 c 1
 92 210 l 1
330 616 m 1
 454 710 l 1
 498 668 l 1
 320 530 l 1
 186 671 l 1
 240 710 l 1
 330 616 l 1
EndSplineSet
EndChar

StartChar: Gcircumflex
Encoding: 284 284 274
Width: 752
VWidth: 0
Flags: HMW
LayerCount: 2
Fore
SplineSet
412 275 m 1
 426 355 l 1
 742 354 l 1
 708 166 570 -10 358 -10 c 0
 156 -10 42 160 70 350 c 0
 101 550 268 710 474 710 c 0
 592 710 685 658 735 560 c 1
 668 506 l 1
 632 582 562 624 466 624 c 0
 314 624 186 502 160 350 c 0
 138 206 216 76 366 76 c 0
 502 76 594 169 640 275 c 1
 412 275 l 1
506 864 m 1
 382 770 l 1
 338 812 l 1
 516 950 l 1
 650 809 l 1
 597 770 l 1
 506 864 l 1
EndSplineSet
EndChar

StartChar: gcircumflex
Encoding: 285 285 275
Width: 553
VWidth: 0
Flags: HMW
LayerCount: 2
Fore
SplineSet
10 -30 m 1
 88 -30 l 1
 83 -98 124 -154 208 -154 c 0
 290 -155 365 -88 381 10 c 1
 458 460 l 1
 538 460 l 1
 461 10 l 2
 439 -131 327 -230 200 -230 c 0
 72 -230 -2 -146 10 -30 c 1
45 230 m 0
 65 366 176 471 306 470 c 0
 430 469 472 354 456 230 c 0
 438 99 352 -10 230 -10 c 0
 100 -10 27 100 45 230 c 0
125 230 m 0
 111 140 158 66 246 66 c 0
 326 66 406 138 420 230 c 0
 432 317 386 392 308 394 c 0
 218 396 140 324 125 230 c 0
338 624 m 1
 214 530 l 1
 170 572 l 1
 348 710 l 1
 482 569 l 1
 428 530 l 1
 338 624 l 1
EndSplineSet
EndChar

StartChar: Gbreve
Encoding: 286 286 276
Width: 752
VWidth: 0
Flags: HMW
LayerCount: 2
Fore
SplineSet
412 275 m 1
 426 355 l 1
 742 354 l 1
 708 166 570 -10 358 -10 c 0
 156 -10 42 160 70 350 c 0
 101 550 268 710 474 710 c 0
 592 710 685 658 735 560 c 1
 668 506 l 1
 632 582 562 624 466 624 c 0
 314 624 186 502 160 350 c 0
 138 206 216 76 366 76 c 0
 502 76 594 169 640 275 c 1
 412 275 l 1
358 910 m 1
 426 910 l 1
 424 877 438 836 496 836 c 0
 556 836 581 878 595 910 c 1
 666 909 l 1
 647 837 587 770 490 770 c 0
 394 770 352 836 358 910 c 1
EndSplineSet
EndChar

StartChar: gbreve
Encoding: 287 287 277
Width: 553
VWidth: 0
Flags: HMW
LayerCount: 2
Fore
SplineSet
10 -30 m 1
 88 -30 l 1
 83 -98 124 -154 208 -154 c 0
 290 -155 365 -88 381 10 c 1
 458 460 l 1
 538 460 l 1
 461 10 l 2
 439 -131 327 -230 200 -230 c 0
 72 -230 -2 -146 10 -30 c 1
45 230 m 0
 65 366 176 471 306 470 c 0
 430 469 472 354 456 230 c 0
 438 99 352 -10 230 -10 c 0
 100 -10 27 100 45 230 c 0
125 230 m 0
 111 140 158 66 246 66 c 0
 326 66 406 138 420 230 c 0
 432 317 386 392 308 394 c 0
 218 396 140 324 125 230 c 0
188 670 m 1
 258 670 l 1
 256 637 269 596 327 596 c 0
 387 596 412 638 426 670 c 1
 496 669 l 1
 477 597 418 530 321 530 c 0
 225 530 182 596 188 670 c 1
EndSplineSet
EndChar

StartChar: Gdotaccent
Encoding: 288 288 278
Width: 752
VWidth: 0
Flags: HMW
LayerCount: 2
Fore
SplineSet
412 275 m 1
 426 355 l 1
 742 354 l 1
 708 166 570 -10 358 -10 c 0
 156 -10 42 160 70 350 c 0
 101 550 268 710 474 710 c 0
 592 710 685 658 735 560 c 1
 668 506 l 1
 632 582 562 624 466 624 c 0
 314 624 186 502 160 350 c 0
 138 206 216 76 366 76 c 0
 502 76 594 169 640 275 c 1
 412 275 l 1
443 826 m 0
 446 853 477 882 505 880 c 0
 533 878 554 852 551 824 c 0
 548 797 517 768 489 770 c 0
 461 772 440 798 443 826 c 0
EndSplineSet
EndChar

StartChar: gdotaccent
Encoding: 289 289 279
Width: 553
VWidth: 0
Flags: HMW
LayerCount: 2
Fore
SplineSet
10 -30 m 1
 88 -30 l 1
 83 -98 124 -154 208 -154 c 0
 290 -155 365 -88 381 10 c 1
 458 460 l 1
 538 460 l 1
 461 10 l 2
 439 -131 327 -230 200 -230 c 0
 72 -230 -2 -146 10 -30 c 1
45 230 m 0
 65 366 176 471 306 470 c 0
 430 469 472 354 456 230 c 0
 438 99 352 -10 230 -10 c 0
 100 -10 27 100 45 230 c 0
125 230 m 0
 111 140 158 66 246 66 c 0
 326 66 406 138 420 230 c 0
 432 317 386 392 308 394 c 0
 218 396 140 324 125 230 c 0
300 626 m 0
 303 653 334 682 362 680 c 0
 390 678 411 652 408 624 c 0
 405 597 374 568 346 570 c 0
 318 572 297 598 300 626 c 0
EndSplineSet
EndChar

StartChar: uni0122
Encoding: 290 290 280
Width: 752
VWidth: 0
Flags: HMW
LayerCount: 2
Fore
SplineSet
412 275 m 1
 426 355 l 1
 742 354 l 1
 708 166 570 -10 358 -10 c 0
 156 -10 42 160 70 350 c 0
 101 550 268 710 474 710 c 0
 592 710 685 658 735 560 c 1
 668 506 l 1
 632 582 562 624 466 624 c 0
 314 624 186 502 160 350 c 0
 138 206 216 76 366 76 c 0
 502 76 594 169 640 275 c 1
 412 275 l 1
346 -71 m 1
 422 -102 l 1
 272 -349 l 1
 218 -328 l 1
 346 -71 l 1
EndSplineSet
EndChar

StartChar: Hcircumflex
Encoding: 292 292 281
Width: 693
VWidth: 0
Flags: HMW
LayerCount: 2
Fore
SplineSet
154 340 m 1
 168 420 l 1
 635 420 l 1
 622 340 l 1
 154 340 l 1
624 700 m 1
 710 700 l 1
 589 0 l 1
 507 0 l 1
 624 700 l 1
168 700 m 1
 254 700 l 1
 133 0 l 1
 51 0 l 1
 168 700 l 1
470 864 m 1
 347 770 l 1
 302 812 l 1
 480 950 l 1
 614 809 l 1
 561 770 l 1
 470 864 l 1
EndSplineSet
EndChar

StartChar: hcircumflex
Encoding: 293 293 282
Width: 509
VWidth: 0
Flags: HMW
LayerCount: 2
Fore
SplineSet
258 780 m 1
 124 0 l 1
 44 0 l 1
 178 780 l 1
 258 780 l 1
380 280 m 2
 388 342 373 392 307 394 c 0
 237 396 188 341 172 281 c 1
 136 281 l 1
 156 380 232 470 334 470 c 0
 434 470 472 390 460 290 c 1
 410 0 l 1
 332 0 l 1
 380 280 l 2
254 934 m 1
 130 840 l 1
 86 882 l 1
 264 1020 l 1
 398 879 l 1
 344 840 l 1
 254 934 l 1
EndSplineSet
EndChar

StartChar: Itilde
Encoding: 296 296 283
Width: 237
VWidth: 0
Flags: HMW
LayerCount: 2
Fore
SplineSet
168 700 m 1
 254 700 l 1
 133 0 l 1
 51 0 l 1
 168 700 l 1
69 808 m 1
 89 850 134 890 182 888 c 0
 234 887 248 840 294 842 c 0
 318 843 338 866 358 890 c 1
 398 846 l 1
 375 812 333 772 284 774 c 0
 238 776 217 821 175 820 c 0
 139 819 124 788 116 770 c 1
 69 808 l 1
EndSplineSet
EndChar

StartChar: itilde
Encoding: 297 297 284
Width: 252
VWidth: 0
Flags: HMW
LayerCount: 2
Fore
SplineSet
137 460 m 1
 218 460 l 1
 138 0 l 1
 60 0 l 1
 137 460 l 1
35 568 m 1
 55 610 100 650 148 648 c 0
 200 647 214 600 260 602 c 0
 284 603 304 626 324 650 c 1
 364 606 l 1
 341 572 299 532 250 534 c 0
 204 536 183 581 141 580 c 0
 105 579 90 548 82 530 c 1
 35 568 l 1
EndSplineSet
EndChar

StartChar: Imacron
Encoding: 298 298 285
Width: 237
VWidth: 0
Flags: HMW
LayerCount: 2
Fore
SplineSet
168 700 m 1
 254 700 l 1
 133 0 l 1
 51 0 l 1
 168 700 l 1
54 770 m 1
 66 845 l 1
 408 845 l 1
 395 770 l 1
 54 770 l 1
EndSplineSet
EndChar

StartChar: imacron
Encoding: 299 299 286
Width: 252
VWidth: 0
Flags: HMW
LayerCount: 2
Fore
SplineSet
137 460 m 1
 218 460 l 1
 138 0 l 1
 60 0 l 1
 137 460 l 1
20 530 m 1
 32 605 l 1
 374 605 l 1
 361 530 l 1
 20 530 l 1
EndSplineSet
EndChar

StartChar: Ibreve
Encoding: 300 300 287
Width: 237
VWidth: 0
Flags: HMW
LayerCount: 2
Fore
SplineSet
168 700 m 1
 254 700 l 1
 133 0 l 1
 51 0 l 1
 168 700 l 1
94 910 m 1
 162 910 l 1
 160 877 174 836 232 836 c 0
 292 836 317 878 331 910 c 1
 402 909 l 1
 383 837 323 770 226 770 c 0
 130 770 88 836 94 910 c 1
EndSplineSet
EndChar

StartChar: ibreve
Encoding: 301 301 288
Width: 252
VWidth: 0
Flags: HMW
LayerCount: 2
Fore
SplineSet
137 460 m 1
 218 460 l 1
 138 0 l 1
 60 0 l 1
 137 460 l 1
59 670 m 1
 128 670 l 1
 126 637 140 596 198 596 c 0
 258 596 282 638 296 670 c 1
 367 669 l 1
 348 597 289 530 192 530 c 0
 96 530 53 596 59 670 c 1
EndSplineSet
EndChar

StartChar: Iogonek
Encoding: 302 302 289
Width: 237
VWidth: 0
Flags: HMW
LayerCount: 2
Fore
SplineSet
168 700 m 1
 254 700 l 1
 133 0 l 1
 51 0 l 1
 168 700 l 1
114 -130 m 1
 140 -182 l 1
 118 -202 88 -220 49 -220 c 0
 -23 -221 -65 -180 -56 -120 c 0
 -45 -54 30 -9 96 24 c 1
 134 0 l 1
 88 -22 33 -56 26 -100 c 0
 23 -129 34 -148 62 -150 c 0
 84 -152 100 -140 114 -130 c 1
EndSplineSet
EndChar

StartChar: iogonek
Encoding: 303 303 290
Width: 252
VWidth: 0
Flags: HMW
LayerCount: 2
Fore
SplineSet
156 651 m 0
 159 678 190 706 218 704 c 0
 246 702 267 677 264 649 c 0
 261 622 230 594 202 596 c 0
 174 598 153 623 156 651 c 0
137 460 m 1
 218 460 l 1
 138 0 l 1
 60 0 l 1
 137 460 l 1
120 -130 m 1
 144 -182 l 1
 122 -202 93 -220 54 -220 c 0
 -18 -221 -61 -180 -52 -120 c 0
 -41 -54 34 -9 100 24 c 1
 138 0 l 1
 92 -22 37 -56 30 -100 c 0
 27 -129 39 -148 67 -150 c 0
 89 -152 106 -140 120 -130 c 1
EndSplineSet
EndChar

StartChar: Idotaccent
Encoding: 304 304 291
Width: 237
VWidth: 0
Flags: HMW
LayerCount: 2
Fore
SplineSet
168 700 m 1
 254 700 l 1
 133 0 l 1
 51 0 l 1
 168 700 l 1
178 826 m 0
 181 853 212 882 240 880 c 0
 268 878 289 852 286 824 c 0
 283 797 252 768 224 770 c 0
 196 772 175 798 178 826 c 0
EndSplineSet
EndChar

StartChar: uni0136
Encoding: 310 310 292
Width: 548
VWidth: 0
Flags: HMW
LayerCount: 2
Fore
SplineSet
168 700 m 1
 254 700 l 1
 133 0 l 1
 51 0 l 1
 168 700 l 1
517 700 m 1
 624 700 l 1
 270 370 l 1
 515 0 l 1
 416 0 l 1
 171 372 l 1
 517 700 l 1
275 -61 m 1
 352 -92 l 1
 202 -339 l 1
 146 -318 l 1
 275 -61 l 1
EndSplineSet
EndChar

StartChar: uni0137
Encoding: 311 311 293
Width: 426
VWidth: 0
Flags: HMW
LayerCount: 2
Fore
SplineSet
172 780 m 1
 254 780 l 1
 118 0 l 1
 41 0 l 1
 172 780 l 1
360 460 m 1
 462 460 l 1
 232 268 l 1
 398 0 l 1
 304 0 l 1
 136 272 l 1
 360 460 l 1
212 -61 m 1
 288 -92 l 1
 138 -339 l 1
 84 -318 l 1
 212 -61 l 1
EndSplineSet
EndChar

StartChar: Lacute
Encoding: 313 313 294
Width: 436
VWidth: 0
Flags: HMW
LayerCount: 2
Fore
SplineSet
170 700 m 1
 254 700 l 1
 148 80 l 1
 414 80 l 1
 400 0 l 1
 50 0 l 1
 170 700 l 1
509 918 m 1
 310 771 l 1
 268 802 l 1
 440 960 l 1
 509 918 l 1
EndSplineSet
EndChar

StartChar: lacute
Encoding: 314 314 295
Width: 223
VWidth: 0
Flags: HMW
LayerCount: 2
Fore
SplineSet
178 780 m 1
 258 780 l 1
 123 0 l 1
 46 0 l 1
 178 780 l 1
380 988 m 1
 182 841 l 1
 140 872 l 1
 312 1030 l 1
 380 988 l 1
EndSplineSet
EndChar

StartChar: uni013B
Encoding: 315 315 296
Width: 436
VWidth: 0
Flags: HMW
LayerCount: 2
Fore
SplineSet
170 700 m 1
 254 700 l 1
 148 80 l 1
 414 80 l 1
 400 0 l 1
 50 0 l 1
 170 700 l 1
217 -61 m 1
 293 -92 l 1
 144 -339 l 1
 88 -318 l 1
 217 -61 l 1
EndSplineSet
EndChar

StartChar: uni013C
Encoding: 316 316 297
Width: 223
VWidth: 0
Flags: HMW
LayerCount: 2
Fore
SplineSet
178 780 m 1
 258 780 l 1
 123 0 l 1
 46 0 l 1
 178 780 l 1
76 -61 m 1
 152 -92 l 1
 2 -339 l 1
 -52 -318 l 1
 76 -61 l 1
EndSplineSet
EndChar

StartChar: Lcaron
Encoding: 317 317 298
Width: 436
VWidth: 0
Flags: HMW
LayerCount: 2
Fore
SplineSet
170 700 m 1
 254 700 l 1
 148 80 l 1
 414 80 l 1
 400 0 l 1
 50 0 l 1
 170 700 l 1
410 709 m 1
 486 678 l 1
 337 431 l 1
 282 452 l 1
 410 709 l 1
EndSplineSet
EndChar

StartChar: lcaron
Encoding: 318 318 299
Width: 223
VWidth: 0
Flags: HMW
LayerCount: 2
Fore
SplineSet
178 780 m 1
 258 780 l 1
 123 0 l 1
 46 0 l 1
 178 780 l 1
388 779 m 1
 464 748 l 1
 315 501 l 1
 260 522 l 1
 388 779 l 1
EndSplineSet
EndChar

StartChar: Ldot
Encoding: 319 319 300
Width: 436
VWidth: 0
Flags: HMW
LayerCount: 2
Fore
SplineSet
170 700 m 1
 254 700 l 1
 148 80 l 1
 414 80 l 1
 400 0 l 1
 50 0 l 1
 170 700 l 1
290 416 m 0
 293 443 324 472 352 470 c 0
 380 468 401 442 398 414 c 0
 395 387 364 358 336 360 c 0
 308 362 287 388 290 416 c 0
EndSplineSet
EndChar

StartChar: ldot
Encoding: 320 320 301
Width: 359
VWidth: 0
Flags: HMW
LayerCount: 2
Fore
SplineSet
178 780 m 1
 258 780 l 1
 123 0 l 1
 46 0 l 1
 178 780 l 1
252 416 m 0
 255 443 286 472 314 470 c 0
 342 468 363 442 360 414 c 0
 357 387 326 358 298 360 c 0
 270 362 249 388 252 416 c 0
EndSplineSet
EndChar

StartChar: eth
Encoding: 240 240 302
Width: 576
VWidth: 0
Flags: HMW
LayerCount: 2
Fore
SplineSet
263 -10 m 0
 134 -10 50 75 50 205 c 0
 50 351 177 457 297 457 c 0
 357 457 407 433 464 386 c 1
 423 386 l 1
 384 489 327 571 213 669 c 1
 261 725 l 1
 455 541 526 409 526 275 c 0
 526 130 427 -10 263 -10 c 0
263 67 m 0
 370 67 442 161 442 255 c 0
 442 345 388 395 313 395 c 0
 223 395 131 310 131 205 c 0
 131 121 186 67 263 67 c 0
224 503 m 1
 206 550 l 1
 486 657 l 1
 504 610 l 1
 224 503 l 1
EndSplineSet
EndChar

StartChar: racute
Encoding: 341 341 303
Width: 332
VWidth: 0
Flags: HMW
LayerCount: 2
Fore
SplineSet
203 460 m 1
 124 0 l 1
 44 0 l 1
 124 460 l 1
 203 460 l 1
324 372 m 1
 306 386 291 395 268 395 c 0
 207 396 183 337 172 281 c 1
 135 281 l 1
 151 373 216 469 296 470 c 0
 328 470 352 458 376 436 c 1
 324 372 l 1
416 678 m 1
 216 530 l 1
 176 562 l 1
 348 720 l 1
 416 678 l 1
EndSplineSet
EndChar

StartChar: rcaron
Encoding: 345 345 304
Width: 332
VWidth: 0
Flags: HMW
LayerCount: 2
Fore
SplineSet
203 460 m 1
 124 0 l 1
 44 0 l 1
 124 460 l 1
 203 460 l 1
324 372 m 1
 306 386 291 395 268 395 c 0
 207 396 183 337 172 281 c 1
 135 281 l 1
 151 373 216 469 296 470 c 0
 328 470 352 458 376 436 c 1
 324 372 l 1
275 616 m 1
 399 710 l 1
 443 668 l 1
 265 530 l 1
 131 671 l 1
 185 710 l 1
 275 616 l 1
EndSplineSet
EndChar

StartChar: Rcaron
Encoding: 344 344 305
Width: 543
VWidth: 0
Flags: HMW
LayerCount: 2
Fore
SplineSet
230 345 m 1
 322 345 l 1
 506 0 l 1
 406 0 l 1
 230 345 l 1
168 700 m 1
 254 700 l 1
 133 0 l 1
 51 0 l 1
 168 700 l 1
202 625 m 1
 215 700 l 1
 352 700 l 1
 479 698 569 614 550 490 c 0
 530 363 417 282 286 280 c 1
 142 280 l 1
 156 355 l 1
 292 355 l 1
 379 357 451 406 466 490 c 0
 480 571 428 622 344 624 c 1
 202 625 l 1
364 856 m 1
 488 950 l 1
 532 908 l 1
 354 770 l 1
 220 911 l 1
 274 950 l 1
 364 856 l 1
EndSplineSet
EndChar

StartChar: uni0213
Encoding: 531 531 306
Width: 332
VWidth: 0
Flags: HMW
LayerCount: 2
Fore
SplineSet
203 460 m 1
 124 0 l 1
 44 0 l 1
 124 460 l 1
 203 460 l 1
324 372 m 1
 306 386 291 395 268 395 c 0
 207 396 183 337 172 281 c 1
 135 281 l 1
 151 373 216 469 296 470 c 0
 328 470 352 458 376 436 c 1
 324 372 l 1
110 530 m 1
 182 530 l 1
 195 562 220 604 280 604 c 0
 340 604 354 564 353 530 c 1
 416 530 l 1
 424 602 387 669 291 670 c 0
 193 671 132 602 110 530 c 1
EndSplineSet
EndChar

StartChar: uni0212
Encoding: 530 530 307
Width: 543
VWidth: 0
Flags: HMW
LayerCount: 2
Fore
SplineSet
230 345 m 1
 322 345 l 1
 506 0 l 1
 406 0 l 1
 230 345 l 1
168 700 m 1
 254 700 l 1
 133 0 l 1
 51 0 l 1
 168 700 l 1
202 625 m 1
 215 700 l 1
 352 700 l 1
 479 698 569 614 550 490 c 0
 530 363 417 282 286 280 c 1
 142 280 l 1
 156 355 l 1
 292 355 l 1
 379 357 451 406 466 490 c 0
 480 571 428 622 344 624 c 1
 202 625 l 1
217 770 m 1
 290 770 l 1
 303 802 327 844 387 844 c 0
 447 844 461 804 460 770 c 1
 523 770 l 1
 531 842 494 909 398 910 c 0
 300 911 239 842 217 770 c 1
EndSplineSet
EndChar

StartChar: OE
Encoding: 338 338 308
Width: 955
VWidth: 0
Flags: HMW
LayerCount: 2
Fore
SplineSet
576 340 m 1
 590 420 l 1
 914 420 l 1
 901 340 l 1
 576 340 l 1
586 670 m 1
 671 670 l 1
 560 30 l 1
 478 30 l 1
 586 670 l 1
875 80 m 1
 862 0 l 1
 354 0 l 1
 154 4 42 158 70 350 c 0
 101 550 264 697 468 700 c 1
 982 700 l 1
 967 620 l 1
 633 620 l 1
 616 620 l 1
 460 620 l 1
 302 617 180 504 154 350 c 0
 130 204 208 84 362 80 c 1
 516 80 l 1
 538 80 l 1
 875 80 l 1
EndSplineSet
EndChar

StartChar: oe
Encoding: 339 339 309
Width: 873
VWidth: 0
Flags: HMW
LayerCount: 2
Fore
SplineSet
772 250 m 2
 782 326 761 398 673 400 c 0
 590 402 523 339 506 260 c 1
 498 230 l 1
 485 141 518 68 610 66 c 0
 676 65 726 103 764 148 c 1
 824 106 l 1
 769 42 698 -10 603 -10 c 0
 475 -9 412 107 428 230 c 0
 430 247 434 263 440 279 c 0
 474 386 570 471 688 470 c 0
 808 469 867 358 853 234 c 0
 852 226 850 218 848 210 c 1
 769 230 l 1
 772 250 l 2
476 210 m 1
 486 278 l 1
 839 278 l 1
 848 210 l 1
 476 210 l 1
45 230 m 0
 65 366 176 470 306 470 c 0
 436 470 482 356 466 230 c 0
 447 97 359 -10 230 -10 c 0
 100 -10 27 100 45 230 c 0
125 230 m 0
 111 140 158 66 246 66 c 0
 325 66 396 138 410 230 c 0
 422 315 386 392 308 394 c 0
 218 396 140 324 125 230 c 0
EndSplineSet
EndChar

StartChar: a.alt
Encoding: 65536 -1 310
Width: 468
VWidth: 0
Flags: HMW
LayerCount: 2
Fore
SplineSet
104 138 m 0
 97 88 134 61 184 60 c 0
 261 58 317 111 336 180 c 1
 344 124 l 1
 324 40 241 -10 157 -10 c 0
 73 -10 12 49 24 136 c 0
 39 230 124 286 230 286 c 0
 306 286 353 253 377 224 c 1
 370 178 l 1
 328 208 286 224 234 224 c 0
 166 224 113 194 104 138 c 0
136 353 m 1
 107 414 l 1
 153 442 214 470 288 470 c 0
 384 470 455 418 440 330 c 2
 384 0 l 1
 304 0 l 1
 362 324 l 2
 370 376 330 398 278 399 c 0
 218 400 169 373 136 353 c 1
EndSplineSet
EndChar

StartChar: Jcircumflex
Encoding: 308 308 312
Width: 232
VWidth: 0
Flags: HMW
LayerCount: 2
Fore
SplineSet
-112 -104 m 1
 -97 -126 -74 -141 -42 -140 c 0
 -3 -138 33 -103 41 -50 c 1
 170 700 l 1
 249 700 l 1
 120 -60 l 2
 104 -156 39 -221 -56 -220 c 0
 -104 -220 -142 -195 -164 -169 c 1
 -112 -104 l 1
240 864 m 1
 116 770 l 1
 72 812 l 1
 250 950 l 1
 384 809 l 1
 330 770 l 1
 240 864 l 1
EndSplineSet
EndChar

StartChar: jcircumflex
Encoding: 309 309 313
Width: 242
VWidth: 0
Flags: HMW
LayerCount: 2
Fore
SplineSet
-65 -114 m 1
 -53 -132 -39 -140 -22 -140 c 0
 14 -140 35 -100 41 -50 c 2
 128 460 l 1
 208 460 l 1
 120 -60 l 2
 106 -152 52 -222 -36 -220 c 0
 -74 -220 -100 -200 -118 -178 c 1
 -65 -114 l 1
198 624 m 1
 75 530 l 1
 30 572 l 1
 208 710 l 1
 342 569 l 1
 289 530 l 1
 198 624 l 1
EndSplineSet
EndChar

StartChar: Nacute
Encoding: 323 323 314
Width: 752
VWidth: 0
Flags: HMW
LayerCount: 2
Fore
SplineSet
684 700 m 1
 768 700 l 1
 642 -34 l 1
 224 522 l 1
 134 0 l 1
 49 0 l 1
 175 734 l 1
 594 178 l 1
 684 700 l 1
672 902 m 1
 472 756 l 1
 431 786 l 1
 603 944 l 1
 672 902 l 1
EndSplineSet
EndChar

StartChar: nacute
Encoding: 324 324 315
Width: 509
VWidth: 0
Flags: HMW
LayerCount: 2
Fore
SplineSet
203 460 m 1
 124 0 l 1
 44 0 l 1
 124 460 l 1
 203 460 l 1
380 280 m 2
 388 342 373 392 307 394 c 0
 237 396 188 341 172 281 c 1
 145 281 l 1
 164 379 233 470 334 470 c 0
 434 470 472 390 460 290 c 1
 410 0 l 1
 332 0 l 1
 380 280 l 2
480 678 m 1
 281 530 l 1
 240 562 l 1
 412 720 l 1
 480 678 l 1
EndSplineSet
EndChar

StartChar: uni0145
Encoding: 325 325 316
Width: 752
VWidth: 0
Flags: HMW
LayerCount: 2
Fore
SplineSet
352 -36 m 1
 428 -67 l 1
 278 -314 l 1
 224 -293 l 1
 352 -36 l 1
684 700 m 1
 768 700 l 1
 642 -34 l 1
 224 522 l 1
 134 0 l 1
 49 0 l 1
 175 734 l 1
 594 178 l 1
 684 700 l 1
EndSplineSet
EndChar

StartChar: uni0146
Encoding: 326 326 317
Width: 509
VWidth: 0
Flags: HMW
LayerCount: 2
Fore
SplineSet
203 460 m 1
 124 0 l 1
 44 0 l 1
 124 460 l 1
 203 460 l 1
380 280 m 2
 388 342 373 392 307 394 c 0
 237 396 188 341 172 281 c 1
 136 281 l 1
 156 380 232 470 334 470 c 0
 434 470 472 390 460 290 c 1
 410 0 l 1
 332 0 l 1
 380 280 l 2
219 -61 m 1
 295 -92 l 1
 146 -339 l 1
 90 -318 l 1
 219 -61 l 1
EndSplineSet
EndChar

StartChar: Ncaron
Encoding: 327 327 318
Width: 752
VWidth: 0
Flags: HMW
LayerCount: 2
Fore
SplineSet
508 880 m 1
 632 974 l 1
 676 934 l 1
 498 795 l 1
 364 936 l 1
 418 974 l 1
 508 880 l 1
684 700 m 1
 768 700 l 1
 642 -34 l 1
 224 522 l 1
 134 0 l 1
 49 0 l 1
 175 734 l 1
 594 178 l 1
 684 700 l 1
EndSplineSet
EndChar

StartChar: ncaron
Encoding: 328 328 319
Width: 509
VWidth: 0
Flags: HMW
LayerCount: 2
Fore
SplineSet
203 460 m 1
 124 0 l 1
 44 0 l 1
 124 460 l 1
 203 460 l 1
380 280 m 2
 388 342 373 392 307 394 c 0
 237 396 188 341 172 281 c 1
 136 281 l 1
 156 380 232 470 334 470 c 0
 434 470 472 390 460 290 c 1
 410 0 l 1
 332 0 l 1
 380 280 l 2
330 616 m 1
 454 710 l 1
 498 668 l 1
 320 530 l 1
 186 671 l 1
 239 710 l 1
 330 616 l 1
EndSplineSet
EndChar

StartChar: Omacron
Encoding: 332 332 320
Width: 766
VWidth: 0
Flags: HMW
LayerCount: 2
Fore
SplineSet
160 350 m 0
 138 209 213 77 366 76 c 0
 521 75 647 201 672 350 c 0
 694 491 619 623 466 624 c 0
 311 625 185 499 160 350 c 0
70 350 m 0
 100 546 270 710 474 710 c 0
 676 710 790 538 762 350 c 0
 732 154 562 -10 358 -10 c 0
 156 -10 42 162 70 350 c 0
318 770 m 1
 330 845 l 1
 672 845 l 1
 659 770 l 1
 318 770 l 1
EndSplineSet
EndChar

StartChar: omacron
Encoding: 333 333 321
Width: 529
VWidth: 0
Flags: HMW
LayerCount: 2
Fore
SplineSet
45 230 m 0
 65 362 179 470 315 470 c 0
 449 470 527 358 509 230 c 0
 489 98 375 -10 239 -10 c 0
 105 -10 27 102 45 230 c 0
125 230 m 0
 111 146 156 66 246 66 c 0
 338 66 414 140 429 230 c 0
 443 314 398 394 308 394 c 0
 216 394 140 320 125 230 c 0
159 530 m 1
 171 605 l 1
 512 605 l 1
 500 530 l 1
 159 530 l 1
EndSplineSet
EndChar

StartChar: Obreve
Encoding: 334 334 322
Width: 766
VWidth: 0
Flags: HMW
LayerCount: 2
Fore
SplineSet
160 350 m 0
 138 209 213 77 366 76 c 0
 521 75 647 201 672 350 c 0
 694 491 619 623 466 624 c 0
 311 625 185 499 160 350 c 0
70 350 m 0
 100 546 270 710 474 710 c 0
 676 710 790 538 762 350 c 0
 732 154 562 -10 358 -10 c 0
 156 -10 42 162 70 350 c 0
358 910 m 1
 426 910 l 1
 424 877 438 836 496 836 c 0
 556 836 581 878 595 910 c 1
 666 909 l 1
 647 837 587 770 490 770 c 0
 394 770 352 836 358 910 c 1
EndSplineSet
EndChar

StartChar: obreve
Encoding: 335 335 323
Width: 529
VWidth: 0
Flags: HMW
LayerCount: 2
Fore
SplineSet
45 230 m 0
 65 362 179 470 315 470 c 0
 449 470 527 358 509 230 c 0
 489 98 375 -10 239 -10 c 0
 105 -10 27 102 45 230 c 0
125 230 m 0
 111 146 156 66 246 66 c 0
 338 66 414 140 429 230 c 0
 443 314 398 394 308 394 c 0
 216 394 140 320 125 230 c 0
198 670 m 1
 267 670 l 1
 265 637 278 596 336 596 c 0
 396 596 422 638 436 670 c 1
 506 669 l 1
 487 597 428 530 331 530 c 0
 235 530 192 596 198 670 c 1
EndSplineSet
EndChar

StartChar: Racute
Encoding: 340 340 324
Width: 543
VWidth: 0
Flags: HMW
LayerCount: 2
Fore
SplineSet
230 345 m 1
 322 345 l 1
 506 0 l 1
 406 0 l 1
 230 345 l 1
168 700 m 1
 254 700 l 1
 133 0 l 1
 51 0 l 1
 168 700 l 1
202 625 m 1
 215 700 l 1
 352 700 l 1
 479 698 569 614 550 490 c 0
 530 363 417 282 286 280 c 1
 142 280 l 1
 156 355 l 1
 292 355 l 1
 379 357 451 406 466 490 c 0
 480 571 428 622 344 624 c 1
 202 625 l 1
524 918 m 1
 324 771 l 1
 283 802 l 1
 455 960 l 1
 524 918 l 1
EndSplineSet
EndChar

StartChar: uni0156
Encoding: 342 342 325
Width: 543
VWidth: 0
Flags: HMW
LayerCount: 2
Fore
SplineSet
230 345 m 1
 322 345 l 1
 506 0 l 1
 406 0 l 1
 230 345 l 1
168 700 m 1
 254 700 l 1
 133 0 l 1
 51 0 l 1
 168 700 l 1
202 625 m 1
 215 700 l 1
 352 700 l 1
 479 698 569 614 550 490 c 0
 530 363 417 282 286 280 c 1
 142 280 l 1
 156 355 l 1
 292 355 l 1
 379 357 451 406 466 490 c 0
 480 571 428 622 344 624 c 1
 202 625 l 1
270 -61 m 1
 346 -92 l 1
 197 -339 l 1
 142 -318 l 1
 270 -61 l 1
EndSplineSet
EndChar

StartChar: uni0157
Encoding: 343 343 326
Width: 332
VWidth: 0
Flags: HMW
LayerCount: 2
Fore
SplineSet
203 460 m 1
 124 0 l 1
 44 0 l 1
 124 460 l 1
 203 460 l 1
324 372 m 1
 306 386 291 395 268 395 c 0
 207 396 183 337 172 281 c 1
 135 281 l 1
 151 373 216 469 296 470 c 0
 328 470 352 458 376 436 c 1
 324 372 l 1
76 -61 m 1
 152 -92 l 1
 2 -339 l 1
 -52 -318 l 1
 76 -61 l 1
EndSplineSet
EndChar

StartChar: Scedilla
Encoding: 350 350 327
Width: 531
VWidth: 0
Flags: HMW
LayerCount: 2
Fore
SplineSet
119 226 m 1
 144 142 180 70 268 70 c 0
 342 70 394 116 406 183 c 0
 421 269 348 308 276 338 c 0
 200 370 121 418 136 530 c 0
 152 635 245 710 361 710 c 0
 465 710 520 642 548 559 c 1
 475 514 l 1
 453 572 416 628 344 628 c 0
 280 628 232 587 222 529 c 0
 210 458 285 426 354 396 c 0
 432 362 508 301 494 190 c 0
 477 74 380 -10 256 -10 c 0
 142 -10 70 76 42 184 c 1
 119 226 l 1
272 58 m 1
 333 58 l 1
 252 -53 l 1
 254 -53 256 -53 258 -53 c 0
 294 -57 323 -84 318 -128 c 0
 311 -184 255 -220 201 -220 c 0
 165 -220 144 -207 118 -182 c 1
 156 -144 l 1
 172 -158 184 -167 206 -167 c 0
 234 -167 261 -149 264 -126 c 0
 267 -104 249 -91 223 -91 c 0
 207 -90 182 -98 162 -108 c 1
 272 58 l 1
EndSplineSet
EndChar

StartChar: scedilla
Encoding: 351 351 328
Width: 391
VWidth: 0
Flags: HMW
LayerCount: 2
Fore
SplineSet
84 162 m 1
 106 112 142 67 190 66 c 0
 229 65 269 85 275 122 c 0
 283 170 236 192 192 212 c 0
 132 240 73 269 84 348 c 0
 96 428 174 470 248 470 c 0
 317 470 370 434 396 380 c 1
 329 340 l 1
 309 370 278 398 241 398 c 0
 205 398 167 384 161 350 c 0
 153 305 216 289 256 271 c 0
 316 243 368 201 358 130 c 0
 346 39 269 -8 183 -8 c 0
 99 -8 44 51 18 125 c 1
 84 162 l 1
199 59 m 1
 262 59 l 1
 179 -52 l 1
 181 -52 183 -52 185 -52 c 0
 221 -56 251 -83 247 -127 c 0
 241 -184 182 -220 128 -220 c 0
 93 -220 71 -205 46 -180 c 1
 82 -142 l 1
 98 -156 111 -166 133 -166 c 0
 161 -166 187 -149 190 -126 c 0
 193 -104 175 -90 149 -90 c 0
 134 -89 110 -97 90 -107 c 1
 199 59 l 1
EndSplineSet
EndChar

StartChar: Zcaron
Encoding: 381 381 329
Width: 528
VWidth: 0
Flags: HMW
LayerCount: 2
Fore
SplineSet
112 620 m 1
 126 700 l 1
 604 700 l 1
 141 80 l 1
 478 80 l 1
 464 0 l 1
 -15 0 l 1
 448 620 l 1
 112 620 l 1
388 856 m 1
 512 950 l 1
 556 908 l 1
 378 770 l 1
 244 911 l 1
 298 950 l 1
 388 856 l 1
EndSplineSet
EndChar

StartChar: zcaron
Encoding: 382 382 330
Width: 446
VWidth: 0
Flags: HMW
LayerCount: 2
Fore
SplineSet
313 616 m 1
 437 710 l 1
 481 668 l 1
 303 530 l 1
 169 671 l 1
 222 710 l 1
 313 616 l 1
328 384 m 1
 81 385 l 1
 94 460 l 1
 486 460 l 1
 143 76 l 1
 400 75 l 1
 386 0 l 1
 -15 0 l 1
 328 384 l 1
EndSplineSet
EndChar

StartChar: Ydieresis
Encoding: 376 376 331
Width: 544
VWidth: 0
Flags: HMW
LayerCount: 2
Fore
SplineSet
236 826 m 0
 239 852 268 882 296 880 c 0
 324 878 346 852 343 824 c 0
 340 797 308 768 280 770 c 0
 251 772 233 798 236 826 c 0
430 826 m 0
 433 852 462 882 490 880 c 0
 518 878 541 852 538 824 c 0
 535 797 502 768 474 770 c 0
 445 772 427 798 430 826 c 0
538 700 m 1
 634 700 l 1
 338 300 l 1
 286 0 l 1
 202 0 l 1
 256 304 l 1
 98 700 l 1
 189 700 l 1
 308 378 l 1
 538 700 l 1
EndSplineSet
EndChar

StartChar: Scaron
Encoding: 352 352 332
Width: 531
VWidth: 0
Flags: HMW
LayerCount: 2
Fore
SplineSet
119 226 m 1
 144 142 180 70 268 70 c 0
 342 70 394 116 406 183 c 0
 421 269 348 308 276 338 c 0
 202 370 122 430 136 536 c 0
 152 640 251 710 361 710 c 0
 464 710 526 637 548 559 c 1
 474 514 l 1
 454 570 426 627 354 628 c 0
 288 628 232 589 222 529 c 0
 209 459 285 426 354 396 c 0
 432 362 508 301 494 190 c 0
 477 74 386 -10 256 -10 c 0
 142 -10 70 76 42 184 c 1
 119 226 l 1
386 856 m 1
 510 950 l 1
 554 908 l 1
 376 770 l 1
 242 911 l 1
 296 950 l 1
 386 856 l 1
EndSplineSet
EndChar

StartChar: scaron
Encoding: 353 353 333
Width: 391
VWidth: 0
Flags: HMW
LayerCount: 2
Fore
SplineSet
88 160 m 1
 96 107 129 66 186 66 c 0
 230 66 268 85 275 124 c 0
 284 173 236 195 192 215 c 0
 134 242 74 278 84 350 c 0
 95 424 175 470 248 470 c 0
 317 470 377 435 396 379 c 1
 329 340 l 1
 309 370 277 394 240 394 c 0
 204 394 167 378 162 344 c 0
 156 304 216 284 256 266 c 0
 314 238 366 195 358 130 c 0
 346 37 265 -11 173 -10 c 0
 89 -10 27 48 18 124 c 1
 88 160 l 1
272 616 m 1
 396 710 l 1
 440 668 l 1
 262 530 l 1
 128 671 l 1
 182 710 l 1
 272 616 l 1
EndSplineSet
EndChar

StartChar: Lslash
Encoding: 321 321 334
Width: 436
VWidth: 0
Flags: HMW
LayerCount: 2
Fore
SplineSet
36 340 m 1
 26 396 l 1
 316 564 l 1
 328 509 l 1
 36 340 l 1
170 700 m 1
 254 700 l 1
 148 80 l 1
 414 80 l 1
 400 0 l 1
 50 0 l 1
 170 700 l 1
EndSplineSet
EndChar

StartChar: lslash
Encoding: 322 322 335
Width: 223
VWidth: 0
Flags: HMW
LayerCount: 2
Fore
SplineSet
36 340 m 1
 26 396 l 1
 294 544 l 1
 304 489 l 1
 36 340 l 1
178 780 m 1
 258 780 l 1
 123 0 l 1
 46 0 l 1
 178 780 l 1
EndSplineSet
EndChar

StartChar: uni0218
Encoding: 536 536 336
Width: 531
VWidth: 0
Flags: HMW
LayerCount: 2
Fore
SplineSet
119 226 m 1
 144 142 180 70 268 70 c 0
 342 70 394 116 406 183 c 0
 421 269 348 308 276 338 c 0
 202 370 122 430 136 536 c 0
 152 640 251 710 361 710 c 0
 464 710 526 637 548 559 c 1
 474 514 l 1
 454 570 426 627 354 628 c 0
 288 628 232 589 222 529 c 0
 209 459 285 426 354 396 c 0
 432 362 508 301 494 190 c 0
 477 74 386 -10 256 -10 c 0
 142 -10 70 76 42 184 c 1
 119 226 l 1
244 -71 m 1
 320 -102 l 1
 171 -349 l 1
 116 -328 l 1
 244 -71 l 1
EndSplineSet
EndChar

StartChar: uni0219
Encoding: 537 537 337
Width: 391
VWidth: 0
Flags: HMW
LayerCount: 2
Fore
SplineSet
88 160 m 1
 96 107 128 66 185 66 c 0
 229 66 268 85 275 124 c 0
 284 173 236 195 192 215 c 0
 134 242 74 278 84 350 c 0
 95 424 175 470 248 470 c 0
 317 470 377 435 396 379 c 1
 329 340 l 1
 309 370 277 394 240 394 c 0
 204 394 167 378 162 344 c 0
 156 304 216 284 256 266 c 0
 314 238 366 195 358 130 c 0
 346 37 265 -11 173 -10 c 0
 89 -10 27 48 18 124 c 1
 88 160 l 1
162 -71 m 1
 238 -102 l 1
 88 -349 l 1
 33 -328 l 1
 162 -71 l 1
EndSplineSet
EndChar

StartChar: pi
Encoding: 960 960 338
Width: 524
VWidth: 0
Flags: HMW
LayerCount: 2
Fore
SplineSet
132 430 m 1
 213 430 l 1
 138 0 l 1
 60 0 l 1
 132 430 l 1
80 460 m 1
 538 460 l 1
 524 385 l 1
 66 385 l 1
 80 460 l 1
376 430 m 1
 456 430 l 1
 404 141 l 1
 398 89 410 79 444 71 c 1
 432 -8 l 1
 348 -4 311 26 323 121 c 1
 376 430 l 1
EndSplineSet
EndChar

StartChar: trademark
Encoding: 8482 8482 339
Width: 645
VWidth: 0
Flags: HMW
LayerCount: 2
Fore
SplineSet
116 660 m 1
 123 700 l 1
 340 700 l 1
 334 660 l 1
 246 660 l 1
 193 350 l 1
 150 350 l 1
 202 660 l 1
 116 660 l 1
620 602 m 1
 671 722 l 1
 646 350 l 1
 604 350 l 1
 620 602 l 1
396 716 m 1
 404 598 l 1
 334 350 l 1
 292 351 l 1
 396 716 l 1
672 722 m 1
 654 629 l 1
 475 381 l 1
 382 635 l 1
 396 717 l 1
 487 466 l 1
 672 722 l 1
EndSplineSet
EndChar

StartChar: uni2219
Encoding: 8729 8729 340
Width: 291
VWidth: 0
Flags: HMW
LayerCount: 2
Fore
SplineSet
136 416 m 0
 139 443 170 472 198 470 c 0
 226 468 246 442 243 414 c 0
 240 387 209 358 181 360 c 0
 153 362 133 388 136 416 c 0
EndSplineSet
EndChar

StartChar: agrave.alt
Encoding: 65537 -1 341
Width: 470
VWidth: 0
Flags: HMW
LayerCount: 2
Fore
SplineSet
104 135 m 0
 96 87 128 63 182 62 c 0
 263 60 319 104 338 180 c 1
 346 129 l 1
 326 45 250 -10 156 -10 c 0
 69 -10 10 44 22 126 c 0
 36 229 132 286 238 286 c 0
 309 286 355 253 379 224 c 1
 372 178 l 1
 332 208 289 224 237 224 c 0
 167 224 114 193 104 135 c 0
142 352 m 1
 113 414 l 1
 158 442 217 470 291 470 c 0
 385 470 454 419 442 330 c 1
 386 0 l 1
 306 0 l 1
 364 330 l 1
 364 375 332 398 284 399 c 0
 225 400 176 372 142 352 c 1
174 681 m 1
 252 720 l 1
 373 559 l 1
 326 530 l 1
 174 681 l 1
EndSplineSet
EndChar

StartChar: aacute.alt
Encoding: 65538 -1 342
Width: 470
VWidth: 0
Flags: HMW
LayerCount: 2
Fore
SplineSet
104 135 m 0
 96 87 128 63 182 62 c 0
 263 60 319 104 338 180 c 1
 346 129 l 1
 326 45 250 -10 156 -10 c 0
 69 -10 10 44 22 126 c 0
 36 229 132 286 238 286 c 0
 309 286 355 253 379 224 c 1
 372 178 l 1
 332 208 289 224 237 224 c 0
 167 224 114 193 104 135 c 0
142 352 m 1
 113 414 l 1
 158 442 217 470 291 470 c 0
 385 470 454 419 442 330 c 1
 386 0 l 1
 306 0 l 1
 364 330 l 1
 364 375 332 398 284 399 c 0
 225 400 176 372 142 352 c 1
486 678 m 1
 286 531 l 1
 245 562 l 1
 417 720 l 1
 486 678 l 1
EndSplineSet
EndChar

StartChar: acircumflex.alt
Encoding: 65539 -1 343
Width: 470
VWidth: 0
Flags: HMW
LayerCount: 2
Fore
SplineSet
104 135 m 0
 96 87 128 63 182 62 c 0
 263 60 319 104 338 180 c 1
 346 129 l 1
 326 45 250 -10 156 -10 c 0
 69 -10 10 44 22 126 c 0
 36 229 132 286 238 286 c 0
 309 286 355 253 379 224 c 1
 372 178 l 1
 332 208 289 224 237 224 c 0
 167 224 114 193 104 135 c 0
142 352 m 1
 113 414 l 1
 158 442 217 470 291 470 c 0
 385 470 454 419 442 330 c 1
 386 0 l 1
 306 0 l 1
 364 330 l 1
 364 375 332 398 284 399 c 0
 225 400 176 372 142 352 c 1
323 624 m 1
 199 530 l 1
 154 572 l 1
 333 710 l 1
 467 569 l 1
 413 530 l 1
 323 624 l 1
EndSplineSet
EndChar

StartChar: atilde.alt
Encoding: 65540 -1 344
Width: 470
VWidth: 0
Flags: HMW
LayerCount: 2
Fore
SplineSet
104 135 m 0
 96 87 128 63 182 62 c 0
 263 60 319 104 338 180 c 1
 346 129 l 1
 326 45 250 -10 156 -10 c 0
 69 -10 10 44 22 126 c 0
 36 229 132 286 238 286 c 0
 309 286 355 253 379 224 c 1
 372 178 l 1
 332 208 289 224 237 224 c 0
 167 224 114 193 104 135 c 0
142 352 m 1
 113 414 l 1
 158 442 217 470 291 470 c 0
 385 470 454 419 442 330 c 1
 386 0 l 1
 306 0 l 1
 364 330 l 1
 364 375 332 398 284 399 c 0
 225 400 176 372 142 352 c 1
150 568 m 1
 170 610 214 650 262 648 c 0
 314 647 329 600 375 602 c 0
 399 603 418 626 438 650 c 1
 478 606 l 1
 455 572 413 532 364 534 c 0
 318 536 298 581 256 580 c 0
 220 579 205 548 197 530 c 1
 150 568 l 1
EndSplineSet
EndChar

StartChar: adieresis.alt
Encoding: 65541 -1 345
Width: 470
VWidth: 0
Flags: HMW
LayerCount: 2
Fore
SplineSet
104 135 m 0
 96 87 128 63 182 62 c 0
 263 60 319 104 338 180 c 1
 346 129 l 1
 326 45 250 -10 156 -10 c 0
 69 -10 10 44 22 126 c 0
 36 229 132 286 238 286 c 0
 309 286 355 253 379 224 c 1
 372 178 l 1
 332 208 289 224 237 224 c 0
 167 224 114 193 104 135 c 0
142 352 m 1
 113 414 l 1
 158 442 217 470 291 470 c 0
 385 470 454 419 442 330 c 1
 386 0 l 1
 306 0 l 1
 364 330 l 1
 364 375 332 398 284 399 c 0
 225 400 176 372 142 352 c 1
356 586 m 0
 359 613 390 642 418 640 c 0
 446 638 467 612 464 584 c 0
 461 557 430 528 402 530 c 0
 374 532 353 558 356 586 c 0
162 586 m 0
 165 613 196 642 224 640 c 0
 252 638 273 612 270 584 c 0
 267 557 236 528 208 530 c 0
 180 532 159 558 162 586 c 0
EndSplineSet
EndChar

StartChar: aring.alt
Encoding: 65542 -1 346
Width: 470
VWidth: 0
Flags: HMW
LayerCount: 2
Fore
SplineSet
104 135 m 0
 96 87 128 63 182 62 c 0
 263 60 319 104 338 180 c 1
 346 129 l 1
 326 45 250 -10 156 -10 c 0
 69 -10 10 44 22 126 c 0
 36 229 132 286 238 286 c 0
 309 286 355 253 379 224 c 1
 372 178 l 1
 332 208 289 224 237 224 c 0
 167 224 114 193 104 135 c 0
142 352 m 1
 113 414 l 1
 158 442 217 470 291 470 c 0
 385 470 454 419 442 330 c 1
 386 0 l 1
 306 0 l 1
 364 330 l 1
 364 375 332 398 284 399 c 0
 225 400 176 372 142 352 c 1
222 631 m 0
 230 686 283 730 336 730 c 0
 389 730 429 683 421 629 c 0
 413 574 359 530 306 530 c 0
 253 530 214 577 222 631 c 0
272 630 m 0
 269 604 286 580 310 578 c 0
 334 576 368 602 371 630 c 0
 374 656 356 680 332 682 c 0
 308 684 275 658 272 630 c 0
EndSplineSet
EndChar

StartChar: amacron.alt
Encoding: 65543 -1 347
Width: 470
VWidth: 0
Flags: HMW
LayerCount: 2
Fore
SplineSet
104 135 m 0
 96 87 128 63 182 62 c 0
 263 60 319 104 338 180 c 1
 346 129 l 1
 326 45 250 -10 156 -10 c 0
 69 -10 10 44 22 126 c 0
 36 229 132 286 238 286 c 0
 309 286 355 253 379 224 c 1
 372 178 l 1
 332 208 289 224 237 224 c 0
 167 224 114 193 104 135 c 0
142 352 m 1
 113 414 l 1
 158 442 217 470 291 470 c 0
 385 470 454 419 442 330 c 1
 386 0 l 1
 306 0 l 1
 364 330 l 1
 364 375 332 398 284 399 c 0
 225 400 176 372 142 352 c 1
138 550 m 1
 150 625 l 1
 492 625 l 1
 479 550 l 1
 138 550 l 1
EndSplineSet
EndChar

StartChar: abreve.alt
Encoding: 65544 -1 348
Width: 470
VWidth: 0
Flags: HMW
LayerCount: 2
Fore
SplineSet
104 135 m 0
 96 87 128 63 182 62 c 0
 263 60 319 104 338 180 c 1
 346 129 l 1
 326 45 250 -10 156 -10 c 0
 69 -10 10 44 22 126 c 0
 36 229 132 286 238 286 c 0
 309 286 355 253 379 224 c 1
 372 178 l 1
 332 208 289 224 237 224 c 0
 167 224 114 193 104 135 c 0
142 352 m 1
 113 414 l 1
 158 442 217 470 291 470 c 0
 385 470 454 419 442 330 c 1
 386 0 l 1
 306 0 l 1
 364 330 l 1
 364 375 332 398 284 399 c 0
 225 400 176 372 142 352 c 1
174 670 m 1
 242 670 l 1
 240 637 254 596 312 596 c 0
 372 596 397 638 411 670 c 1
 482 669 l 1
 463 597 403 530 306 530 c 0
 210 530 168 596 174 670 c 1
EndSplineSet
EndChar

StartChar: aogonek.alt
Encoding: 65545 -1 349
Width: 470
VWidth: 0
Flags: HMW
LayerCount: 2
Fore
SplineSet
104 135 m 0
 97 87 134 63 182 62 c 0
 262 60 319 104 338 180 c 1
 346 129 l 1
 326 45 250 -10 156 -10 c 0
 72 -10 12 45 24 132 c 0
 39 230 128 286 238 286 c 0
 309 286 355 253 379 224 c 1
 372 178 l 1
 332 208 289 224 237 224 c 0
 167 224 113 193 104 135 c 0
142 352 m 1
 113 414 l 1
 158 442 217 470 291 470 c 0
 385 470 454 419 442 330 c 1
 386 0 l 1
 306 0 l 1
 364 330 l 1
 364 375 332 398 284 399 c 0
 225 400 176 372 142 352 c 1
367 -130 m 1
 392 -182 l 1
 370 -202 341 -220 302 -220 c 0
 230 -221 187 -180 196 -120 c 0
 207 -54 282 -9 348 24 c 1
 386 0 l 1
 340 -22 285 -56 278 -100 c 0
 275 -129 286 -148 314 -150 c 0
 336 -152 353 -140 367 -130 c 1
EndSplineSet
EndChar

StartChar: dagger
Encoding: 8224 8224 350
Width: 553
VWidth: 0
Flags: HMW
LayerCount: 2
Fore
SplineSet
153 540 m 1
 533 540 l 1
 520 465 l 1
 140 465 l 1
 153 540 l 1
327 700 m 1
 408 700 l 1
 275 -150 l 1
 198 -150 l 1
 327 700 l 1
EndSplineSet
EndChar

StartChar: daggerdbl
Encoding: 8225 8225 351
Width: 553
VWidth: 0
Flags: HMW
LayerCount: 2
Fore
SplineSet
88 120 m 1
 468 120 l 1
 456 45 l 1
 76 45 l 1
 88 120 l 1
153 540 m 1
 533 540 l 1
 520 465 l 1
 140 465 l 1
 153 540 l 1
327 700 m 1
 408 700 l 1
 275 -150 l 1
 198 -150 l 1
 327 700 l 1
EndSplineSet
EndChar

StartChar: ellipsis
Encoding: 8230 8230 352
Width: 873
VWidth: 0
Flags: HMW
LayerCount: 2
Fore
SplineSet
72 41 m 0
 75 68 106 96 134 94 c 0
 162 92 182 67 179 39 c 0
 176 12 145 -16 117 -14 c 0
 89 -12 69 13 72 41 c 0
362 41 m 0
 365 68 396 96 424 94 c 0
 452 92 473 67 470 39 c 0
 467 12 436 -16 408 -14 c 0
 380 -12 359 13 362 41 c 0
654 41 m 0
 657 68 688 96 716 94 c 0
 744 92 765 67 762 39 c 0
 759 12 728 -16 700 -14 c 0
 672 -12 651 13 654 41 c 0
EndSplineSet
EndChar

StartChar: uniFF10
Encoding: 65296 65296 353
Width: 562
VWidth: 0
Flags: HMW
LayerCount: 2
Fore
SplineSet
145 350 m 0
 131 228 141 72 264 70 c 0
 387 68 463 214 483 350 c 0
 497 472 488 628 365 630 c 0
 242 632 165 486 145 350 c 0
61 350 m 0
 87 532 202 710 372 710 c 0
 544 710 587 518 567 350 c 0
 541 168 426 -10 256 -10 c 0
 84 -10 41 182 61 350 c 0
EndSplineSet
EndChar

StartChar: uniFF11
Encoding: 65297 65297 354
Width: 562
VWidth: 0
Flags: HMW
LayerCount: 2
Fore
SplineSet
178 562 m 1
 195 651 l 1
 440 710 l 1
 318 0 l 1
 234 0 l 1
 338 606 l 1
 178 562 l 1
EndSplineSet
EndChar

StartChar: uniFF12
Encoding: 65298 65298 355
Width: 562
VWidth: 0
Flags: HMW
LayerCount: 2
Fore
SplineSet
-2 0 m 1
 376 353 l 2
 424 398 465 446 476 506 c 0
 486 566 453 628 376 630 c 0
 281 632 217 553 198 460 c 1
 115 461 l 1
 141 599 237 711 384 710 c 0
 520 710 577 599 560 499 c 0
 548 424 497 361 439 307 c 2
 183 80 l 1
 492 80 l 1
 479 0 l 1
 -2 0 l 1
EndSplineSet
EndChar

StartChar: uniFF13
Encoding: 65299 65299 356
Width: 562
VWidth: 0
Flags: HMW
LayerCount: 2
Fore
SplineSet
294 346 m 1
 302 400 l 1
 384 406 446 450 460 521 c 0
 470 579 446 631 380 632 c 0
 314 633 262 583 246 526 c 1
 166 527 l 1
 188 631 272 710 386 710 c 0
 498 710 562 621 546 524 c 0
 527 415 418 350 294 346 c 1
266 -10 m 0
 140 -10 68 75 78 185 c 1
 162 184 l 1
 158 119 197 70 273 70 c 0
 350 70 412 123 424 195 c 0
 440 281 372 320 290 325 c 1
 298 380 l 1
 422 376 528 318 508 184 c 0
 490 68 387 -10 266 -10 c 0
EndSplineSet
EndChar

StartChar: uniFF14
Encoding: 65300 65300 357
Width: 562
VWidth: 0
Flags: HMW
LayerCount: 2
Fore
SplineSet
12 140 m 1
 93 214 l 1
 386 215 l 1
 402 215 l 1
 546 215 l 1
 533 140 l 1
 12 140 l 1
104 141 m 1
 12 140 l 1
 485 699 l 1
 520 700 l 1
 401 0 l 1
 317 0 l 1
 348 176 l 1
 350 187 l 1
 404 506 l 1
 104 141 l 1
EndSplineSet
EndChar

StartChar: uniFF15
Encoding: 65301 65301 358
Width: 562
VWidth: 0
Flags: HMW
LayerCount: 2
Fore
SplineSet
530 230 m 0
 509 84 390 -10 252 -10 c 0
 138 -10 70 52 32 138 c 1
 110 186 l 1
 134 125 186 70 260 70 c 0
 357 70 426 140 442 230 c 0
 456 316 409 388 320 390 c 0
 252 392 200 368 134 328 c 1
 191 393 l 1
 238 439 301 466 363 466 c 0
 487 466 546 351 530 230 c 0
340 625 m 1
 251 416 l 1
 128 323 l 1
 286 700 l 1
 608 700 l 1
 596 626 l 1
 340 625 l 1
EndSplineSet
EndChar

StartChar: uniFF16
Encoding: 65302 65302 359
Width: 562
VWidth: 0
Flags: HMW
LayerCount: 2
Fore
SplineSet
142 230 m 0
 128 146 173 68 263 68 c 0
 355 68 431 140 446 230 c 0
 460 314 414 394 324 394 c 0
 232 394 157 320 142 230 c 0
412 700 m 1
 521 700 l 1
 258 412 l 1
 251 418 l 1
 282 445 316 456 360 456 c 0
 478 454 542 344 526 230 c 0
 506 94 392 -10 256 -10 c 0
 121 -10 44 100 62 230 c 0
 70 286 95 336 128 375 c 2
 412 700 l 1
EndSplineSet
EndChar

StartChar: uniFF17
Encoding: 65303 65303 360
Width: 562
VWidth: 0
Flags: HMW
LayerCount: 2
Fore
SplineSet
134 620 m 1
 148 700 l 1
 626 700 l 1
 180 0 l 1
 90 0 l 1
 484 620 l 1
 134 620 l 1
EndSplineSet
EndChar

StartChar: uniFF18
Encoding: 65304 65304 361
Width: 562
VWidth: 0
Flags: HMW
LayerCount: 2
Fore
SplineSet
157 532 m 0
 173 630 266 710 372 710 c 0
 476 710 547 626 533 530 c 0
 517 425 428 356 318 356 c 0
 210 356 141 429 157 532 c 0
234 521 m 0
 225 463 262 411 322 410 c 0
 383 409 442 460 452 521 c 0
 462 579 430 633 366 634 c 0
 302 635 244 583 234 521 c 0
74 190 m 0
 92 310 202 390 318 390 c 0
 432 390 516 308 499 190 c 0
 481 80 376 -10 256 -10 c 0
 138 -10 58 84 74 190 c 0
156 200 m 0
 144 125 190 67 262 66 c 0
 335 65 410 122 422 200 c 0
 432 268 385 333 314 334 c 0
 242 335 168 272 156 200 c 0
EndSplineSet
EndChar

StartChar: uniFF19
Encoding: 65305 65305 362
Width: 562
VWidth: 0
Flags: HMW
LayerCount: 2
Fore
SplineSet
486 470 m 0
 500 554 456 632 366 632 c 0
 274 632 197 560 182 470 c 0
 168 386 214 306 304 306 c 0
 396 306 471 380 486 470 c 0
216 0 m 1
 107 0 l 1
 370 288 l 1
 378 282 l 1
 347 255 312 244 268 244 c 0
 150 246 86 356 102 470 c 0
 122 606 236 710 372 710 c 0
 507 710 584 600 566 470 c 0
 558 414 533 364 500 325 c 2
 216 0 l 1
EndSplineSet
EndChar

StartChar: caron
Encoding: 711 711 363
Width: 465
VWidth: 0
Flags: HMW
LayerCount: 2
Fore
SplineSet
315 656 m 1
 438 750 l 1
 483 708 l 1
 305 570 l 1
 171 711 l 1
 224 750 l 1
 315 656 l 1
EndSplineSet
EndChar

StartChar: napostrophe
Encoding: 329 329 364
Width: 616
VWidth: 0
Flags: HMW
LayerCount: 2
Fore
SplineSet
310 460 m 1
 230 0 l 1
 151 0 l 1
 230 460 l 1
 310 460 l 1
486 280 m 2
 494 342 480 392 414 394 c 0
 344 396 294 341 278 281 c 1
 242 281 l 1
 262 380 338 470 440 470 c 0
 540 470 578 390 566 290 c 1
 516 0 l 1
 439 0 l 1
 486 280 l 2
217 700 m 1
 314 700 l 1
 176 471 l 1
 120 471 l 1
 217 700 l 1
EndSplineSet
EndChar

StartChar: IJ
Encoding: 306 306 365
Width: 475
VWidth: 0
Flags: HMW
LayerCount: 2
Fore
SplineSet
130 -104 m 1
 145 -126 168 -141 200 -140 c 0
 239 -138 276 -103 284 -50 c 1
 412 700 l 1
 492 700 l 1
 362 -60 l 2
 346 -156 283 -221 188 -220 c 0
 140 -220 100 -195 78 -169 c 1
 130 -104 l 1
168 700 m 1
 254 700 l 1
 133 0 l 1
 51 0 l 1
 168 700 l 1
EndSplineSet
EndChar

StartChar: ij
Encoding: 307 307 366
Width: 494
VWidth: 0
Flags: HMW
LayerCount: 2
Fore
SplineSet
398 651 m 0
 401 678 433 706 461 704 c 0
 489 702 509 677 506 649 c 0
 503 622 472 594 444 596 c 0
 416 598 395 623 398 651 c 0
187 -114 m 1
 199 -126 216 -140 230 -140 c 0
 266 -142 287 -98 293 -50 c 2
 381 460 l 1
 460 460 l 1
 372 -60 l 2
 358 -152 304 -222 216 -220 c 0
 178 -220 152 -200 134 -178 c 1
 187 -114 l 1
156 651 m 0
 159 678 190 706 218 704 c 0
 246 702 267 677 264 649 c 0
 261 622 230 594 202 596 c 0
 174 598 153 623 156 651 c 0
137 460 m 1
 218 460 l 1
 138 0 l 1
 60 0 l 1
 137 460 l 1
EndSplineSet
EndChar

StartChar: uni0237
Encoding: 567 567 367
Width: 242
VWidth: 0
Flags: HMW
LayerCount: 2
Fore
SplineSet
-65 -114 m 1
 -53 -132 -39 -140 -22 -140 c 0
 14 -140 35 -100 41 -50 c 2
 128 460 l 1
 208 460 l 1
 120 -60 l 2
 106 -152 52 -222 -36 -220 c 0
 -74 -220 -100 -200 -118 -178 c 1
 -65 -114 l 1
EndSplineSet
EndChar

StartChar: Sacute
Encoding: 346 346 368
Width: 531
VWidth: 0
Flags: HMW
LayerCount: 2
Fore
SplineSet
119 226 m 1
 144 142 180 70 268 70 c 0
 342 70 394 116 406 183 c 0
 421 269 348 308 276 338 c 0
 202 370 122 430 136 536 c 0
 152 640 251 710 361 710 c 0
 464 710 526 637 548 559 c 1
 474 514 l 1
 454 570 426 627 354 628 c 0
 288 628 232 589 222 529 c 0
 209 459 285 426 354 396 c 0
 432 362 508 301 494 190 c 0
 477 74 386 -10 256 -10 c 0
 142 -10 70 76 42 184 c 1
 119 226 l 1
575 918 m 1
 376 771 l 1
 334 802 l 1
 506 960 l 1
 575 918 l 1
EndSplineSet
EndChar

StartChar: sacute
Encoding: 347 347 369
Width: 391
VWidth: 0
Flags: HMW
LayerCount: 2
Fore
SplineSet
88 160 m 1
 96 107 128 66 185 66 c 0
 229 66 268 85 275 124 c 0
 284 173 236 195 192 215 c 0
 134 242 74 278 84 350 c 0
 95 424 175 470 248 470 c 0
 317 470 377 435 396 379 c 1
 329 340 l 1
 309 370 277 394 240 394 c 0
 204 394 167 378 162 344 c 0
 156 304 216 284 256 266 c 0
 314 238 366 195 358 130 c 0
 346 37 265 -11 173 -10 c 0
 89 -10 27 48 18 124 c 1
 88 160 l 1
462 678 m 1
 262 531 l 1
 221 562 l 1
 392 720 l 1
 462 678 l 1
EndSplineSet
EndChar

StartChar: Scircumflex
Encoding: 348 348 370
Width: 531
VWidth: 0
Flags: HMW
LayerCount: 2
Fore
SplineSet
119 226 m 1
 144 142 180 70 268 70 c 0
 342 70 394 116 406 183 c 0
 421 269 348 308 276 338 c 0
 202 370 122 430 136 536 c 0
 152 640 251 710 361 710 c 0
 464 710 526 637 548 559 c 1
 474 514 l 1
 454 570 426 627 354 628 c 0
 288 628 232 589 222 529 c 0
 209 459 285 426 354 396 c 0
 432 362 508 301 494 190 c 0
 477 74 386 -10 256 -10 c 0
 142 -10 70 76 42 184 c 1
 119 226 l 1
393 864 m 1
 269 770 l 1
 225 812 l 1
 403 950 l 1
 537 809 l 1
 484 770 l 1
 393 864 l 1
EndSplineSet
EndChar

StartChar: scircumflex
Encoding: 349 349 371
Width: 391
VWidth: 0
Flags: HMW
LayerCount: 2
Fore
SplineSet
88 160 m 1
 96 107 129 66 186 66 c 0
 230 66 268 85 275 124 c 0
 284 173 236 195 192 215 c 0
 134 242 74 278 84 350 c 0
 95 424 175 470 248 470 c 0
 317 470 377 435 396 379 c 1
 329 340 l 1
 309 370 277 394 240 394 c 0
 204 394 167 378 162 344 c 0
 156 304 216 284 256 266 c 0
 314 238 366 195 358 130 c 0
 346 37 265 -11 173 -10 c 0
 89 -10 27 48 18 124 c 1
 88 160 l 1
279 624 m 1
 156 530 l 1
 111 572 l 1
 289 710 l 1
 423 569 l 1
 370 530 l 1
 279 624 l 1
EndSplineSet
EndChar

StartChar: uni1E9E
Encoding: 7838 7838 372
Width: 716
VWidth: 0
Flags: HMW
LayerCount: 2
Fore
SplineSet
422 -12 m 0
 572 -12 678 68 678 182 c 0
 678 333 521 308 521 364 c 0
 521 410 687 421 687 562 c 0
 687 658 598 709 471 709 c 0
 303 709 148 601 115 389 c 2
 50 -2 l 1
 136 -2 l 1
 199 382 l 2
 225 545 338 628 468 628 c 0
 562 628 597 586 597 544 c 0
 597 456 423 461 423 355 c 0
 423 251 586 282 586 176 c 0
 586 102 509 74 428 74 c 0
 358 74 316 95 270 126 c 1
 230 54 l 1
 279 15 336 -12 422 -12 c 0
EndSplineSet
EndChar

StartChar: Zacute
Encoding: 377 377 373
Width: 528
VWidth: 0
Flags: HW
LayerCount: 2
Fore
SplineSet
112 620 m 1
 126 700 l 1
 604 700 l 1
 141 80 l 1
 478 80 l 1
 464 0 l 1
 -15 0 l 1
 448 620 l 1
 112 620 l 1
558 918 m 1
 358 771 l 1
 317 802 l 1
 489 960 l 1
 558 918 l 1
EndSplineSet
EndChar

StartChar: zacute
Encoding: 378 378 374
Width: 446
VWidth: 0
Flags: HW
LayerCount: 2
Fore
SplineSet
328 384 m 1
 81 385 l 1
 94 460 l 1
 486 460 l 1
 143 76 l 1
 400 75 l 1
 386 0 l 1
 -15 0 l 1
 328 384 l 1
486 698 m 1
 287 551 l 1
 246 582 l 1
 418 740 l 1
 486 698 l 1
EndSplineSet
EndChar

StartChar: Zdotaccent
Encoding: 379 379 375
Width: 528
VWidth: 0
Flags: HW
LayerCount: 2
Fore
SplineSet
112 620 m 1
 126 700 l 1
 604 700 l 1
 141 80 l 1
 478 80 l 1
 464 0 l 1
 -15 0 l 1
 448 620 l 1
 112 620 l 1
332 826 m 0
 335 853 366 882 394 880 c 0
 422 878 443 852 440 824 c 0
 437 797 405 768 377 770 c 0
 349 772 329 798 332 826 c 0
EndSplineSet
EndChar

StartChar: zdotaccent
Encoding: 380 380 376
Width: 446
VWidth: 0
Flags: HW
LayerCount: 2
Fore
SplineSet
328 384 m 1
 81 385 l 1
 94 460 l 1
 486 460 l 1
 143 76 l 1
 400 75 l 1
 386 0 l 1
 -15 0 l 1
 328 384 l 1
262 616 m 0
 265 643 296 672 324 670 c 0
 352 668 373 642 370 614 c 0
 367 587 336 558 308 560 c 0
 280 562 259 588 262 616 c 0
EndSplineSet
EndChar

StartChar: Tcaron
Encoding: 356 356 377
Width: 451
VWidth: 0
Flags: HW
LayerCount: 2
Fore
SplineSet
87 620 m 1
 102 700 l 1
 535 700 l 1
 521 620 l 1
 346 620 l 1
 240 0 l 1
 156 0 l 1
 262 620 l 1
 87 620 l 1
342 856 m 1
 466 950 l 1
 510 908 l 1
 332 770 l 1
 198 911 l 1
 251 950 l 1
 342 856 l 1
EndSplineSet
EndChar

StartChar: tcaron
Encoding: 357 357 378
Width: 339
VWidth: 0
Flags: HW
LayerCount: 2
Fore
SplineSet
56 460 m 1
 280 460 l 1
 267 385 l 1
 42 385 l 1
 56 460 l 1
155 620 m 1
 236 620 l 1
 128 0 l 1
 51 0 l 1
 155 620 l 1
396 809 m 1
 472 778 l 1
 322 531 l 1
 267 552 l 1
 396 809 l 1
EndSplineSet
EndChar

StartChar: Uring
Encoding: 366 366 379
Width: 607
VWidth: 0
Flags: HW
LayerCount: 2
Fore
SplineSet
165 700 m 1
 249 700 l 1
 168 230 l 2
 156 144 189 71 286 70 c 0
 384 69 448 140 464 230 c 1
 544 700 l 1
 628 700 l 1
 548 230 l 2
 525 98 422 -10 278 -10 c 0
 137 -10 66 101 84 230 c 1
 165 700 l 1
326 871 m 0
 334 926 387 970 440 970 c 0
 493 970 533 923 525 869 c 0
 517 814 463 770 410 770 c 0
 357 770 318 817 326 871 c 0
376 870 m 0
 373 844 390 820 414 818 c 0
 438 816 472 842 475 870 c 0
 478 896 460 920 436 922 c 0
 412 924 379 898 376 870 c 0
EndSplineSet
EndChar

StartChar: uring
Encoding: 367 367 380
Width: 509
VWidth: 0
Flags: HW
LayerCount: 2
Fore
SplineSet
330 0 m 1
 410 460 l 1
 490 460 l 1
 410 0 l 1
 330 0 l 1
154 180 m 2
 146 118 160 68 226 66 c 0
 296 64 346 119 362 179 c 1
 388 179 l 1
 369 81 301 -10 200 -10 c 0
 100 -10 62 70 74 170 c 1
 124 460 l 1
 202 460 l 1
 154 180 l 2
235 631 m 0
 243 686 297 730 350 730 c 0
 403 730 443 683 435 629 c 0
 427 574 373 530 320 530 c 0
 267 530 227 577 235 631 c 0
285 630 m 0
 282 604 300 580 324 578 c 0
 348 576 382 602 385 630 c 0
 388 656 370 680 346 682 c 0
 322 684 288 658 285 630 c 0
EndSplineSet
EndChar

StartChar: uni0400
Encoding: 1024 1024 381
Width: 533
VWidth: 0
Flags: HW
LayerCount: 2
Fore
SplineSet
97 0 m 1
 110 80 l 1
 454 80 l 1
 442 0 l 1
 97 0 l 1
202 620 m 1
 215 700 l 1
 560 700 l 1
 547 620 l 1
 202 620 l 1
155 340 m 1
 168 420 l 1
 493 420 l 1
 480 340 l 1
 155 340 l 1
168 700 m 1
 255 700 l 1
 133 0 l 1
 51 0 l 1
 168 700 l 1
233 920 m 1
 311 960 l 1
 435 798 l 1
 388 770 l 1
 233 920 l 1
EndSplineSet
EndChar

StartChar: uni0401
Encoding: 1025 1025 382
Width: 533
VWidth: 0
Flags: HW
LayerCount: 2
Fore
SplineSet
97 0 m 1
 110 80 l 1
 454 80 l 1
 442 0 l 1
 97 0 l 1
202 620 m 1
 215 700 l 1
 560 700 l 1
 547 620 l 1
 202 620 l 1
155 340 m 1
 168 420 l 1
 493 420 l 1
 480 340 l 1
 155 340 l 1
168 700 m 1
 255 700 l 1
 133 0 l 1
 51 0 l 1
 168 700 l 1
440 826 m 0
 442 853 474 881 502 879 c 0
 530 877 550 852 548 824 c 0
 546 797 515 768 487 770 c 0
 459 772 438 798 440 826 c 0
246 826 m 0
 248 853 280 881 308 879 c 0
 336 877 356 852 354 824 c 0
 352 797 321 768 293 770 c 0
 265 772 244 798 246 826 c 0
EndSplineSet
EndChar

StartChar: uni0403
Encoding: 1027 1027 383
Width: 422
VWidth: 0
Flags: HW
LayerCount: 2
Fore
SplineSet
167 700 m 1
 506 700 l 1
 492 620 l 1
 240 620 l 1
 133 0 l 1
 51 0 l 1
 167 700 l 1
534 917 m 1
 337 770 l 1
 296 800 l 1
 465 958 l 1
 534 917 l 1
EndSplineSet
EndChar

StartChar: uni040C
Encoding: 1036 1036 384
Width: 548
VWidth: 0
Flags: HW
LayerCount: 2
Fore
SplineSet
168 700 m 1
 255 700 l 1
 133 0 l 1
 51 0 l 1
 168 700 l 1
516 700 m 1
 626 700 l 1
 270 368 l 1
 514 0 l 1
 416 0 l 1
 171 374 l 1
 516 700 l 1
594 916 m 1
 396 770 l 1
 353 802 l 1
 524 960 l 1
 594 916 l 1
EndSplineSet
EndChar

StartChar: uni040D
Encoding: 1037 1037 385
Width: 752
VWidth: 0
Flags: HW
LayerCount: 2
Fore
SplineSet
746 602 m 1
 40 -41 l 1
 72 98 l 1
 778 742 l 1
 746 602 l 1
254 700 m 1
 146 72 l 1
 40 -41 l 1
 169 700 l 1
 254 700 l 1
778 742 m 1
 648 0 l 1
 563 0 l 1
 671 628 l 1
 778 742 l 1
342 896 m 1
 420 936 l 1
 542 774 l 1
 496 745 l 1
 342 896 l 1
EndSplineSet
EndChar

StartChar: uni040E
Encoding: 1038 1038 386
Width: 548
VWidth: 0
Flags: HW
LayerCount: 2
Fore
SplineSet
644 700 m 1
 204 0 l 1
 106 0 l 1
 233 211 l 1
 93 700 l 1
 191 700 l 1
 312 230 l 1
 262 235 l 1
 546 700 l 1
 644 700 l 1
244 910 m 1
 313 910 l 1
 312 877 326 835 384 835 c 0
 444 835 470 877 482 909 c 1
 552 908 l 1
 534 836 476 770 379 770 c 0
 283 770 240 836 244 910 c 1
EndSplineSet
EndChar

StartChar: uni0410
Encoding: 1040 1040 387
Width: 640
VWidth: 0
Flags: HW
LayerCount: 2
Fore
SplineSet
152 211 m 1
 192 290 l 1
 496 290 l 1
 512 210 l 1
 152 211 l 1
389 542 m 1
 226 264 l 1
 216 246 l 1
 72 0 l 1
 -26 0 l 1
 418 738 l 1
 608 0 l 1
 516 0 l 1
 458 240 l 1
 454 260 l 1
 389 542 l 1
EndSplineSet
EndChar

StartChar: uni0411
Encoding: 1041 1041 388
Width: 531
VWidth: 0
Flags: HW
LayerCount: 2
Fore
SplineSet
152 340 m 1
 167 420 l 1
 302 420 l 1
 429 418 521 335 503 210 c 0
 484 83 371 2 240 0 c 1
 94 0 l 1
 108 80 l 1
 244 80 l 2
 330 82 402 126 418 210 c 0
 432 291 380 338 297 340 c 1
 152 340 l 1
167 700 m 1
 536 700 l 1
 522 620 l 1
 240 620 l 1
 133 0 l 1
 51 0 l 1
 167 700 l 1
EndSplineSet
EndChar

StartChar: uni0412
Encoding: 1042 1042 389
Width: 541
VWidth: 0
Flags: HW
LayerCount: 2
Fore
SplineSet
178 370 m 1
 186 416 l 1
 292 417 l 1
 360 419 421 455 433 520 c 0
 444 582 400 622 336 624 c 1
 241 625 l 1
 147 75 l 1
 243 76 l 1
 331 78 402 126 418 210 c 0
 432 291 381 339 297 342 c 1
 174 344 l 1
 181 390 l 1
 298 390 l 1
 421 388 520 330 502 204 c 0
 484 71 371 2 240 0 c 1
 49 0 l 1
 169 700 l 1
 340 700 l 1
 454 698 536 638 518 524 c 0
 502 422 406 372 292 370 c 2
 178 370 l 1
EndSplineSet
EndChar

StartChar: uni0413
Encoding: 1043 1043 390
Width: 422
VWidth: 0
Flags: HW
LayerCount: 2
Fore
SplineSet
167 700 m 1
 506 700 l 1
 492 620 l 1
 240 620 l 1
 133 0 l 1
 51 0 l 1
 167 700 l 1
EndSplineSet
EndChar

StartChar: uni0414
Encoding: 1044 1044 391
Width: 771
VWidth: 0
Flags: HW
LayerCount: 2
Fore
SplineSet
452 542 m 1
 174 30 l 1
 82 30 l 1
 482 738 l 1
 637 30 l 1
 552 30 l 1
 452 542 l 1
630 0 m 1
 86 0 l 1
 67 -110 l 1
 -8 -110 l 1
 24 80 l 1
 716 80 l 1
 683 -110 l 1
 610 -110 l 1
 630 0 l 1
EndSplineSet
EndChar

StartChar: uni0415
Encoding: 1045 1045 392
Width: 533
VWidth: 0
Flags: HW
LayerCount: 2
Fore
SplineSet
97 0 m 1
 110 80 l 1
 454 80 l 1
 442 0 l 1
 97 0 l 1
202 620 m 1
 215 700 l 1
 560 700 l 1
 547 620 l 1
 202 620 l 1
155 340 m 1
 168 420 l 1
 493 420 l 1
 480 340 l 1
 155 340 l 1
168 700 m 1
 255 700 l 1
 133 0 l 1
 51 0 l 1
 168 700 l 1
EndSplineSet
EndChar

StartChar: uni0416
Encoding: 1046 1046 393
Width: 868
VWidth: 0
Flags: HW
LayerCount: 2
Fore
SplineSet
212 700 m 1
 450 366 l 1
 83 0 l 1
 -26 0 l 1
 350 376 l 1
 114 700 l 1
 212 700 l 1
488 700 m 1
 575 700 l 1
 454 0 l 1
 372 0 l 1
 488 700 l 1
836 700 m 1
 946 700 l 1
 591 368 l 1
 834 0 l 1
 736 0 l 1
 501 374 l 1
 836 700 l 1
EndSplineSet
EndChar

StartChar: uni0417
Encoding: 1047 1047 394
Width: 588
VWidth: 0
Flags: HW
LayerCount: 2
Fore
SplineSet
306 346 m 1
 314 400 l 1
 410 405 486 447 502 521 c 0
 514 587 472 632 394 632 c 0
 313 633 251 588 231 526 c 1
 150 527 l 1
 174 636 269 710 397 710 c 0
 519 710 604 628 588 524 c 0
 568 410 443 350 306 346 c 1
280 -10 m 0
 136 -10 51 67 61 185 c 1
 145 184 l 1
 145 112 190 70 284 70 c 0
 380 70 451 116 466 195 c 0
 484 287 396 322 303 326 c 1
 312 380 l 1
 448 378 571 324 550 184 c 0
 531 62 420 -10 280 -10 c 0
EndSplineSet
EndChar

StartChar: uni0418
Encoding: 1048 1048 395
Width: 752
VWidth: 0
Flags: HW
LayerCount: 2
Fore
SplineSet
746 602 m 1
 40 -41 l 1
 72 98 l 1
 778 742 l 1
 746 602 l 1
254 700 m 1
 146 72 l 1
 40 -41 l 1
 169 700 l 1
 254 700 l 1
778 742 m 1
 648 0 l 1
 563 0 l 1
 671 628 l 1
 778 742 l 1
EndSplineSet
EndChar

StartChar: uni0419
Encoding: 1049 1049 396
Width: 752
VWidth: 0
Flags: HW
LayerCount: 2
Fore
SplineSet
746 602 m 1
 40 -41 l 1
 72 98 l 1
 778 742 l 1
 746 602 l 1
254 700 m 1
 146 72 l 1
 40 -41 l 1
 169 700 l 1
 254 700 l 1
778 742 m 1
 648 0 l 1
 563 0 l 1
 671 628 l 1
 778 742 l 1
357 906 m 1
 426 906 l 1
 425 873 439 832 497 832 c 0
 557 832 582 874 594 906 c 1
 665 905 l 1
 647 833 589 766 492 766 c 0
 396 766 353 832 357 906 c 1
EndSplineSet
EndChar

StartChar: uni041A
Encoding: 1050 1050 397
Width: 548
VWidth: 0
Flags: HW
LayerCount: 2
Fore
SplineSet
168 700 m 1
 255 700 l 1
 133 0 l 1
 51 0 l 1
 168 700 l 1
516 700 m 1
 626 700 l 1
 270 368 l 1
 514 0 l 1
 416 0 l 1
 171 374 l 1
 516 700 l 1
EndSplineSet
EndChar

StartChar: uni041B
Encoding: 1051 1051 398
Width: 638
VWidth: 0
Flags: HW
LayerCount: 2
Fore
SplineSet
655 700 m 1
 534 0 l 1
 450 0 l 1
 556 620 l 1
 258 620 l 1
 194 240 l 2
 172 116 104 11 -18 1 c 1
 -6 72 l 1
 66 86 102 168 116 260 c 2
 191 700 l 1
 655 700 l 1
EndSplineSet
EndChar

StartChar: uni041C
Encoding: 1052 1052 399
Width: 786
VWidth: 0
Flags: HW
LayerCount: 2
Fore
SplineSet
227 472 m 1
 96 0 l 1
 9 0 l 1
 219 736 l 1
 403 230 l 1
 766 741 l 1
 720 0 l 1
 636 0 l 1
 666 466 l 1
 378 63 l 1
 227 472 l 1
EndSplineSet
EndChar

StartChar: uni041D
Encoding: 1053 1053 400
Width: 693
VWidth: 0
Flags: HW
LayerCount: 2
Fore
SplineSet
155 340 m 1
 168 420 l 1
 636 420 l 1
 622 340 l 1
 155 340 l 1
624 700 m 1
 711 700 l 1
 590 0 l 1
 507 0 l 1
 624 700 l 1
168 700 m 1
 255 700 l 1
 133 0 l 1
 51 0 l 1
 168 700 l 1
EndSplineSet
EndChar

StartChar: uni041E
Encoding: 1054 1054 401
Width: 766
VWidth: 0
Flags: HW
LayerCount: 2
Fore
SplineSet
160 350 m 0
 138 210 211 77 364 76 c 0
 519 75 646 201 672 350 c 0
 694 490 621 623 468 624 c 0
 313 625 186 499 160 350 c 0
70 350 m 0
 100 546 268 710 472 710 c 0
 673 710 789 538 762 350 c 0
 732 154 563 -10 359 -10 c 0
 158 -10 43 162 70 350 c 0
EndSplineSet
EndChar

StartChar: uni041F
Encoding: 1055 1055 402
Width: 693
VWidth: 0
Flags: HW
LayerCount: 2
Fore
SplineSet
614 620 m 1
 240 620 l 1
 134 0 l 1
 48 0 l 1
 169 700 l 1
 710 700 l 1
 590 0 l 1
 507 0 l 1
 614 620 l 1
EndSplineSet
EndChar

StartChar: uni0420
Encoding: 1056 1056 403
Width: 531
VWidth: 0
Flags: HW
LayerCount: 2
Fore
SplineSet
168 700 m 1
 255 700 l 1
 133 0 l 1
 51 0 l 1
 168 700 l 1
200 620 m 1
 214 700 l 1
 350 700 l 1
 477 698 569 615 551 490 c 0
 532 363 418 282 287 280 c 1
 142 280 l 1
 156 360 l 1
 292 360 l 2
 378 362 450 406 466 490 c 0
 480 571 428 618 345 620 c 1
 200 620 l 1
EndSplineSet
EndChar

StartChar: uni0421
Encoding: 1057 1057 404
Width: 664
VWidth: 0
Flags: HW
LayerCount: 2
Fore
SplineSet
160 350 m 0
 138 209 216 78 360 76 c 0
 456 75 538 120 600 178 c 1
 583 66 l 1
 519 17 448 -10 354 -10 c 0
 158 -9 43 161 70 350 c 0
 100 548 269 709 468 710 c 0
 558 710 621 685 678 632 c 1
 661 521 l 1
 619 586 550 624 462 624 c 0
 316 624 186 500 160 350 c 0
EndSplineSet
EndChar

StartChar: uni0422
Encoding: 1058 1058 405
Width: 451
VWidth: 0
Flags: HW
LayerCount: 2
Fore
SplineSet
86 620 m 1
 101 700 l 1
 536 700 l 1
 522 620 l 1
 347 620 l 1
 240 0 l 1
 156 0 l 1
 262 620 l 1
 86 620 l 1
EndSplineSet
EndChar

StartChar: uni0423
Encoding: 1059 1059 406
Width: 548
VWidth: 0
Flags: HW
LayerCount: 2
Fore
SplineSet
644 700 m 1
 204 0 l 1
 106 0 l 1
 233 211 l 1
 93 700 l 1
 191 700 l 1
 312 230 l 1
 262 235 l 1
 546 700 l 1
 644 700 l 1
EndSplineSet
EndChar

StartChar: uni0424
Encoding: 1060 1060 407
Width: 759
VWidth: 0
Flags: HW
LayerCount: 2
Fore
SplineSet
428 700 m 1
 516 700 l 1
 394 0 l 1
 312 0 l 1
 428 700 l 1
670 350 m 0
 692 470 603 532 479 534 c 1
 418 535 l 2
 288 533 176 472 154 350 c 0
 132 230 222 168 346 166 c 1
 407 165 l 2
 537 167 648 228 670 350 c 0
755 350 m 0
 729 182 578 82 402 80 c 1
 340 80 l 1
 170 82 45 185 70 350 c 0
 96 518 248 618 424 620 c 1
 484 620 l 1
 654 618 780 515 755 350 c 0
EndSplineSet
EndChar

StartChar: uni0425
Encoding: 1061 1061 408
Width: 538
VWidth: 0
Flags: HW
LayerCount: 2
Fore
SplineSet
507 700 m 1
 610 700 l 1
 348 363 l 1
 500 0 l 1
 406 0 l 1
 296 290 l 1
 82 0 l 1
 -22 0 l 1
 267 371 l 1
 128 700 l 1
 222 700 l 1
 319 444 l 1
 507 700 l 1
EndSplineSet
EndChar

StartChar: uni0426
Encoding: 1062 1062 409
Width: 737
VWidth: 0
Flags: HW
LayerCount: 2
Fore
SplineSet
145 80 m 1
 518 80 l 1
 625 700 l 1
 710 700 l 1
 604 80 l 1
 687 80 l 1
 654 -110 l 1
 579 -110 l 1
 598 0 l 1
 49 0 l 1
 170 700 l 1
 252 700 l 1
 145 80 l 1
EndSplineSet
EndChar

StartChar: uni0427
Encoding: 1063 1063 410
Width: 596
VWidth: 0
Flags: HW
LayerCount: 2
Fore
SplineSet
302 280 m 1
 314 355 l 1
 528 355 l 1
 515 280 l 1
 302 280 l 1
526 700 m 1
 614 700 l 1
 492 0 l 1
 410 0 l 1
 526 700 l 1
250 700 m 1
 217 518 l 2
 203 434 233 355 314 355 c 1
 302 280 l 1
 177 280 120 393 138 518 c 1
 169 700 l 1
 250 700 l 1
EndSplineSet
EndChar

StartChar: uni0428
Encoding: 1064 1064 411
Width: 955
VWidth: 0
Flags: HW
LayerCount: 2
Fore
SplineSet
780 80 m 1
 887 700 l 1
 972 700 l 1
 852 0 l 1
 49 0 l 1
 169 700 l 1
 254 700 l 1
 148 80 l 1
 422 80 l 1
 528 700 l 1
 614 700 l 1
 507 80 l 1
 780 80 l 1
EndSplineSet
EndChar

StartChar: uni0429
Encoding: 1065 1065 412
Width: 999
VWidth: 0
Flags: HW
LayerCount: 2
Fore
SplineSet
780 80 m 1
 887 700 l 1
 972 700 l 1
 866 80 l 1
 949 80 l 1
 916 -110 l 1
 841 -110 l 1
 860 0 l 1
 49 0 l 1
 169 700 l 1
 254 700 l 1
 148 80 l 1
 422 80 l 1
 528 700 l 1
 614 700 l 1
 507 80 l 1
 780 80 l 1
EndSplineSet
EndChar

StartChar: uni042A
Encoding: 1066 1066 413
Width: 638
VWidth: 0
Flags: HW
LayerCount: 2
Fore
SplineSet
259 340 m 1
 274 420 l 1
 409 420 l 2
 536 420 628 335 610 210 c 0
 591 83 477 0 346 0 c 2
 201 0 l 1
 216 80 l 1
 350 80 l 2
 436 82 510 126 526 210 c 0
 540 291 487 340 404 340 c 2
 259 340 l 1
264 620 m 1
 86 620 l 1
 101 700 l 1
 361 700 l 1
 240 0 l 1
 158 0 l 1
 264 620 l 1
EndSplineSet
EndChar

StartChar: uni042B
Encoding: 1067 1067 414
Width: 742
VWidth: 0
Flags: HW
LayerCount: 2
Fore
SplineSet
672 700 m 1
 760 700 l 1
 638 0 l 1
 556 0 l 1
 672 700 l 1
168 700 m 1
 255 700 l 1
 133 0 l 1
 51 0 l 1
 168 700 l 1
152 340 m 1
 167 420 l 1
 302 420 l 2
 429 420 521 335 503 210 c 0
 484 83 371 0 240 0 c 2
 94 0 l 1
 108 80 l 1
 244 80 l 2
 330 82 402 126 418 210 c 0
 432 291 380 340 297 340 c 2
 152 340 l 1
EndSplineSet
EndChar

StartChar: uni042C
Encoding: 1068 1068 415
Width: 531
VWidth: 0
Flags: HW
LayerCount: 2
Fore
SplineSet
168 700 m 1
 255 700 l 1
 133 0 l 1
 51 0 l 1
 168 700 l 1
152 340 m 1
 167 420 l 1
 302 420 l 2
 429 420 521 335 503 210 c 0
 484 83 371 0 240 0 c 2
 94 0 l 1
 108 80 l 1
 244 80 l 2
 330 82 402 126 418 210 c 0
 432 291 380 340 297 340 c 2
 152 340 l 1
EndSplineSet
EndChar

StartChar: uni042D
Encoding: 1069 1069 416
Width: 664
VWidth: 0
Flags: HW
LayerCount: 2
Fore
SplineSet
154 310 m 1
 167 390 l 1
 580 390 l 1
 567 310 l 1
 154 310 l 1
570 350 m 0
 592 491 514 622 370 624 c 0
 274 625 192 580 130 522 c 1
 147 634 l 1
 211 683 282 710 376 710 c 0
 572 709 687 539 660 350 c 0
 630 152 461 -9 262 -10 c 0
 172 -10 109 15 52 68 c 1
 69 179 l 1
 111 114 180 76 268 76 c 0
 414 76 544 200 570 350 c 0
EndSplineSet
EndChar

StartChar: uni042E
Encoding: 1070 1070 417
Width: 999
VWidth: 0
Flags: HW
LayerCount: 2
Fore
SplineSet
154 340 m 1
 168 420 l 1
 384 420 l 1
 370 340 l 1
 154 340 l 1
168 700 m 1
 255 700 l 1
 133 0 l 1
 51 0 l 1
 168 700 l 1
393 350 m 0
 371 210 445 77 598 76 c 0
 753 75 879 201 905 350 c 0
 927 490 853 623 700 624 c 0
 545 625 419 499 393 350 c 0
303 350 m 0
 333 546 502 710 706 710 c 0
 907 710 1021 538 994 350 c 0
 964 154 796 -10 592 -10 c 0
 391 -10 276 162 303 350 c 0
EndSplineSet
EndChar

StartChar: uni042F
Encoding: 1071 1071 418
Width: 543
VWidth: 0
Flags: HW
LayerCount: 2
Fore
SplineSet
380 344 m 1
 88 0 l 1
 -22 0 l 1
 281 344 l 1
 380 344 l 1
560 700 m 1
 440 0 l 1
 354 0 l 1
 475 700 l 1
 560 700 l 1
501 625 m 1
 366 625 l 2
 279 625 206 574 190 490 c 0
 176 410 227 359 311 356 c 1
 456 355 l 1
 442 280 l 1
 306 280 l 1
 179 282 88 365 106 490 c 0
 125 617 239 700 370 700 c 2
 514 700 l 1
 501 625 l 1
EndSplineSet
EndChar

StartChar: uni0430
Encoding: 1072 1072 419
Width: 470
VWidth: 0
Flags: HW
LayerCount: 2
Fore
SplineSet
104 135 m 0
 97 87 134 63 182 62 c 0
 262 60 319 104 338 180 c 1
 346 129 l 1
 326 45 250 -10 156 -10 c 0
 72 -10 12 45 24 132 c 0
 39 230 128 286 238 286 c 0
 309 286 355 253 379 224 c 1
 372 178 l 1
 332 208 289 224 237 224 c 0
 167 224 113 193 104 135 c 0
142 352 m 1
 113 414 l 1
 158 442 217 470 291 470 c 0
 385 470 457 418 442 330 c 2
 386 0 l 1
 306 0 l 1
 364 330 l 2
 372 374 332 398 284 399 c 0
 225 400 176 372 142 352 c 1
EndSplineSet
EndChar

StartChar: uni0431
Encoding: 1073 1073 420
Width: 529
VWidth: 0
Flags: HW
LayerCount: 2
Fore
SplineSet
308 395 m 1
 320 470 l 1
 452 470 533 362 516 230 c 0
 498 98 385 -10 250 -10 c 0
 108 -10 54 112 54 234 c 1
 128 204 l 1
 128 138 167 67 254 66 c 0
 345 65 421 140 435 230 c 0
 450 322 397 395 308 395 c 1
94 231 m 1
 116 368 194 470 320 470 c 1
 308 395 l 1
 225 395 128 325 128 204 c 1
 94 231 l 1
54 234 m 1
 54 434 151 596 314 656 c 0
 395 686 445 725 473 780 c 1
 552 779 l 1
 522 685 437 629 332 591 c 0
 212 548 124 415 124 295 c 2
 124 207 l 1
 54 234 l 1
EndSplineSet
EndChar

StartChar: uni0432
Encoding: 1074 1074 421
Width: 439
VWidth: 0
Flags: HW
LayerCount: 2
Fore
SplineSet
131 240 m 1
 258 240 l 2
 342 239 418 212 406 124 c 0
 395 50 334 0 244 0 c 2
 91 0 l 1
 102 70 l 1
 228 70 l 2
 278 70 321 96 328 136 c 0
 334 174 305 198 257 198 c 2
 124 198 l 1
 131 240 l 1
128 220 m 1
 136 266 l 1
 253 267 l 2
 296 267 336 292 342 330 c 0
 348 366 320 390 280 390 c 2
 158 390 l 1
 168 460 l 1
 286 460 l 2
 365 460 435 420 422 334 c 0
 410 256 332 222 252 220 c 2
 128 220 l 1
122 460 m 1
 204 460 l 1
 124 0 l 1
 46 0 l 1
 122 460 l 1
EndSplineSet
EndChar

StartChar: uni0433
Encoding: 1075 1075 422
Width: 320
VWidth: 0
Flags: HW
LayerCount: 2
Fore
SplineSet
126 460 m 1
 368 460 l 1
 355 385 l 1
 196 385 l 1
 128 0 l 1
 51 0 l 1
 126 460 l 1
EndSplineSet
EndChar

StartChar: uni0434
Encoding: 1076 1076 423
Width: 635
VWidth: 0
Flags: HW
LayerCount: 2
Fore
SplineSet
346 322 m 1
 165 30 l 1
 72 30 l 1
 372 498 l 1
 510 30 l 1
 426 30 l 1
 346 322 l 1
490 0 m 1
 96 0 l 1
 80 -90 l 1
 -6 -90 l 1
 24 75 l 1
 580 75 l 1
 550 -90 l 1
 473 -90 l 1
 490 0 l 1
EndSplineSet
EndChar

StartChar: uni0435
Encoding: 1077 1077 424
Width: 499
VWidth: 0
Flags: HW
LayerCount: 2
Fore
SplineSet
98 210 m 1
 108 278 l 1
 406 278 l 1
 410 344 379 399 302 400 c 0
 220 401 154 339 138 260 c 1
 131 230 l 1
 119 140 154 66 246 66 c 0
 312 66 360 102 398 148 c 1
 458 106 l 1
 402 40 337 -11 230 -10 c 0
 102 -8 37 106 52 230 c 0
 54 247 57 263 62 279 c 0
 95 387 190 470 308 470 c 0
 440 470 500 362 486 234 c 0
 485 226 484 218 482 210 c 1
 98 210 l 1
EndSplineSet
EndChar

StartChar: uni0436
Encoding: 1078 1078 425
Width: 655
VWidth: 0
Flags: HW
LayerCount: 2
Fore
SplineSet
586 460 m 1
 692 460 l 1
 448 257 l 1
 626 0 l 1
 533 0 l 1
 364 274 l 1
 586 460 l 1
416 460 m 1
 338 0 l 1
 264 0 l 1
 342 460 l 1
 416 460 l 1
165 460 m 1
 330 266 l 1
 73 0 l 1
 -32 0 l 1
 241 264 l 1
 73 460 l 1
 165 460 l 1
EndSplineSet
EndChar

StartChar: uni0437
Encoding: 1079 1079 426
Width: 459
VWidth: 0
Flags: HW
LayerCount: 2
Fore
SplineSet
244 230 m 1
 252 280 l 1
 302 283 342 301 348 341 c 0
 352 375 327 397 288 397 c 0
 234 398 204 359 192 326 c 1
 110 328 l 1
 128 404 198 470 290 470 c 0
 372 470 440 413 428 339 c 0
 415 264 334 232 244 230 c 1
215 -10 m 0
 113 -10 57 56 54 145 c 1
 133 145 l 1
 139 99 157 61 219 60 c 0
 275 59 326 89 334 135 c 0
 344 187 297 206 241 210 c 1
 249 260 l 1
 341 257 426 223 413 134 c 0
 401 45 307 -10 215 -10 c 0
EndSplineSet
EndChar

StartChar: uni0438
Encoding: 1080 1080 427
Width: 528
VWidth: 0
Flags: HW
LayerCount: 2
Fore
SplineSet
484 377 m 1
 40 -41 l 1
 68 83 l 1
 514 502 l 1
 484 377 l 1
208 460 m 1
 141 72 l 1
 40 -41 l 1
 128 460 l 1
 208 460 l 1
514 502 m 1
 425 0 l 1
 344 0 l 1
 412 388 l 1
 514 502 l 1
EndSplineSet
EndChar

StartChar: uni0439
Encoding: 1081 1081 428
Width: 528
VWidth: 0
Flags: HW
LayerCount: 2
Fore
SplineSet
484 377 m 1
 40 -41 l 1
 68 83 l 1
 514 502 l 1
 484 377 l 1
208 460 m 1
 141 72 l 1
 40 -41 l 1
 128 460 l 1
 208 460 l 1
514 502 m 1
 425 0 l 1
 344 0 l 1
 412 388 l 1
 514 502 l 1
198 686 m 1
 267 686 l 1
 266 653 280 612 338 612 c 0
 398 612 423 654 435 686 c 1
 506 685 l 1
 488 613 430 546 333 546 c 0
 237 546 194 612 198 686 c 1
EndSplineSet
EndChar

StartChar: uni043A
Encoding: 1082 1082 429
Width: 426
VWidth: 0
Flags: HW
LayerCount: 2
Fore
SplineSet
116 460 m 1
 200 460 l 1
 118 0 l 1
 42 0 l 1
 116 460 l 1
358 460 m 1
 464 460 l 1
 232 267 l 1
 398 0 l 1
 305 0 l 1
 136 274 l 1
 358 460 l 1
EndSplineSet
EndChar

StartChar: uni043B
Encoding: 1083 1083 430
Width: 541
VWidth: 0
Flags: HW
LayerCount: 2
Fore
SplineSet
517 460 m 1
 438 0 l 1
 357 0 l 1
 424 385 l 1
 198 385 l 1
 160 160 l 2
 142 56 85 6 -18 0 c 1
 -6 72 l 1
 38 79 69 103 79 160 c 1
 131 460 l 1
 517 460 l 1
EndSplineSet
EndChar

StartChar: uni043C
Encoding: 1084 1084 431
Width: 589
VWidth: 0
Flags: HW
LayerCount: 2
Fore
SplineSet
469 0 m 1
 459 370 l 1
 527 500 l 1
 557 0 l 1
 469 0 l 1
248 74 m 1
 527 500 l 1
 508 331 l 1
 261 -33 l 1
 248 74 l 1
261 -33 m 1
 142 340 l 1
 180 499 l 1
 307 64 l 1
 261 -33 l 1
-26 0 m 1
 180 499 l 1
 200 360 l 1
 66 0 l 1
 -26 0 l 1
EndSplineSet
EndChar

StartChar: uni043D
Encoding: 1085 1085 432
Width: 548
VWidth: 0
Flags: HW
LayerCount: 2
Fore
SplineSet
127 206 m 1
 138 280 l 1
 471 280 l 1
 459 206 l 1
 127 206 l 1
446 460 m 1
 530 460 l 1
 448 0 l 1
 372 0 l 1
 446 460 l 1
122 460 m 1
 204 460 l 1
 124 0 l 1
 46 0 l 1
 122 460 l 1
EndSplineSet
EndChar

StartChar: uni043E
Encoding: 1086 1086 433
Width: 529
VWidth: 0
Flags: HW
LayerCount: 2
Fore
SplineSet
44 230 m 0
 64 362 178 470 314 470 c 0
 448 470 528 358 510 230 c 0
 490 98 376 -10 240 -10 c 0
 106 -10 26 102 44 230 c 0
126 230 m 0
 112 146 154 67 244 66 c 0
 336 65 412 140 428 230 c 0
 442 314 400 393 310 394 c 0
 218 395 142 320 126 230 c 0
EndSplineSet
EndChar

StartChar: uni043F
Encoding: 1087 1087 434
Width: 509
VWidth: 0
Flags: HW
LayerCount: 2
Fore
SplineSet
490 460 m 1
 410 0 l 1
 330 0 l 1
 396 385 l 1
 191 385 l 1
 124 0 l 1
 44 0 l 1
 123 460 l 1
 490 460 l 1
EndSplineSet
EndChar

StartChar: uni0440
Encoding: 1088 1088 435
Width: 553
VWidth: 0
Flags: HW
LayerCount: 2
Fore
SplineSet
84 -220 m 1
 1 -220 l 1
 119 460 l 1
 196 460 l 1
 84 -220 l 1
532 230 m 0
 513 94 404 -11 274 -10 c 0
 150 -9 106 106 122 230 c 0
 140 361 224 470 346 470 c 0
 476 471 550 360 532 230 c 0
452 230 m 0
 466 319 421 394 333 394 c 0
 253 394 173 322 158 230 c 0
 146 144 190 68 268 66 c 0
 358 64 436 136 452 230 c 0
EndSplineSet
EndChar

StartChar: uni0441
Encoding: 1089 1089 436
Width: 463
VWidth: 0
Flags: HW
LayerCount: 2
Fore
SplineSet
120 230 m 0
 106 146 150 68 240 66 c 0
 312 65 377 104 413 148 c 1
 398 48 l 1
 357 12 298 -10 236 -10 c 0
 102 -10 22 102 40 230 c 0
 60 363 173 470 309 470 c 0
 369 470 423 448 458 410 c 1
 444 311 l 1
 424 361 371 394 305 394 c 0
 213 394 136 320 120 230 c 0
EndSplineSet
EndChar

StartChar: uni0442
Encoding: 1090 1090 437
Width: 271
VWidth: 0
Flags: HW
LayerCount: 2
Fore
SplineSet
55 460 m 1
 320 460 l 1
 306 385 l 1
 42 385 l 1
 55 460 l 1
142 440 m 1
 225 440 l 1
 148 0 l 1
 70 0 l 1
 142 440 l 1
EndSplineSet
EndChar

StartChar: uni0443
Encoding: 1091 1091 438
Width: 426
VWidth: 0
Flags: HW
LayerCount: 2
Fore
SplineSet
482 460 m 1
 74 -220 l 1
 -20 -220 l 1
 156 69 l 1
 52 460 l 1
 144 460 l 1
 224 100 l 1
 191 105 l 1
 388 460 l 1
 482 460 l 1
EndSplineSet
EndChar

StartChar: uni0444
Encoding: 1092 1092 439
Width: 568
VWidth: 0
Flags: HW
LayerCount: 2
Fore
SplineSet
312 560 m 1
 394 560 l 1
 279 -100 l 1
 202 -100 l 1
 312 560 l 1
45 230 m 0
 65 367 185 470 333 470 c 0
 479 470 568 364 548 230 c 0
 528 93 408 -10 260 -10 c 0
 114 -10 25 96 45 230 c 0
126 230 m 0
 110 140 162 67 264 66 c 0
 368 65 451 136 468 230 c 0
 484 320 431 393 329 394 c 0
 225 395 143 324 126 230 c 0
EndSplineSet
EndChar

StartChar: uni0445
Encoding: 1093 1093 440
Width: 407
VWidth: 0
Flags: HW
LayerCount: 2
Fore
SplineSet
359 460 m 1
 454 460 l 1
 258 234 l 1
 379 0 l 1
 294 0 l 1
 209 172 l 1
 63 0 l 1
 -32 0 l 1
 176 240 l 1
 62 460 l 1
 147 460 l 1
 226 302 l 1
 359 460 l 1
EndSplineSet
EndChar

StartChar: uni0446
Encoding: 1094 1094 441
Width: 548
VWidth: 0
Flags: HW
LayerCount: 2
Fore
SplineSet
422 74 m 1
 502 74 l 1
 474 -90 l 1
 404 -90 l 1
 419 0 l 1
 44 0 l 1
 124 460 l 1
 204 460 l 1
 137 75 l 1
 343 75 l 1
 410 460 l 1
 488 460 l 1
 422 74 l 1
EndSplineSet
EndChar

StartChar: uni0447
Encoding: 1095 1095 442
Width: 470
VWidth: 0
Flags: HW
LayerCount: 2
Fore
SplineSet
220 140 m 1
 232 214 l 1
 388 215 l 1
 374 140 l 1
 220 140 l 1
369 460 m 1
 452 460 l 1
 371 0 l 1
 294 0 l 1
 369 460 l 1
180 460 m 1
 156 328 l 2
 144 256 160 214 232 214 c 1
 220 140 l 1
 91 140 57 206 76 328 c 2
 99 460 l 1
 180 460 l 1
EndSplineSet
EndChar

StartChar: uni0448
Encoding: 1096 1096 443
Width: 756
VWidth: 0
Flags: HW
LayerCount: 2
Fore
SplineSet
402 74 m 1
 590 75 l 1
 657 460 l 1
 738 460 l 1
 658 0 l 1
 44 0 l 1
 124 460 l 1
 204 460 l 1
 137 75 l 1
 324 75 l 1
 391 460 l 1
 468 460 l 1
 402 74 l 1
EndSplineSet
EndChar

StartChar: uni0449
Encoding: 1097 1097 444
Width: 795
VWidth: 0
Flags: HW
LayerCount: 2
Fore
SplineSet
402 74 m 1
 590 75 l 1
 657 460 l 1
 738 460 l 1
 671 75 l 1
 749 75 l 1
 721 -90 l 1
 651 -90 l 1
 666 0 l 1
 44 0 l 1
 124 460 l 1
 204 460 l 1
 137 75 l 1
 324 75 l 1
 391 460 l 1
 468 460 l 1
 402 74 l 1
EndSplineSet
EndChar

StartChar: uni044A
Encoding: 1098 1098 445
Width: 560
VWidth: 0
Flags: HW
LayerCount: 2
Fore
SplineSet
220 216 m 1
 230 286 l 1
 367 286 l 2
 457 286 525 236 511 142 c 0
 497 48 418 0 326 0 c 2
 184 0 l 1
 194 70 l 1
 330 70 l 2
 382 70 423 98 432 144 c 0
 440 188 412 216 362 216 c 2
 220 216 l 1
205 386 m 1
 42 385 l 1
 55 460 l 1
 296 460 l 1
 216 0 l 1
 138 0 l 1
 205 386 l 1
EndSplineSet
EndChar

StartChar: uni044B
Encoding: 1099 1099 446
Width: 625
VWidth: 0
Flags: HW
LayerCount: 2
Fore
SplineSet
524 460 m 1
 607 460 l 1
 526 0 l 1
 449 0 l 1
 524 460 l 1
122 460 m 1
 204 460 l 1
 124 0 l 1
 46 0 l 1
 122 460 l 1
128 216 m 1
 138 286 l 1
 275 286 l 2
 365 286 432 236 418 142 c 0
 404 48 326 0 234 0 c 2
 91 0 l 1
 102 70 l 1
 238 70 l 2
 290 70 331 98 340 144 c 0
 348 188 320 216 270 216 c 2
 128 216 l 1
EndSplineSet
EndChar

StartChar: uni044C
Encoding: 1100 1100 447
Width: 468
VWidth: 0
Flags: HW
LayerCount: 2
Fore
SplineSet
122 460 m 1
 204 460 l 1
 124 0 l 1
 46 0 l 1
 122 460 l 1
128 216 m 1
 138 286 l 1
 275 286 l 2
 365 286 432 236 418 142 c 0
 404 48 326 0 234 0 c 2
 91 0 l 1
 102 70 l 1
 238 70 l 2
 290 70 331 98 340 144 c 0
 348 188 320 216 270 216 c 2
 128 216 l 1
EndSplineSet
EndChar

StartChar: uni044D
Encoding: 1101 1101 448
Width: 463
VWidth: 0
Flags: HW
LayerCount: 2
Fore
SplineSet
150 266 m 1
 447 266 l 1
 366 194 l 1
 138 194 l 1
 150 266 l 1
368 230 m 0
 382 314 338 392 248 394 c 0
 176 395 112 356 76 312 c 1
 90 412 l 1
 131 448 190 470 252 470 c 0
 386 470 466 358 448 230 c 0
 428 97 316 -10 180 -10 c 0
 120 -10 65 10 30 50 c 1
 45 149 l 1
 65 99 118 66 184 66 c 0
 276 66 352 140 368 230 c 0
EndSplineSet
EndChar

StartChar: uni044E
Encoding: 1102 1102 449
Width: 723
VWidth: 0
Flags: HW
LayerCount: 2
Fore
SplineSet
126 206 m 1
 139 280 l 1
 306 280 l 1
 294 206 l 1
 126 206 l 1
122 460 m 1
 204 460 l 1
 124 0 l 1
 46 0 l 1
 122 460 l 1
239 230 m 0
 259 362 372 470 508 470 c 0
 642 470 722 358 704 230 c 0
 684 98 571 -10 435 -10 c 0
 301 -10 221 102 239 230 c 0
320 230 m 0
 306 146 348 67 438 66 c 0
 530 65 607 140 623 230 c 0
 637 314 594 393 504 394 c 0
 412 395 336 320 320 230 c 0
EndSplineSet
EndChar

StartChar: uni044F
Encoding: 1103 1103 450
Width: 468
VWidth: 0
Flags: HW
LayerCount: 2
Fore
SplineSet
114 0 m 1
 20 0 l 1
 228 239 l 1
 316 238 l 1
 114 0 l 1
396 0 m 1
 313 0 l 1
 394 460 l 1
 471 460 l 1
 396 0 l 1
391 254 m 1
 380 184 l 1
 244 184 l 2
 155 184 87 228 100 322 c 0
 113 416 193 458 284 460 c 2
 426 460 l 1
 416 390 l 1
 279 390 l 2
 228 390 186 368 178 322 c 0
 170 277 201 254 249 254 c 2
 391 254 l 1
EndSplineSet
EndChar

StartChar: uni0450
Encoding: 1104 1104 451
Width: 499
VWidth: 0
Flags: HW
LayerCount: 2
Fore
SplineSet
98 210 m 1
 108 278 l 1
 406 278 l 1
 410 344 379 399 302 400 c 0
 220 401 154 339 138 260 c 1
 131 230 l 1
 119 140 154 66 246 66 c 0
 312 66 360 102 398 148 c 1
 458 106 l 1
 402 40 337 -11 230 -10 c 0
 102 -8 37 106 52 230 c 0
 54 247 57 263 62 279 c 0
 95 387 190 470 308 470 c 0
 440 470 500 362 486 234 c 0
 485 226 484 218 482 210 c 1
 98 210 l 1
178 680 m 1
 256 719 l 1
 379 558 l 1
 332 530 l 1
 178 680 l 1
EndSplineSet
EndChar

StartChar: uni0451
Encoding: 1105 1105 452
Width: 499
VWidth: 0
Flags: HW
LayerCount: 2
Fore
SplineSet
98 210 m 1
 108 278 l 1
 406 278 l 1
 410 344 379 399 302 400 c 0
 220 401 154 339 138 260 c 1
 131 230 l 1
 119 140 154 66 246 66 c 0
 312 66 360 102 398 148 c 1
 458 106 l 1
 402 40 337 -11 230 -10 c 0
 102 -8 37 106 52 230 c 0
 54 247 57 263 62 279 c 0
 95 387 190 470 308 470 c 0
 440 470 500 362 486 234 c 0
 485 226 484 218 482 210 c 1
 98 210 l 1
369 585 m 0
 371 612 403 641 431 639 c 0
 459 637 479 611 477 583 c 0
 475 556 444 528 416 530 c 0
 388 532 367 557 369 585 c 0
175 585 m 0
 177 612 209 641 237 639 c 0
 265 637 285 611 283 583 c 0
 281 556 250 528 222 530 c 0
 194 532 173 557 175 585 c 0
EndSplineSet
EndChar

StartChar: uni0453
Encoding: 1107 1107 453
Width: 320
VWidth: 0
Flags: HW
LayerCount: 2
Fore
SplineSet
126 460 m 1
 368 460 l 1
 355 385 l 1
 196 385 l 1
 128 0 l 1
 51 0 l 1
 126 460 l 1
461 676 m 1
 263 530 l 1
 220 562 l 1
 391 720 l 1
 461 676 l 1
EndSplineSet
EndChar

StartChar: uni045C
Encoding: 1116 1116 454
Width: 426
VWidth: 0
Flags: HW
LayerCount: 2
Fore
SplineSet
116 460 m 1
 200 460 l 1
 118 0 l 1
 42 0 l 1
 116 460 l 1
358 460 m 1
 464 460 l 1
 232 267 l 1
 398 0 l 1
 305 0 l 1
 136 274 l 1
 358 460 l 1
502 676 m 1
 304 530 l 1
 262 562 l 1
 432 720 l 1
 502 676 l 1
EndSplineSet
EndChar

StartChar: uni045D
Encoding: 1117 1117 455
Width: 528
VWidth: 0
Flags: HW
LayerCount: 2
Fore
SplineSet
484 377 m 1
 40 -41 l 1
 68 83 l 1
 514 502 l 1
 484 377 l 1
208 460 m 1
 141 72 l 1
 40 -41 l 1
 128 460 l 1
 208 460 l 1
514 502 m 1
 425 0 l 1
 344 0 l 1
 412 388 l 1
 514 502 l 1
179 697 m 1
 257 736 l 1
 381 575 l 1
 334 546 l 1
 179 697 l 1
EndSplineSet
EndChar

StartChar: uni045E
Encoding: 1118 1118 456
Width: 426
VWidth: 0
Flags: HW
LayerCount: 2
Fore
SplineSet
482 460 m 1
 74 -220 l 1
 -20 -220 l 1
 156 69 l 1
 52 460 l 1
 144 460 l 1
 224 100 l 1
 191 105 l 1
 388 460 l 1
 482 460 l 1
146 670 m 1
 215 670 l 1
 213 638 226 596 284 596 c 0
 344 596 369 638 383 670 c 1
 454 668 l 1
 436 596 378 530 281 530 c 0
 185 530 141 596 146 670 c 1
EndSplineSet
EndChar

StartChar: uni0123
Encoding: 291 291 457
Width: 553
VWidth: 0
Flags: HW
LayerCount: 2
Fore
SplineSet
9 -30 m 1
 88 -30 l 1
 83 -97 122 -153 206 -154 c 0
 288 -155 364 -88 380 10 c 1
 458 460 l 1
 538 460 l 1
 462 10 l 2
 440 -131 329 -230 202 -230 c 0
 74 -230 -1 -146 9 -30 c 1
44 230 m 0
 63 366 174 471 304 470 c 0
 428 469 472 354 456 230 c 0
 438 99 353 -10 231 -10 c 0
 101 -11 26 100 44 230 c 0
126 230 m 0
 112 141 156 66 244 66 c 0
 324 66 404 138 419 230 c 0
 431 316 388 392 310 394 c 0
 220 396 142 324 126 230 c 0
344 546 m 1
 273 591 l 1
 454 817 l 1
 505 786 l 1
 344 546 l 1
EndSplineSet
EndChar

StartChar: Hbar
Encoding: 294 294 458
Width: 693
VWidth: 0
Flags: HW
LayerCount: 2
Fore
SplineSet
155 340 m 1
 168 420 l 1
 636 420 l 1
 622 340 l 1
 155 340 l 1
624 700 m 1
 711 700 l 1
 590 0 l 1
 507 0 l 1
 624 700 l 1
168 700 m 1
 255 700 l 1
 133 0 l 1
 51 0 l 1
 168 700 l 1
70 540 m 1
 82 615 l 1
 769 615 l 1
 757 540 l 1
 70 540 l 1
EndSplineSet
EndChar

StartChar: hbar
Encoding: 295 295 459
Width: 509
VWidth: 0
Flags: HW
LayerCount: 2
Fore
SplineSet
258 780 m 1
 124 0 l 1
 44 0 l 1
 178 780 l 1
 258 780 l 1
380 280 m 2
 388 342 374 392 308 394 c 0
 238 396 188 341 172 281 c 1
 145 282 l 1
 163 380 232 470 332 470 c 0
 432 470 472 391 460 290 c 1
 410 0 l 1
 332 0 l 1
 380 280 l 2
85 626 m 1
 97 700 l 1
 402 700 l 1
 390 626 l 1
 85 626 l 1
EndSplineSet
EndChar

StartChar: Utilde
Encoding: 360 360 460
Width: 607
VWidth: 0
Flags: HW
LayerCount: 2
Fore
SplineSet
164 700 m 1
 250 700 l 1
 168 230 l 2
 156 145 187 71 284 70 c 0
 382 68 446 140 462 230 c 1
 544 700 l 1
 629 700 l 1
 549 230 l 2
 526 98 424 -10 280 -10 c 0
 139 -10 66 100 84 230 c 1
 164 700 l 1
253 808 m 1
 253 852 329 888 365 888 c 0
 417 887 432 840 478 842 c 0
 502 843 522 866 542 890 c 1
 582 845 l 1
 560 811 518 772 470 774 c 0
 424 776 403 821 361 820 c 0
 325 819 310 788 302 770 c 1
 253 808 l 1
EndSplineSet
EndChar

StartChar: utilde
Encoding: 361 361 461
Width: 509
VWidth: 0
Flags: HW
LayerCount: 2
Fore
SplineSet
330 0 m 1
 410 460 l 1
 490 460 l 1
 410 0 l 1
 330 0 l 1
154 180 m 2
 146 118 160 68 226 66 c 0
 296 64 345 119 361 179 c 1
 388 178 l 1
 370 80 302 -10 202 -10 c 0
 102 -10 62 69 74 170 c 1
 124 460 l 1
 202 460 l 1
 154 180 l 2
163 569 m 1
 182 611 227 650 275 648 c 0
 327 647 342 600 388 602 c 0
 412 603 431 626 451 650 c 1
 492 605 l 1
 470 571 428 532 380 534 c 0
 334 536 313 581 271 580 c 0
 235 579 220 548 212 530 c 1
 163 569 l 1
EndSplineSet
EndChar

StartChar: Umacron
Encoding: 362 362 462
Width: 607
VWidth: 0
Flags: HW
LayerCount: 2
Fore
SplineSet
164 700 m 1
 250 700 l 1
 168 230 l 2
 156 145 187 71 284 70 c 0
 382 68 446 140 462 230 c 1
 544 700 l 1
 629 700 l 1
 549 230 l 2
 526 98 424 -10 280 -10 c 0
 139 -10 66 100 84 230 c 1
 164 700 l 1
239 770 m 1
 251 845 l 1
 593 845 l 1
 581 770 l 1
 239 770 l 1
EndSplineSet
EndChar

StartChar: umacron
Encoding: 363 363 463
Width: 509
VWidth: 0
Flags: HW
LayerCount: 2
Fore
SplineSet
330 0 m 1
 410 460 l 1
 490 460 l 1
 410 0 l 1
 330 0 l 1
154 180 m 2
 146 118 160 68 226 66 c 0
 296 64 345 119 361 179 c 1
 388 178 l 1
 370 80 302 -10 202 -10 c 0
 102 -10 62 69 74 170 c 1
 124 460 l 1
 202 460 l 1
 154 180 l 2
149 530 m 1
 161 605 l 1
 503 605 l 1
 491 530 l 1
 149 530 l 1
EndSplineSet
EndChar

StartChar: Ubreve
Encoding: 364 364 464
Width: 607
VWidth: 0
Flags: HW
LayerCount: 2
Fore
SplineSet
164 700 m 1
 250 700 l 1
 168 230 l 2
 156 145 187 71 284 70 c 0
 382 68 446 140 462 230 c 1
 544 700 l 1
 629 700 l 1
 549 230 l 2
 526 98 424 -10 280 -10 c 0
 139 -10 66 100 84 230 c 1
 164 700 l 1
277 910 m 1
 346 910 l 1
 344 878 357 836 415 836 c 0
 475 836 500 878 514 910 c 1
 586 908 l 1
 568 836 509 770 412 770 c 0
 316 770 272 836 277 910 c 1
EndSplineSet
EndChar

